%TF.GenerationSoftware,KiCad,Pcbnew,7.0.1-0*%
%TF.CreationDate,2024-03-03T19:15:34-08:00*%
%TF.ProjectId,BNOCAN,424e4f43-414e-42e6-9b69-6361645f7063,rev?*%
%TF.SameCoordinates,Original*%
%TF.FileFunction,Copper,L1,Top*%
%TF.FilePolarity,Positive*%
%FSLAX46Y46*%
G04 Gerber Fmt 4.6, Leading zero omitted, Abs format (unit mm)*
G04 Created by KiCad (PCBNEW 7.0.1-0) date 2024-03-03 19:15:34*
%MOMM*%
%LPD*%
G01*
G04 APERTURE LIST*
G04 Aperture macros list*
%AMRoundRect*
0 Rectangle with rounded corners*
0 $1 Rounding radius*
0 $2 $3 $4 $5 $6 $7 $8 $9 X,Y pos of 4 corners*
0 Add a 4 corners polygon primitive as box body*
4,1,4,$2,$3,$4,$5,$6,$7,$8,$9,$2,$3,0*
0 Add four circle primitives for the rounded corners*
1,1,$1+$1,$2,$3*
1,1,$1+$1,$4,$5*
1,1,$1+$1,$6,$7*
1,1,$1+$1,$8,$9*
0 Add four rect primitives between the rounded corners*
20,1,$1+$1,$2,$3,$4,$5,0*
20,1,$1+$1,$4,$5,$6,$7,0*
20,1,$1+$1,$6,$7,$8,$9,0*
20,1,$1+$1,$8,$9,$2,$3,0*%
G04 Aperture macros list end*
%TA.AperFunction,SMDPad,CuDef*%
%ADD10RoundRect,0.062500X-0.475000X-0.062500X0.475000X-0.062500X0.475000X0.062500X-0.475000X0.062500X0*%
%TD*%
%TA.AperFunction,SMDPad,CuDef*%
%ADD11RoundRect,0.062500X-0.062500X-0.475000X0.062500X-0.475000X0.062500X0.475000X-0.062500X0.475000X0*%
%TD*%
%TA.AperFunction,SMDPad,CuDef*%
%ADD12R,4.100000X4.100000*%
%TD*%
%TA.AperFunction,SMDPad,CuDef*%
%ADD13RoundRect,0.218750X0.256250X-0.218750X0.256250X0.218750X-0.256250X0.218750X-0.256250X-0.218750X0*%
%TD*%
%TA.AperFunction,SMDPad,CuDef*%
%ADD14R,1.800000X1.000000*%
%TD*%
%TA.AperFunction,SMDPad,CuDef*%
%ADD15RoundRect,0.140000X-0.140000X-0.170000X0.140000X-0.170000X0.140000X0.170000X-0.140000X0.170000X0*%
%TD*%
%TA.AperFunction,SMDPad,CuDef*%
%ADD16RoundRect,0.150000X-0.150000X0.587500X-0.150000X-0.587500X0.150000X-0.587500X0.150000X0.587500X0*%
%TD*%
%TA.AperFunction,SMDPad,CuDef*%
%ADD17RoundRect,0.150000X-0.150000X0.825000X-0.150000X-0.825000X0.150000X-0.825000X0.150000X0.825000X0*%
%TD*%
%TA.AperFunction,ComponentPad*%
%ADD18RoundRect,0.250000X-0.600000X-0.600000X0.600000X-0.600000X0.600000X0.600000X-0.600000X0.600000X0*%
%TD*%
%TA.AperFunction,ComponentPad*%
%ADD19C,1.700000*%
%TD*%
%TA.AperFunction,SMDPad,CuDef*%
%ADD20RoundRect,0.150000X-0.150000X0.512500X-0.150000X-0.512500X0.150000X-0.512500X0.150000X0.512500X0*%
%TD*%
%TA.AperFunction,SMDPad,CuDef*%
%ADD21RoundRect,0.135000X-0.135000X-0.185000X0.135000X-0.185000X0.135000X0.185000X-0.135000X0.185000X0*%
%TD*%
%TA.AperFunction,SMDPad,CuDef*%
%ADD22RoundRect,0.250000X0.350000X0.450000X-0.350000X0.450000X-0.350000X-0.450000X0.350000X-0.450000X0*%
%TD*%
%TA.AperFunction,SMDPad,CuDef*%
%ADD23RoundRect,0.225000X0.225000X0.250000X-0.225000X0.250000X-0.225000X-0.250000X0.225000X-0.250000X0*%
%TD*%
%TA.AperFunction,SMDPad,CuDef*%
%ADD24RoundRect,0.140000X0.170000X-0.140000X0.170000X0.140000X-0.170000X0.140000X-0.170000X-0.140000X0*%
%TD*%
%TA.AperFunction,SMDPad,CuDef*%
%ADD25R,0.675000X0.254000*%
%TD*%
%TA.AperFunction,SMDPad,CuDef*%
%ADD26R,0.254000X0.675000*%
%TD*%
%TA.AperFunction,SMDPad,CuDef*%
%ADD27RoundRect,0.135000X0.185000X-0.135000X0.185000X0.135000X-0.185000X0.135000X-0.185000X-0.135000X0*%
%TD*%
%TA.AperFunction,SMDPad,CuDef*%
%ADD28R,2.400000X0.740000*%
%TD*%
%TA.AperFunction,SMDPad,CuDef*%
%ADD29RoundRect,0.140000X-0.170000X0.140000X-0.170000X-0.140000X0.170000X-0.140000X0.170000X0.140000X0*%
%TD*%
%TA.AperFunction,ComponentPad*%
%ADD30R,1.700000X1.700000*%
%TD*%
%TA.AperFunction,ComponentPad*%
%ADD31O,1.700000X1.700000*%
%TD*%
%TA.AperFunction,SMDPad,CuDef*%
%ADD32RoundRect,0.250000X-0.375000X-1.075000X0.375000X-1.075000X0.375000X1.075000X-0.375000X1.075000X0*%
%TD*%
%TA.AperFunction,SMDPad,CuDef*%
%ADD33RoundRect,0.135000X-0.185000X0.135000X-0.185000X-0.135000X0.185000X-0.135000X0.185000X0.135000X0*%
%TD*%
%TA.AperFunction,SMDPad,CuDef*%
%ADD34RoundRect,0.140000X0.140000X0.170000X-0.140000X0.170000X-0.140000X-0.170000X0.140000X-0.170000X0*%
%TD*%
%TA.AperFunction,SMDPad,CuDef*%
%ADD35RoundRect,0.225000X0.250000X-0.225000X0.250000X0.225000X-0.250000X0.225000X-0.250000X-0.225000X0*%
%TD*%
%TA.AperFunction,SMDPad,CuDef*%
%ADD36R,1.400000X1.600000*%
%TD*%
%TA.AperFunction,SMDPad,CuDef*%
%ADD37RoundRect,0.200000X0.275000X-0.200000X0.275000X0.200000X-0.275000X0.200000X-0.275000X-0.200000X0*%
%TD*%
%TA.AperFunction,SMDPad,CuDef*%
%ADD38RoundRect,0.135000X0.135000X0.185000X-0.135000X0.185000X-0.135000X-0.185000X0.135000X-0.185000X0*%
%TD*%
%TA.AperFunction,SMDPad,CuDef*%
%ADD39RoundRect,0.225000X-0.225000X-0.250000X0.225000X-0.250000X0.225000X0.250000X-0.225000X0.250000X0*%
%TD*%
%TA.AperFunction,ViaPad*%
%ADD40C,0.800000*%
%TD*%
%TA.AperFunction,Conductor*%
%ADD41C,0.200000*%
%TD*%
%TA.AperFunction,Conductor*%
%ADD42C,0.254000*%
%TD*%
%TA.AperFunction,Conductor*%
%ADD43C,0.889000*%
%TD*%
%TA.AperFunction,Conductor*%
%ADD44C,0.250000*%
%TD*%
G04 APERTURE END LIST*
D10*
%TO.P,U4,1,VDD*%
%TO.N,+3.3V*%
X133562500Y-66400000D03*
%TO.P,U4,2,PD0*%
%TO.N,Net-(U4-PD0)*%
X133562500Y-66900000D03*
%TO.P,U4,3,PD1*%
%TO.N,Net-(U4-PD1)*%
X133562500Y-67400000D03*
%TO.P,U4,4,NRST*%
%TO.N,/~{NRST}*%
X133562500Y-67900000D03*
%TO.P,U4,5,VSSA*%
%TO.N,GND*%
X133562500Y-68400000D03*
%TO.P,U4,6,VDDA*%
%TO.N,+3.3V*%
X133562500Y-68900000D03*
%TO.P,U4,7,PA0*%
%TO.N,unconnected-(U4-PA0-Pad7)*%
X133562500Y-69400000D03*
%TO.P,U4,8,PA1*%
%TO.N,unconnected-(U4-PA1-Pad8)*%
X133562500Y-69900000D03*
%TO.P,U4,9,PA2*%
%TO.N,Net-(U4-PA2)*%
X133562500Y-70400000D03*
D11*
%TO.P,U4,10,PA3*%
%TO.N,Net-(U4-PA3)*%
X134400000Y-71237500D03*
%TO.P,U4,11,PA4*%
%TO.N,/~{CS}*%
X134900000Y-71237500D03*
%TO.P,U4,12,PA5*%
%TO.N,/SPICLK*%
X135400000Y-71237500D03*
%TO.P,U4,13,PA6*%
%TO.N,/MISO*%
X135900000Y-71237500D03*
%TO.P,U4,14,PA7*%
%TO.N,Net-(U4-PA7)*%
X136400000Y-71237500D03*
%TO.P,U4,15,PB0*%
%TO.N,unconnected-(U4-PB0-Pad15)*%
X136900000Y-71237500D03*
%TO.P,U4,16,PB1*%
%TO.N,/ProtocolSel0*%
X137400000Y-71237500D03*
%TO.P,U4,17,PB2*%
%TO.N,/ProtocolSel1*%
X137900000Y-71237500D03*
%TO.P,U4,18,VSS*%
%TO.N,GND*%
X138400000Y-71237500D03*
D10*
%TO.P,U4,19,VDD*%
%TO.N,+3.3V*%
X139237500Y-70400000D03*
%TO.P,U4,20,PA8*%
%TO.N,/~{IMU_INTR}*%
X139237500Y-69900000D03*
%TO.P,U4,21,PA9*%
%TO.N,Net-(U4-PA9)*%
X139237500Y-69400000D03*
%TO.P,U4,22,PA10*%
%TO.N,/UART_RX*%
X139237500Y-68900000D03*
%TO.P,U4,23,PA11*%
%TO.N,/CAN_RX*%
X139237500Y-68400000D03*
%TO.P,U4,24,PA12*%
%TO.N,Net-(U4-PA12)*%
X139237500Y-67900000D03*
%TO.P,U4,25,PA13*%
%TO.N,/SWDIO*%
X139237500Y-67400000D03*
%TO.P,U4,26,VSS*%
%TO.N,GND*%
X139237500Y-66900000D03*
%TO.P,U4,27,VDD*%
%TO.N,+3.3V*%
X139237500Y-66400000D03*
D11*
%TO.P,U4,28,PA14*%
%TO.N,/SWCLK*%
X138400000Y-65562500D03*
%TO.P,U4,29,PA15*%
%TO.N,unconnected-(U4-PA15-Pad29)*%
X137900000Y-65562500D03*
%TO.P,U4,30,PB3*%
%TO.N,/SWO*%
X137400000Y-65562500D03*
%TO.P,U4,31,PB4*%
%TO.N,unconnected-(U4-PB4-Pad31)*%
X136900000Y-65562500D03*
%TO.P,U4,32,PB5*%
%TO.N,unconnected-(U4-PB5-Pad32)*%
X136400000Y-65562500D03*
%TO.P,U4,33,PB6*%
%TO.N,unconnected-(U4-PB6-Pad33)*%
X135900000Y-65562500D03*
%TO.P,U4,34,PB7*%
%TO.N,unconnected-(U4-PB7-Pad34)*%
X135400000Y-65562500D03*
%TO.P,U4,35,BOOT0*%
%TO.N,Net-(U4-BOOT0)*%
X134900000Y-65562500D03*
%TO.P,U4,36,VSS*%
%TO.N,GND*%
X134400000Y-65562500D03*
D12*
%TO.P,U4,37,VSS*%
X136400000Y-68400000D03*
%TD*%
D13*
%TO.P,D1,1,K*%
%TO.N,GND*%
X132700000Y-93575000D03*
%TO.P,D1,2,A*%
%TO.N,Net-(D1-A)*%
X132700000Y-92000000D03*
%TD*%
D14*
%TO.P,Y2,1,1*%
%TO.N,Net-(U4-PD0)*%
X128500000Y-65487500D03*
%TO.P,Y2,2,2*%
%TO.N,Net-(U4-PD1)*%
X128500000Y-67987500D03*
%TD*%
D15*
%TO.P,C14,1*%
%TO.N,GND*%
X124320000Y-68100000D03*
%TO.P,C14,2*%
%TO.N,/~{NRST}*%
X125280000Y-68100000D03*
%TD*%
D16*
%TO.P,D2,1,K*%
%TO.N,/CAN+*%
X152350000Y-88150000D03*
%TO.P,D2,2,K*%
%TO.N,/CAN-*%
X150450000Y-88150000D03*
%TO.P,D2,3,A*%
%TO.N,GND*%
X151400000Y-90025000D03*
%TD*%
D17*
%TO.P,U2,1,D*%
%TO.N,/CAN_TX*%
X153305000Y-80440286D03*
%TO.P,U2,2,GND*%
%TO.N,GND*%
X152035000Y-80440286D03*
%TO.P,U2,3,VCC*%
%TO.N,+3.3V*%
X150765000Y-80440286D03*
%TO.P,U2,4,R*%
%TO.N,/CAN_RX*%
X149495000Y-80440286D03*
%TO.P,U2,5,Vref*%
%TO.N,unconnected-(U2-Vref-Pad5)*%
X149495000Y-85390286D03*
%TO.P,U2,6,CANL*%
%TO.N,/CAN-*%
X150765000Y-85390286D03*
%TO.P,U2,7,CANH*%
%TO.N,/CAN+*%
X152035000Y-85390286D03*
%TO.P,U2,8,Rs*%
%TO.N,Net-(U2-Rs)*%
X153305000Y-85390286D03*
%TD*%
D18*
%TO.P,J2,1,Pin_1*%
%TO.N,VCC*%
X120050000Y-93075000D03*
D19*
%TO.P,J2,2,Pin_2*%
%TO.N,GND*%
X124050000Y-93075000D03*
%TD*%
D20*
%TO.P,U1,1,CB*%
%TO.N,Net-(U1-CB)*%
X120600000Y-86275000D03*
%TO.P,U1,2,GND*%
%TO.N,GND*%
X119650000Y-86275000D03*
%TO.P,U1,3,FB*%
%TO.N,+3.3V*%
X118700000Y-86275000D03*
%TO.P,U1,4,EN*%
%TO.N,VCC*%
X118700000Y-88550000D03*
%TO.P,U1,5,VIN*%
X119650000Y-88550000D03*
%TO.P,U1,6,SW*%
%TO.N,Net-(U1-SW)*%
X120600000Y-88550000D03*
%TD*%
D21*
%TO.P,R10,1*%
%TO.N,Net-(U4-PA12)*%
X144490000Y-67900000D03*
%TO.P,R10,2*%
%TO.N,/CAN_TX*%
X145510000Y-67900000D03*
%TD*%
D22*
%TO.P,R16,1*%
%TO.N,/CAN+*%
X146200000Y-81025000D03*
%TO.P,R16,2*%
%TO.N,Net-(JP1-B)*%
X144200000Y-81025000D03*
%TD*%
D13*
%TO.P,D3,1,K*%
%TO.N,GND*%
X135800000Y-93487500D03*
%TO.P,D3,2,A*%
%TO.N,Net-(D3-A)*%
X135800000Y-91912500D03*
%TD*%
D23*
%TO.P,C2,1*%
%TO.N,VCC*%
X119100000Y-90475000D03*
%TO.P,C2,2*%
%TO.N,GND*%
X117550000Y-90475000D03*
%TD*%
D24*
%TO.P,C17,1*%
%TO.N,+3.3V*%
X142750000Y-65610000D03*
%TO.P,C17,2*%
%TO.N,GND*%
X142750000Y-64650000D03*
%TD*%
D21*
%TO.P,R12,1*%
%TO.N,/UART_TX*%
X134127500Y-74637500D03*
%TO.P,R12,2*%
%TO.N,/SPICLK*%
X135147500Y-74637500D03*
%TD*%
D25*
%TO.P,U5,1*%
%TO.N,N/C*%
X134337500Y-84250000D03*
D26*
%TO.P,U5,2,GND*%
%TO.N,GND*%
X135250000Y-84387500D03*
%TO.P,U5,3,VDD*%
%TO.N,+3.3V*%
X135750000Y-84387500D03*
%TO.P,U5,4,BOOTN*%
%TO.N,Net-(U5-BOOTN)*%
X136250000Y-84387500D03*
%TO.P,U5,5,PS1*%
%TO.N,/ProtocolSel1*%
X136750000Y-84387500D03*
D25*
%TO.P,U5,6,PS0/WAKE*%
%TO.N,/ProtocolSel0*%
X137662500Y-84250000D03*
%TO.P,U5,7*%
%TO.N,N/C*%
X137662500Y-83750000D03*
%TO.P,U5,8*%
X137662500Y-83250000D03*
%TO.P,U5,9,CAP*%
%TO.N,Net-(U5-CAP)*%
X137662500Y-82750000D03*
%TO.P,U5,10,CLKSEL0*%
%TO.N,GND*%
X137662500Y-82250000D03*
%TO.P,U5,11,NRST*%
%TO.N,/~{NRST}*%
X137662500Y-81750000D03*
%TO.P,U5,12*%
%TO.N,N/C*%
X137662500Y-81250000D03*
%TO.P,U5,13*%
X137662500Y-80750000D03*
%TO.P,U5,14,H_INTN*%
%TO.N,/~{IMU_INTR}*%
X137662500Y-80250000D03*
%TO.P,U5,15,S_SCL*%
%TO.N,unconnected-(U5-S_SCL-Pad15)*%
X137662500Y-79750000D03*
D26*
%TO.P,U5,16,S_SDA*%
%TO.N,unconnected-(U5-S_SDA-Pad16)*%
X136750000Y-79612500D03*
%TO.P,U5,17,H_SA0/MOSI*%
%TO.N,/MOSI*%
X136250000Y-79612500D03*
%TO.P,U5,18,H_CSN*%
%TO.N,/~{CS}*%
X135750000Y-79612500D03*
%TO.P,U5,19,H_SCL/SCLK/RX*%
%TO.N,/SPICLK*%
X135250000Y-79612500D03*
D25*
%TO.P,U5,20,H_SDA/MISO/TX*%
%TO.N,/MISO*%
X134337500Y-79750000D03*
%TO.P,U5,21*%
%TO.N,N/C*%
X134337500Y-80250000D03*
%TO.P,U5,22*%
X134337500Y-80750000D03*
%TO.P,U5,23*%
X134337500Y-81250000D03*
%TO.P,U5,24*%
X134337500Y-81750000D03*
%TO.P,U5,25,GNDIO*%
%TO.N,GND*%
X134337500Y-82250000D03*
%TO.P,U5,26,CLKSEL1/XOUT32*%
%TO.N,Net-(U5-CLKSEL1{slash}XOUT32)*%
X134337500Y-82750000D03*
%TO.P,U5,27,XIN32*%
%TO.N,Net-(U5-XIN32)*%
X134337500Y-83250000D03*
%TO.P,U5,28,VDDIO*%
%TO.N,+3.3V*%
X134337500Y-83750000D03*
%TD*%
D24*
%TO.P,C6,1*%
%TO.N,Net-(U5-CLKSEL1{slash}XOUT32)*%
X132662500Y-81830000D03*
%TO.P,C6,2*%
%TO.N,GND*%
X132662500Y-80870000D03*
%TD*%
D27*
%TO.P,R9,1*%
%TO.N,Net-(U4-PA9)*%
X134100000Y-77010000D03*
%TO.P,R9,2*%
%TO.N,/UART_TX*%
X134100000Y-75990000D03*
%TD*%
D28*
%TO.P,J3,1,Pin_1*%
%TO.N,unconnected-(J3-Pin_1-Pad1)*%
X153000000Y-67550000D03*
%TO.P,J3,2,Pin_2*%
%TO.N,unconnected-(J3-Pin_2-Pad2)*%
X149100000Y-67550000D03*
%TO.P,J3,3,Pin_3*%
%TO.N,+3.3V*%
X153000000Y-66280000D03*
%TO.P,J3,4,Pin_4*%
%TO.N,/SWDIO*%
X149100000Y-66280000D03*
%TO.P,J3,5,Pin_5*%
%TO.N,GND*%
X153000000Y-65010000D03*
%TO.P,J3,6,Pin_6*%
%TO.N,/SWCLK*%
X149100000Y-65010000D03*
%TO.P,J3,7,Pin_7*%
%TO.N,GND*%
X153000000Y-63740000D03*
%TO.P,J3,8,Pin_8*%
%TO.N,/SWO*%
X149100000Y-63740000D03*
%TO.P,J3,9,Pin_9*%
%TO.N,unconnected-(J3-Pin_9-Pad9)*%
X153000000Y-62470000D03*
%TO.P,J3,10,Pin_10*%
%TO.N,unconnected-(J3-Pin_10-Pad10)*%
X149100000Y-62470000D03*
%TO.P,J3,11,Pin_11*%
%TO.N,unconnected-(J3-Pin_11-Pad11)*%
X153000000Y-61200000D03*
%TO.P,J3,12,Pin_12*%
%TO.N,/~{NRST}*%
X149100000Y-61200000D03*
%TO.P,J3,13,Pin_13*%
%TO.N,unconnected-(J3-Pin_13-Pad13)*%
X153000000Y-59930000D03*
%TO.P,J3,14,Pin_14*%
%TO.N,unconnected-(J3-Pin_14-Pad14)*%
X149100000Y-59930000D03*
%TD*%
D14*
%TO.P,Y1,1,1*%
%TO.N,Net-(U5-CLKSEL1{slash}XOUT32)*%
X130562500Y-81700000D03*
%TO.P,Y1,2,2*%
%TO.N,Net-(U5-XIN32)*%
X130562500Y-84200000D03*
%TD*%
D29*
%TO.P,C5,1*%
%TO.N,Net-(U5-XIN32)*%
X132662500Y-84070000D03*
%TO.P,C5,2*%
%TO.N,GND*%
X132662500Y-85030000D03*
%TD*%
%TO.P,C7,1*%
%TO.N,GND*%
X139062500Y-82470000D03*
%TO.P,C7,2*%
%TO.N,Net-(U5-CAP)*%
X139062500Y-83430000D03*
%TD*%
D30*
%TO.P,JP1,1,A*%
%TO.N,/CAN-*%
X145875000Y-84025000D03*
D31*
%TO.P,JP1,2,B*%
%TO.N,Net-(JP1-B)*%
X143335000Y-84025000D03*
%TD*%
D32*
%TO.P,L1,1,1*%
%TO.N,Net-(U1-SW)*%
X122500000Y-89875000D03*
%TO.P,L1,2,2*%
%TO.N,+3.3V*%
X125300000Y-89875000D03*
%TD*%
D18*
%TO.P,J1,1,Pin_1*%
%TO.N,/CAN-*%
X145950000Y-93075000D03*
D19*
%TO.P,J1,2,Pin_2*%
%TO.N,/CAN+*%
X149950000Y-93075000D03*
%TD*%
D33*
%TO.P,R11,1*%
%TO.N,Net-(U4-PA7)*%
X138987500Y-74127500D03*
%TO.P,R11,2*%
%TO.N,/MOSI*%
X138987500Y-75147500D03*
%TD*%
D15*
%TO.P,C1,1*%
%TO.N,+3.3V*%
X150920000Y-78415286D03*
%TO.P,C1,2*%
%TO.N,GND*%
X151880000Y-78415286D03*
%TD*%
D34*
%TO.P,C12,1*%
%TO.N,Net-(U4-PD0)*%
X128380000Y-64100000D03*
%TO.P,C12,2*%
%TO.N,GND*%
X127420000Y-64100000D03*
%TD*%
D21*
%TO.P,R13,1*%
%TO.N,/MISO*%
X136227500Y-74637500D03*
%TO.P,R13,2*%
%TO.N,/UART_RX*%
X137247500Y-74637500D03*
%TD*%
D35*
%TO.P,C15,1*%
%TO.N,+3.3V*%
X141000000Y-65405000D03*
%TO.P,C15,2*%
%TO.N,GND*%
X141000000Y-63855000D03*
%TD*%
D24*
%TO.P,C16,1*%
%TO.N,+3.3V*%
X131837500Y-65880000D03*
%TO.P,C16,2*%
%TO.N,GND*%
X131837500Y-64920000D03*
%TD*%
D36*
%TO.P,SW1,1,1*%
%TO.N,Net-(U4-BOOT0)*%
X112800000Y-78000000D03*
X112800000Y-70800000D03*
%TO.P,SW1,2,2*%
%TO.N,+3.3V*%
X115800000Y-78000000D03*
X115800000Y-70800000D03*
%TD*%
D37*
%TO.P,R15,1*%
%TO.N,GND*%
X155300000Y-87025000D03*
%TO.P,R15,2*%
%TO.N,Net-(U2-Rs)*%
X155300000Y-85375000D03*
%TD*%
D34*
%TO.P,C11,1*%
%TO.N,Net-(U4-PD1)*%
X128380000Y-69300000D03*
%TO.P,C11,2*%
%TO.N,GND*%
X127420000Y-69300000D03*
%TD*%
D38*
%TO.P,R4,1*%
%TO.N,Net-(D3-A)*%
X135810000Y-90500000D03*
%TO.P,R4,2*%
%TO.N,Net-(U4-PA3)*%
X134790000Y-90500000D03*
%TD*%
D29*
%TO.P,C4,1*%
%TO.N,+3.3V*%
X127400000Y-91315000D03*
%TO.P,C4,2*%
%TO.N,GND*%
X127400000Y-92275000D03*
%TD*%
D24*
%TO.P,C3,1*%
%TO.N,Net-(U1-SW)*%
X122425000Y-87135000D03*
%TO.P,C3,2*%
%TO.N,Net-(U1-CB)*%
X122425000Y-86175000D03*
%TD*%
D34*
%TO.P,C19,1*%
%TO.N,+3.3V*%
X132017500Y-69537500D03*
%TO.P,C19,2*%
%TO.N,GND*%
X131057500Y-69537500D03*
%TD*%
D23*
%TO.P,C9,1*%
%TO.N,+3.3V*%
X135900000Y-87700000D03*
%TO.P,C9,2*%
%TO.N,GND*%
X134350000Y-87700000D03*
%TD*%
D34*
%TO.P,C10,1*%
%TO.N,+3.3V*%
X114730000Y-68800000D03*
%TO.P,C10,2*%
%TO.N,Net-(U4-BOOT0)*%
X113770000Y-68800000D03*
%TD*%
D39*
%TO.P,R14,1*%
%TO.N,Net-(U4-BOOT0)*%
X118525000Y-67500000D03*
%TO.P,R14,2*%
%TO.N,GND*%
X120075000Y-67500000D03*
%TD*%
D29*
%TO.P,C18,1*%
%TO.N,+3.3V*%
X140825000Y-70695000D03*
%TO.P,C18,2*%
%TO.N,GND*%
X140825000Y-71655000D03*
%TD*%
D21*
%TO.P,R5,1*%
%TO.N,Net-(U4-PA2)*%
X131690000Y-90493750D03*
%TO.P,R5,2*%
%TO.N,Net-(D1-A)*%
X132710000Y-90493750D03*
%TD*%
D34*
%TO.P,C8,1*%
%TO.N,+3.3V*%
X135805000Y-85900000D03*
%TO.P,C8,2*%
%TO.N,GND*%
X134845000Y-85900000D03*
%TD*%
D37*
%TO.P,R17,1*%
%TO.N,+3.3V*%
X139250000Y-88550000D03*
%TO.P,R17,2*%
%TO.N,Net-(U5-BOOTN)*%
X139250000Y-86900000D03*
%TD*%
D40*
%TO.N,+3.3V*%
X125250000Y-86500000D03*
X125250000Y-88000000D03*
X125250000Y-89000000D03*
%TO.N,GND*%
X136778690Y-100870000D03*
X116458690Y-85630000D03*
X131698690Y-57690000D03*
X111378690Y-95790000D03*
X126618690Y-93250000D03*
X137200000Y-91800000D03*
X113918690Y-93250000D03*
X121538690Y-83090000D03*
X124078690Y-75470000D03*
X134238690Y-60230000D03*
X146938690Y-85630000D03*
X121538690Y-80550000D03*
X136778690Y-98330000D03*
X113918690Y-85630000D03*
X126618690Y-67850000D03*
X139318690Y-57690000D03*
X121538690Y-103410000D03*
X121538690Y-65310000D03*
X129158690Y-100870000D03*
X154558690Y-72930000D03*
X141858690Y-103410000D03*
X111378690Y-93250000D03*
X126618690Y-57690000D03*
X146938690Y-62770000D03*
X113918690Y-65310000D03*
X118998690Y-75470000D03*
X141858690Y-90710000D03*
X121538690Y-95790000D03*
X111378690Y-65310000D03*
X126618690Y-100870000D03*
X111378690Y-98330000D03*
X131698690Y-100870000D03*
X130000000Y-75300000D03*
X121538690Y-100870000D03*
X134800000Y-66800000D03*
X124078690Y-57690000D03*
X116458690Y-100870000D03*
X126618690Y-72930000D03*
X141858690Y-100870000D03*
X134238690Y-98330000D03*
X130800000Y-92100000D03*
X116458690Y-98330000D03*
X111378690Y-70390000D03*
X133000000Y-87800000D03*
X121538690Y-72930000D03*
X111378690Y-62770000D03*
X129158690Y-95790000D03*
X124078690Y-98330000D03*
X118998690Y-60230000D03*
X126618690Y-85630000D03*
X152018690Y-57690000D03*
X154558690Y-70390000D03*
X152018690Y-95790000D03*
X136778690Y-62770000D03*
X118998690Y-98330000D03*
X126618690Y-98330000D03*
X134800000Y-70000000D03*
X136778690Y-60230000D03*
X139318690Y-98330000D03*
X126618690Y-88170000D03*
X144398690Y-90710000D03*
X111378690Y-100870000D03*
X116458690Y-103410000D03*
X154558690Y-90710000D03*
X134238690Y-100870000D03*
X144398690Y-93250000D03*
X152018690Y-100870000D03*
X118998690Y-62770000D03*
X111378690Y-67850000D03*
X130000000Y-77400000D03*
X154558690Y-57690000D03*
X138000000Y-66800000D03*
X151425000Y-76050000D03*
X144398690Y-88170000D03*
X131698690Y-60230000D03*
X144398690Y-100870000D03*
X139318690Y-95790000D03*
X118998690Y-57690000D03*
X154558690Y-93250000D03*
X138000000Y-70000000D03*
X141858690Y-57690000D03*
X116458690Y-88170000D03*
X126618690Y-95790000D03*
X126618690Y-80550000D03*
X118998690Y-95790000D03*
X113918690Y-95790000D03*
X149478690Y-88170000D03*
X116458690Y-60230000D03*
X116458690Y-95790000D03*
X129158690Y-103410000D03*
X136778690Y-103410000D03*
X146938690Y-75470000D03*
X149478690Y-95790000D03*
X129158690Y-60230000D03*
X134238690Y-103410000D03*
X129158690Y-98330000D03*
X152018690Y-70390000D03*
X130000000Y-86600000D03*
X131000000Y-76600000D03*
X111378690Y-90710000D03*
X121538690Y-60230000D03*
X116458690Y-62770000D03*
X128100000Y-89000000D03*
X141858690Y-88170000D03*
X152018690Y-103410000D03*
X131698690Y-85630000D03*
X126618690Y-60230000D03*
X121538690Y-75470000D03*
X144398690Y-57690000D03*
X139318690Y-103410000D03*
X111378690Y-72930000D03*
X111378690Y-85630000D03*
X131698690Y-98330000D03*
X124078690Y-60230000D03*
X126618690Y-65310000D03*
X118998690Y-83090000D03*
X129600000Y-90500000D03*
X141858690Y-60230000D03*
X111378690Y-83090000D03*
X116458690Y-57690000D03*
X134238690Y-57690000D03*
X157098690Y-103410000D03*
X130900000Y-79700000D03*
X136400000Y-68400000D03*
X111378690Y-78010000D03*
X154558690Y-78010000D03*
X116458690Y-65310000D03*
X124078690Y-95790000D03*
X134800000Y-68400000D03*
X129158690Y-57690000D03*
X152018690Y-93250000D03*
X121538690Y-70390000D03*
X131100000Y-74200000D03*
X157098690Y-62770000D03*
X113918690Y-83090000D03*
X139318690Y-100870000D03*
X118998690Y-80550000D03*
X121538690Y-98330000D03*
X121538690Y-67850000D03*
X136778690Y-57690000D03*
X113918690Y-88170000D03*
X111378690Y-88170000D03*
X116458690Y-83090000D03*
X157098690Y-98330000D03*
X146938690Y-95790000D03*
X154558690Y-88170000D03*
X157098690Y-57690000D03*
X126618690Y-83090000D03*
X141858690Y-98330000D03*
X124078690Y-70390000D03*
X113918690Y-62770000D03*
X154558690Y-103410000D03*
X126618690Y-78010000D03*
X131698690Y-103410000D03*
X111378690Y-80550000D03*
X144398690Y-65310000D03*
X116458690Y-93250000D03*
X124078690Y-65310000D03*
X111378690Y-60230000D03*
X146938690Y-78010000D03*
X146938690Y-57690000D03*
X113918690Y-98330000D03*
X144398690Y-103410000D03*
X149478690Y-57690000D03*
X113918690Y-80550000D03*
X146938690Y-88170000D03*
X134238690Y-93250000D03*
X111378690Y-75470000D03*
X121538690Y-57690000D03*
X113918690Y-103410000D03*
X138000000Y-68400000D03*
X154558690Y-75470000D03*
X139318690Y-60230000D03*
X113918690Y-72930000D03*
X113918690Y-90710000D03*
X157098690Y-60230000D03*
X126618690Y-103410000D03*
X146938690Y-60230000D03*
X116458690Y-80550000D03*
X144398690Y-85630000D03*
%TO.N,+3.3V*%
X142050000Y-66400000D03*
X155000000Y-66300000D03*
X130700000Y-65100000D03*
%TO.N,Net-(U4-BOOT0)*%
X134900000Y-63200000D03*
X112900000Y-74500000D03*
%TO.N,/~{NRST}*%
X145400000Y-61200000D03*
X140575000Y-75225000D03*
%TO.N,/MISO*%
X134200000Y-78000000D03*
X136050000Y-76550000D03*
%TO.N,Net-(U4-PA9)*%
X143046073Y-70073500D03*
X132875000Y-76925000D03*
%TO.N,/UART_RX*%
X144600000Y-70800000D03*
X137700000Y-75837500D03*
%TO.N,/~{CS}*%
X136000000Y-78225000D03*
X132800000Y-73700000D03*
%TO.N,/~{IMU_INTR}*%
X139200000Y-79277000D03*
X145400000Y-77700000D03*
%TD*%
D41*
%TO.N,+3.3V*%
X125300000Y-89875000D02*
X125300000Y-85050000D01*
X125300000Y-85050000D02*
X122250000Y-82000000D01*
X122250000Y-82000000D02*
X119458740Y-82000000D01*
X119458740Y-82000000D02*
X115800000Y-78341260D01*
X115800000Y-78341260D02*
X115800000Y-78000000D01*
D42*
X125300000Y-89875000D02*
X125300000Y-76400000D01*
X125300000Y-76400000D02*
X132017500Y-69682500D01*
X132017500Y-69682500D02*
X132017500Y-69537500D01*
D43*
%TO.N,Net-(U1-SW)*%
X122500000Y-89875000D02*
X122400000Y-89775000D01*
X122400000Y-89775000D02*
X122400000Y-87160000D01*
X122425000Y-87135000D02*
X122400000Y-87160000D01*
X120600000Y-89175000D02*
X121200000Y-89775000D01*
X121200000Y-89775000D02*
X122400000Y-89775000D01*
X120600000Y-88550000D02*
X120600000Y-89175000D01*
%TO.N,Net-(U1-CB)*%
X121075000Y-85800000D02*
X122450000Y-85800000D01*
X120600000Y-86275000D02*
X121075000Y-85800000D01*
%TO.N,+3.3V*%
X131844451Y-95300000D02*
X136637500Y-95300000D01*
X152196121Y-82700000D02*
X150765000Y-81268879D01*
D44*
X135795000Y-87470000D02*
X136000000Y-87675000D01*
D42*
X142595000Y-65455000D02*
X142750000Y-65610000D01*
D41*
X135677000Y-83750000D02*
X135750000Y-83823000D01*
D44*
X135795000Y-86200000D02*
X135795000Y-87470000D01*
D42*
X150800000Y-79225000D02*
X150800000Y-80405286D01*
X139237500Y-66192500D02*
X139975000Y-65455000D01*
X150920000Y-78415286D02*
X150920000Y-79105000D01*
D43*
X153700000Y-82700000D02*
X152196121Y-82700000D01*
D42*
X139975000Y-65455000D02*
X142595000Y-65455000D01*
X150800000Y-80405286D02*
X150765000Y-80440286D01*
X144150000Y-79050000D02*
X141750000Y-81450000D01*
X132367500Y-68900000D02*
X133562500Y-68900000D01*
D43*
X154980000Y-66280000D02*
X153000000Y-66280000D01*
D44*
X139237500Y-70400000D02*
X140530000Y-70400000D01*
D42*
X142750000Y-65610000D02*
X142740000Y-65610000D01*
X139250000Y-88500000D02*
X139250000Y-92687500D01*
X118700000Y-84900000D02*
X119200000Y-84400000D01*
D43*
X125300000Y-89875000D02*
X126419451Y-89875000D01*
D44*
X140825000Y-70695000D02*
X141195000Y-70695000D01*
D42*
X141750000Y-86000000D02*
X139250000Y-88500000D01*
X141920000Y-71420000D02*
X144150000Y-73650000D01*
D41*
X131480000Y-65880000D02*
X130700000Y-65100000D01*
D43*
X157250000Y-80650000D02*
X157250000Y-67350000D01*
D41*
X135750000Y-86155000D02*
X135795000Y-86200000D01*
D43*
X136637500Y-95300000D02*
X138937500Y-93000000D01*
D41*
X132908422Y-66400000D02*
X133562500Y-66400000D01*
D43*
X155020000Y-66280000D02*
X155000000Y-66300000D01*
D41*
X131837500Y-65880000D02*
X131480000Y-65880000D01*
D42*
X141750000Y-81450000D02*
X141750000Y-86000000D01*
D43*
X138937500Y-93000000D02*
X138937500Y-90687500D01*
X156180000Y-66280000D02*
X155020000Y-66280000D01*
X157250000Y-80650000D02*
X155750000Y-80650000D01*
X155750000Y-80650000D02*
X153700000Y-82700000D01*
D42*
X122230646Y-84400000D02*
X125300000Y-87469354D01*
X118700000Y-86275000D02*
X118700000Y-84900000D01*
D41*
X115800000Y-69870000D02*
X115800000Y-70800000D01*
D42*
X139237500Y-66400000D02*
X139237500Y-66192500D01*
D41*
X135750000Y-83823000D02*
X135750000Y-84387500D01*
D43*
X157250000Y-67350000D02*
X156180000Y-66280000D01*
D42*
X132017500Y-69250000D02*
X132367500Y-68900000D01*
X139250000Y-92687500D02*
X138937500Y-93000000D01*
D43*
X154100000Y-97800000D02*
X157250000Y-94650000D01*
X150765000Y-81268879D02*
X150765000Y-80440286D01*
D41*
X132388422Y-65880000D02*
X132908422Y-66400000D01*
D42*
X144150000Y-73650000D02*
X144150000Y-79050000D01*
D43*
X138937500Y-90687500D02*
X135942500Y-87692500D01*
X126419451Y-89875000D02*
X131844451Y-95300000D01*
D41*
X115800000Y-70800000D02*
X115800000Y-78000000D01*
D43*
X157250000Y-94650000D02*
X157250000Y-80650000D01*
D44*
X140530000Y-70400000D02*
X140825000Y-70695000D01*
D41*
X114730000Y-68800000D02*
X115800000Y-69870000D01*
D43*
X155000000Y-66300000D02*
X154980000Y-66280000D01*
X141100000Y-93000000D02*
X145900000Y-97800000D01*
D44*
X141195000Y-70695000D02*
X141920000Y-71420000D01*
D43*
X138937500Y-93000000D02*
X141100000Y-93000000D01*
D42*
X132017500Y-69537500D02*
X132017500Y-69250000D01*
X142740000Y-65610000D02*
X142050000Y-66300000D01*
X125300000Y-87469354D02*
X125300000Y-89875000D01*
X119200000Y-84400000D02*
X122230646Y-84400000D01*
D41*
X134337500Y-83750000D02*
X135677000Y-83750000D01*
X135750000Y-84387500D02*
X135750000Y-86155000D01*
X131837500Y-65880000D02*
X132388422Y-65880000D01*
D42*
X150920000Y-79105000D02*
X150800000Y-79225000D01*
D43*
X145900000Y-97800000D02*
X154100000Y-97800000D01*
D41*
%TO.N,Net-(U5-XIN32)*%
X133482500Y-83250000D02*
X134337500Y-83250000D01*
X130562500Y-84200000D02*
X132532500Y-84200000D01*
X132532500Y-84200000D02*
X133482500Y-83250000D01*
%TO.N,Net-(U5-CLKSEL1{slash}XOUT32)*%
X132237500Y-81700000D02*
X130562500Y-81700000D01*
X133287500Y-82750000D02*
X132237500Y-81700000D01*
X134337500Y-82750000D02*
X133287500Y-82750000D01*
%TO.N,Net-(U4-BOOT0)*%
X112800000Y-74600000D02*
X112800000Y-78000000D01*
X115052254Y-68190000D02*
X114407746Y-68190000D01*
X114407746Y-68190000D02*
X112800000Y-69797746D01*
X115742254Y-67500000D02*
X115052254Y-68190000D01*
X112800000Y-74400000D02*
X112800000Y-70800000D01*
X112900000Y-74500000D02*
X112800000Y-74600000D01*
X118525000Y-67500000D02*
X115742254Y-67500000D01*
X112900000Y-74500000D02*
X112800000Y-74400000D01*
X112800000Y-69797746D02*
X112800000Y-70800000D01*
X134900000Y-63200000D02*
X134900000Y-65562500D01*
D42*
%TO.N,Net-(U4-PD1)*%
X132400000Y-67137500D02*
X130512500Y-67137500D01*
X129662500Y-67987500D02*
X128500000Y-67987500D01*
X133562500Y-67400000D02*
X132662500Y-67400000D01*
X132662500Y-67400000D02*
X132400000Y-67137500D01*
D41*
X128380000Y-69300000D02*
X128500000Y-69180000D01*
X128500000Y-69180000D02*
X128500000Y-67987500D01*
D42*
X130512500Y-67137500D02*
X129662500Y-67987500D01*
%TO.N,Net-(U4-PD0)*%
X132542053Y-66637500D02*
X131000000Y-66637500D01*
X132804553Y-66900000D02*
X132542053Y-66637500D01*
D41*
X128380000Y-64100000D02*
X128380000Y-65367500D01*
X128380000Y-65367500D02*
X128500000Y-65487500D01*
D42*
X131000000Y-66637500D02*
X129850000Y-65487500D01*
X129850000Y-65487500D02*
X128500000Y-65487500D01*
X133562500Y-66900000D02*
X132804553Y-66900000D01*
D41*
%TO.N,/CAN+*%
X147425000Y-82250000D02*
X146200000Y-81025000D01*
X150800000Y-89700000D02*
X149525000Y-90975000D01*
X149525000Y-90975000D02*
X149525000Y-93075000D01*
X151625001Y-83731801D02*
X150143200Y-82250000D01*
X150143200Y-82250000D02*
X147425000Y-82250000D01*
X152035000Y-85390286D02*
X151625001Y-84980287D01*
X151625000Y-85800286D02*
X151625000Y-87425000D01*
X151625000Y-87425000D02*
X152350000Y-88150000D01*
X151512500Y-88987500D02*
X151063604Y-88987500D01*
X152035000Y-85390286D02*
X151625000Y-85800286D01*
X150800000Y-89251104D02*
X150800000Y-89700000D01*
X151063604Y-88987500D02*
X150800000Y-89251104D01*
X151625001Y-84980287D02*
X151625001Y-83731801D01*
X152350000Y-88150000D02*
X151512500Y-88987500D01*
%TO.N,/CAN-*%
X149338603Y-90525000D02*
X148500000Y-90525000D01*
X151175000Y-85800286D02*
X151175000Y-87425000D01*
X149906800Y-82650000D02*
X147250000Y-82650000D01*
X150350019Y-89064716D02*
X150350019Y-89513584D01*
X148500000Y-90525000D02*
X145950000Y-93075000D01*
X150765000Y-85390286D02*
X151174999Y-84980287D01*
X151174999Y-83918199D02*
X149906800Y-82650000D01*
X150450000Y-88150000D02*
X150450000Y-88964734D01*
X150765000Y-85390286D02*
X151175000Y-85800286D01*
X151175000Y-87425000D02*
X150450000Y-88150000D01*
X151174999Y-84980287D02*
X151174999Y-83918199D01*
X150450000Y-88964734D02*
X150350019Y-89064716D01*
X147250000Y-82650000D02*
X145875000Y-84025000D01*
X150350019Y-89513584D02*
X149338603Y-90525000D01*
%TO.N,/~{NRST}*%
X138227000Y-81750000D02*
X140000000Y-79977000D01*
X140000000Y-75800000D02*
X140575000Y-75225000D01*
X133562500Y-67900000D02*
X131700000Y-67900000D01*
X125300000Y-62300000D02*
X126400000Y-61200000D01*
X125300000Y-69500000D02*
X125300000Y-62300000D01*
X126400000Y-61200000D02*
X149100000Y-61200000D01*
X128500000Y-71100000D02*
X126900000Y-71100000D01*
X131700000Y-67900000D02*
X128500000Y-71100000D01*
X140000000Y-79977000D02*
X140000000Y-75800000D01*
X126900000Y-71100000D02*
X125300000Y-69500000D01*
X137662500Y-81750000D02*
X138227000Y-81750000D01*
D42*
%TO.N,/MISO*%
X135900000Y-73475000D02*
X136200000Y-73775000D01*
X135900000Y-71237500D02*
X135900000Y-73475000D01*
D41*
X134200000Y-78000000D02*
X134337500Y-78137500D01*
D42*
X136227500Y-76372500D02*
X136227500Y-74637500D01*
X136050000Y-76550000D02*
X136227500Y-76372500D01*
D41*
X134337500Y-78137500D02*
X134337500Y-79750000D01*
D42*
X136200000Y-74610000D02*
X136227500Y-74637500D01*
X136200000Y-73775000D02*
X136200000Y-74610000D01*
%TO.N,/SPICLK*%
X135400000Y-71237500D02*
X135400000Y-73575000D01*
X135250000Y-74740000D02*
X135250000Y-79612500D01*
X135147500Y-74637500D02*
X135250000Y-74740000D01*
X135200000Y-74585000D02*
X135147500Y-74637500D01*
X135200000Y-73775000D02*
X135200000Y-74585000D01*
X135400000Y-73575000D02*
X135200000Y-73775000D01*
D41*
%TO.N,/MOSI*%
X139000000Y-77600000D02*
X139000000Y-75160000D01*
X139000000Y-75160000D02*
X138987500Y-75147500D01*
X136250000Y-79048000D02*
X137223000Y-78075000D01*
X138525000Y-78075000D02*
X139000000Y-77600000D01*
X136250000Y-79612500D02*
X136250000Y-79048000D01*
X137223000Y-78075000D02*
X138525000Y-78075000D01*
D42*
%TO.N,Net-(U4-PA9)*%
X143046073Y-70073500D02*
X142372573Y-69400000D01*
X132960000Y-77010000D02*
X134100000Y-77010000D01*
X132875000Y-76925000D02*
X132960000Y-77010000D01*
X142372573Y-69400000D02*
X139237500Y-69400000D01*
%TO.N,/UART_TX*%
X134127500Y-75962500D02*
X134127500Y-74637500D01*
X134100000Y-75990000D02*
X134127500Y-75962500D01*
%TO.N,Net-(U4-PA12)*%
X144490000Y-67900000D02*
X139237500Y-67900000D01*
%TO.N,/CAN_TX*%
X146000000Y-67900000D02*
X145510000Y-67900000D01*
X153305000Y-75205000D02*
X146000000Y-67900000D01*
X153305000Y-80440286D02*
X153305000Y-75205000D01*
%TO.N,Net-(U4-PA7)*%
X138987500Y-74127500D02*
X138987500Y-73787500D01*
X137000000Y-73300000D02*
X136400000Y-72700000D01*
X138987500Y-73787500D02*
X138500000Y-73300000D01*
X136400000Y-72700000D02*
X136400000Y-71237500D01*
X138500000Y-73300000D02*
X137000000Y-73300000D01*
%TO.N,/UART_RX*%
X144600000Y-70800000D02*
X144600000Y-70600000D01*
X144600000Y-70600000D02*
X142900000Y-68900000D01*
X137247500Y-74637500D02*
X137247500Y-75385000D01*
X137247500Y-75385000D02*
X137700000Y-75837500D01*
X142900000Y-68900000D02*
X139237500Y-68900000D01*
%TO.N,Net-(U2-Rs)*%
X153305000Y-85390286D02*
X155350000Y-85390286D01*
%TO.N,/CAN_RX*%
X139237500Y-68400000D02*
X143700000Y-68400000D01*
X149495000Y-74195000D02*
X149495000Y-80440286D01*
X143700000Y-68400000D02*
X149495000Y-74195000D01*
D41*
%TO.N,Net-(U5-BOOTN)*%
X136250000Y-84387500D02*
X136250000Y-85050000D01*
X138150000Y-86950000D02*
X139250000Y-86950000D01*
X136250000Y-85050000D02*
X138150000Y-86950000D01*
%TO.N,/~{CS}*%
X135750000Y-78475000D02*
X135750000Y-79612500D01*
X133303870Y-73700000D02*
X132800000Y-73700000D01*
X136000000Y-78225000D02*
X135750000Y-78475000D01*
X134900000Y-71237500D02*
X134900000Y-72103870D01*
X134900000Y-72103870D02*
X133303870Y-73700000D01*
%TO.N,/ProtocolSel1*%
X140800000Y-84100000D02*
X139500000Y-85400000D01*
X140328185Y-72300000D02*
X142400000Y-74371815D01*
X140800000Y-77565686D02*
X140800000Y-84100000D01*
X142400000Y-75965686D02*
X140800000Y-77565686D01*
X142400000Y-74371815D02*
X142400000Y-75965686D01*
X139500000Y-85400000D02*
X137300000Y-85400000D01*
X137900000Y-71870444D02*
X138329556Y-72300000D01*
X138329556Y-72300000D02*
X140328185Y-72300000D01*
X136750000Y-84850000D02*
X136750000Y-84387500D01*
X137900000Y-71237500D02*
X137900000Y-71870444D01*
X137300000Y-85400000D02*
X136750000Y-84850000D01*
%TO.N,/ProtocolSel0*%
X140400000Y-77400000D02*
X142000000Y-75800000D01*
X140162500Y-72700000D02*
X138163871Y-72700000D01*
X138163871Y-72700000D02*
X137400000Y-71936130D01*
X140400000Y-83024754D02*
X140400000Y-77400000D01*
X137662500Y-84250000D02*
X139174754Y-84250000D01*
X142000000Y-74537500D02*
X140162500Y-72700000D01*
X137400000Y-71936130D02*
X137400000Y-71237500D01*
X139174754Y-84250000D02*
X140400000Y-83024754D01*
X142000000Y-75800000D02*
X142000000Y-74537500D01*
%TO.N,/SWDIO*%
X143050000Y-67400000D02*
X144170000Y-66280000D01*
X139237500Y-67400000D02*
X143050000Y-67400000D01*
X144170000Y-66280000D02*
X149100000Y-66280000D01*
%TO.N,/SWCLK*%
X146210000Y-65010000D02*
X144100000Y-62900000D01*
X139750000Y-62900000D02*
X138400000Y-64250000D01*
X138400000Y-64250000D02*
X138400000Y-65562500D01*
X149100000Y-65010000D02*
X146210000Y-65010000D01*
X144100000Y-62900000D02*
X139750000Y-62900000D01*
%TO.N,/SWO*%
X139200000Y-61850000D02*
X137400000Y-63650000D01*
X144150000Y-61850000D02*
X139200000Y-61850000D01*
X137400000Y-63650000D02*
X137400000Y-65562500D01*
X146040000Y-63740000D02*
X144150000Y-61850000D01*
X149100000Y-63740000D02*
X146040000Y-63740000D01*
%TO.N,Net-(U5-CAP)*%
X138382500Y-82750000D02*
X137662500Y-82750000D01*
X139062500Y-83430000D02*
X138382500Y-82750000D01*
%TO.N,/~{IMU_INTR}*%
X139200000Y-79277000D02*
X138227000Y-80250000D01*
X141800000Y-69900000D02*
X145700000Y-73800000D01*
X139237500Y-69900000D02*
X141003870Y-69900000D01*
X138227000Y-80250000D02*
X137662500Y-80250000D01*
X141003870Y-69900000D02*
X141800000Y-69900000D01*
X145700000Y-77400000D02*
X145400000Y-77700000D01*
X145700000Y-73800000D02*
X145700000Y-77400000D01*
%TO.N,Net-(D1-A)*%
X132700000Y-90503750D02*
X132710000Y-90493750D01*
X132700000Y-92000000D02*
X132700000Y-90503750D01*
%TO.N,Net-(D3-A)*%
X135800000Y-91912500D02*
X135800000Y-90510000D01*
X135800000Y-90510000D02*
X135810000Y-90500000D01*
D42*
%TO.N,Net-(U4-PA2)*%
X128400000Y-87400000D02*
X128400000Y-74300000D01*
X131493750Y-90493750D02*
X128400000Y-87400000D01*
X128400000Y-74300000D02*
X132300000Y-70400000D01*
X131690000Y-90493750D02*
X131493750Y-90493750D01*
X132300000Y-70400000D02*
X133562500Y-70400000D01*
%TO.N,Net-(U4-PA3)*%
X133600000Y-72800000D02*
X134400000Y-72000000D01*
X130000000Y-88000000D02*
X128854000Y-86854000D01*
X128854000Y-86854000D02*
X128854000Y-74746000D01*
X134790000Y-90500000D02*
X134225000Y-90500000D01*
X134400000Y-72000000D02*
X134400000Y-71237500D01*
X134225000Y-90500000D02*
X131725000Y-88000000D01*
X128854000Y-74746000D02*
X130800000Y-72800000D01*
X130800000Y-72800000D02*
X133600000Y-72800000D01*
X131725000Y-88000000D02*
X130000000Y-88000000D01*
%TO.N,Net-(JP1-B)*%
X143335000Y-81890000D02*
X143335000Y-84025000D01*
X144200000Y-81025000D02*
X143335000Y-81890000D01*
%TD*%
%TA.AperFunction,Conductor*%
%TO.N,VCC*%
G36*
X119798104Y-87805915D02*
G01*
X119832336Y-87823097D01*
X119997574Y-87941125D01*
X120035757Y-87985288D01*
X120049500Y-88042028D01*
X120049500Y-88085444D01*
X120043885Y-88122334D01*
X120027550Y-88155884D01*
X119980088Y-88224644D01*
X119920239Y-88382453D01*
X119905000Y-88507958D01*
X119905000Y-89150250D01*
X119904774Y-89157736D01*
X119901172Y-89217272D01*
X119911922Y-89275930D01*
X119913049Y-89283333D01*
X119920239Y-89342545D01*
X119923773Y-89351864D01*
X119929798Y-89373478D01*
X119931595Y-89383282D01*
X119956076Y-89437679D01*
X119958942Y-89444597D01*
X119980089Y-89500357D01*
X119985749Y-89508557D01*
X119996769Y-89528097D01*
X120000863Y-89537191D01*
X120037643Y-89584137D01*
X120042081Y-89590169D01*
X120075963Y-89639254D01*
X120108227Y-89667838D01*
X120139076Y-89709762D01*
X120150000Y-89760653D01*
X120150000Y-91100000D01*
X120600000Y-91400000D01*
X121298638Y-91400000D01*
X121346091Y-91409439D01*
X121386319Y-91436319D01*
X121663681Y-91713681D01*
X121690561Y-91753909D01*
X121700000Y-91801362D01*
X121700000Y-94065655D01*
X121682329Y-94129452D01*
X121436122Y-94539797D01*
X121390888Y-94583905D01*
X121329793Y-94600000D01*
X118659598Y-94600000D01*
X118605883Y-94587762D01*
X118562770Y-94553462D01*
X118027172Y-93883965D01*
X118006990Y-93847548D01*
X118000000Y-93806503D01*
X118000000Y-93325000D01*
X118950000Y-93325000D01*
X118950000Y-93722824D01*
X118956402Y-93782375D01*
X119006647Y-93917089D01*
X119092811Y-94032188D01*
X119207910Y-94118352D01*
X119342624Y-94168597D01*
X119402176Y-94175000D01*
X119800000Y-94175000D01*
X119800000Y-93325000D01*
X120300000Y-93325000D01*
X120300000Y-94175000D01*
X120697824Y-94175000D01*
X120757375Y-94168597D01*
X120892089Y-94118352D01*
X121007188Y-94032188D01*
X121093352Y-93917089D01*
X121143597Y-93782375D01*
X121150000Y-93722824D01*
X121150000Y-93325000D01*
X120300000Y-93325000D01*
X119800000Y-93325000D01*
X118950000Y-93325000D01*
X118000000Y-93325000D01*
X118000000Y-92825000D01*
X118950000Y-92825000D01*
X119800000Y-92825000D01*
X119800000Y-91975000D01*
X120300000Y-91975000D01*
X120300000Y-92825000D01*
X121150000Y-92825000D01*
X121150000Y-92427176D01*
X121143597Y-92367624D01*
X121093352Y-92232910D01*
X121007188Y-92117811D01*
X120892089Y-92031647D01*
X120757375Y-91981402D01*
X120697824Y-91975000D01*
X120300000Y-91975000D01*
X119800000Y-91975000D01*
X119402176Y-91975000D01*
X119342624Y-91981402D01*
X119207910Y-92031647D01*
X119092811Y-92117811D01*
X119006647Y-92232910D01*
X118956402Y-92367624D01*
X118950000Y-92427176D01*
X118950000Y-92825000D01*
X118000000Y-92825000D01*
X118000000Y-91212610D01*
X118013116Y-91157105D01*
X118049688Y-91113344D01*
X118114687Y-91064687D01*
X118196628Y-90955226D01*
X118244412Y-90827114D01*
X118250500Y-90770485D01*
X118250499Y-90179516D01*
X118244412Y-90122886D01*
X118196628Y-89994774D01*
X118196627Y-89994773D01*
X118114689Y-89885315D01*
X118114687Y-89885314D01*
X118114687Y-89885313D01*
X118049688Y-89836655D01*
X118013116Y-89792895D01*
X118000000Y-89737390D01*
X118000000Y-88059598D01*
X118012238Y-88005883D01*
X118046538Y-87962770D01*
X118216035Y-87827172D01*
X118252452Y-87806990D01*
X118293497Y-87800000D01*
X119760262Y-87800000D01*
X119798104Y-87805915D01*
G37*
%TD.AperFunction*%
%TD*%
%TA.AperFunction,Conductor*%
%TO.N,GND*%
G36*
X143775006Y-70325425D02*
G01*
X143820469Y-70354334D01*
X143947097Y-70480963D01*
X143973491Y-70520038D01*
X143983389Y-70566145D01*
X143975356Y-70612612D01*
X143963763Y-70643179D01*
X143944721Y-70800000D01*
X143963763Y-70956818D01*
X144019780Y-71104523D01*
X144109515Y-71234528D01*
X144109516Y-71234529D01*
X144109517Y-71234530D01*
X144227760Y-71339283D01*
X144367635Y-71412696D01*
X144521015Y-71450500D01*
X144678985Y-71450500D01*
X144832365Y-71412696D01*
X144972240Y-71339283D01*
X145090483Y-71234530D01*
X145180220Y-71104523D01*
X145236237Y-70956818D01*
X145255278Y-70800000D01*
X145257093Y-70785053D01*
X145257894Y-70785150D01*
X145263323Y-70742586D01*
X145298765Y-70693179D01*
X145353433Y-70666560D01*
X145414183Y-70669130D01*
X145466406Y-70700271D01*
X147305859Y-72539725D01*
X149081181Y-74315047D01*
X149108061Y-74355275D01*
X149117500Y-74402728D01*
X149117500Y-79225032D01*
X149108061Y-79272485D01*
X149081183Y-79312710D01*
X149063189Y-79330705D01*
X149016949Y-79376944D01*
X148959353Y-79489983D01*
X148944500Y-79583764D01*
X148944500Y-81296800D01*
X148948964Y-81324983D01*
X148959354Y-81390590D01*
X148959354Y-81390591D01*
X148959355Y-81390592D01*
X149016949Y-81503628D01*
X149106656Y-81593335D01*
X149106658Y-81593336D01*
X149219696Y-81650932D01*
X149223603Y-81651550D01*
X149232921Y-81653027D01*
X149289009Y-81677124D01*
X149326803Y-81725065D01*
X149337141Y-81785229D01*
X149317518Y-81843035D01*
X149272691Y-81884473D01*
X149213523Y-81899500D01*
X147621543Y-81899500D01*
X147574090Y-81890061D01*
X147533862Y-81863181D01*
X147086818Y-81416137D01*
X147059938Y-81375909D01*
X147050499Y-81328456D01*
X147050499Y-80527130D01*
X147050183Y-80524190D01*
X147044091Y-80467517D01*
X146993796Y-80332669D01*
X146907546Y-80217454D01*
X146792331Y-80131204D01*
X146657483Y-80080909D01*
X146597873Y-80074500D01*
X146597869Y-80074500D01*
X145802130Y-80074500D01*
X145742515Y-80080909D01*
X145607669Y-80131204D01*
X145492454Y-80217454D01*
X145406204Y-80332668D01*
X145355909Y-80467516D01*
X145349500Y-80527130D01*
X145349500Y-81522869D01*
X145355909Y-81582484D01*
X145370640Y-81621978D01*
X145406204Y-81717331D01*
X145492454Y-81832546D01*
X145607669Y-81918796D01*
X145742517Y-81969091D01*
X145802127Y-81975500D01*
X146597872Y-81975499D01*
X146603455Y-81975499D01*
X146650908Y-81984938D01*
X146691136Y-82011818D01*
X146954137Y-82274819D01*
X146986231Y-82330406D01*
X146986231Y-82394593D01*
X146954137Y-82450181D01*
X146516138Y-82888181D01*
X146475910Y-82915061D01*
X146428457Y-82924500D01*
X145000325Y-82924500D01*
X144927261Y-82939033D01*
X144844399Y-82994399D01*
X144789033Y-83077261D01*
X144774500Y-83150325D01*
X144774500Y-84899675D01*
X144789033Y-84972738D01*
X144789033Y-84972739D01*
X144789034Y-84972740D01*
X144844399Y-85055601D01*
X144927260Y-85110966D01*
X144937727Y-85113048D01*
X145000325Y-85125500D01*
X145000326Y-85125500D01*
X146749674Y-85125500D01*
X146749675Y-85125500D01*
X146776122Y-85120239D01*
X146822740Y-85110966D01*
X146905601Y-85055601D01*
X146960966Y-84972740D01*
X146975500Y-84899674D01*
X146975500Y-83471544D01*
X146984939Y-83424091D01*
X147011819Y-83383863D01*
X147358863Y-83036819D01*
X147399091Y-83009939D01*
X147446544Y-83000500D01*
X149710256Y-83000500D01*
X149757709Y-83009939D01*
X149797937Y-83036819D01*
X150714223Y-83953105D01*
X150744473Y-84002467D01*
X150749016Y-84060183D01*
X150726861Y-84113670D01*
X150682838Y-84151270D01*
X150626544Y-84164786D01*
X150583486Y-84164786D01*
X150551557Y-84169843D01*
X150489696Y-84179640D01*
X150489694Y-84179640D01*
X150489693Y-84179641D01*
X150376657Y-84237235D01*
X150286949Y-84326943D01*
X150240483Y-84418137D01*
X150194788Y-84467569D01*
X150129998Y-84485841D01*
X150065208Y-84467568D01*
X150019514Y-84418135D01*
X150011127Y-84401675D01*
X150000696Y-84381202D01*
X149973050Y-84326943D01*
X149883343Y-84237236D01*
X149770302Y-84179639D01*
X149676521Y-84164786D01*
X149313485Y-84164786D01*
X149266589Y-84172213D01*
X149219696Y-84179640D01*
X149219694Y-84179640D01*
X149219693Y-84179641D01*
X149106657Y-84237235D01*
X149016950Y-84326942D01*
X148959353Y-84439983D01*
X148944500Y-84533764D01*
X148944500Y-86246800D01*
X148948979Y-86275079D01*
X148959354Y-86340590D01*
X148959354Y-86340591D01*
X148959355Y-86340592D01*
X149016949Y-86453628D01*
X149106656Y-86543335D01*
X149106658Y-86543336D01*
X149219696Y-86600932D01*
X149313481Y-86615786D01*
X149676518Y-86615785D01*
X149770304Y-86600932D01*
X149883342Y-86543336D01*
X149973050Y-86453628D01*
X150019515Y-86362434D01*
X150065210Y-86313003D01*
X150130000Y-86294730D01*
X150194790Y-86313003D01*
X150240484Y-86362434D01*
X150248339Y-86377850D01*
X150286950Y-86453629D01*
X150376656Y-86543335D01*
X150376658Y-86543336D01*
X150489696Y-86600932D01*
X150583481Y-86615786D01*
X150700500Y-86615785D01*
X150762499Y-86632398D01*
X150807887Y-86677785D01*
X150824500Y-86739785D01*
X150824500Y-87047380D01*
X150813110Y-87099294D01*
X150781031Y-87141670D01*
X150734158Y-87166725D01*
X150681102Y-87169853D01*
X150631521Y-87162000D01*
X150268485Y-87162000D01*
X150221588Y-87169427D01*
X150174696Y-87176854D01*
X150174694Y-87176854D01*
X150174693Y-87176855D01*
X150061657Y-87234449D01*
X149971950Y-87324156D01*
X149914353Y-87437197D01*
X149899500Y-87530978D01*
X149899500Y-88769014D01*
X149899501Y-88769018D01*
X149914354Y-88862804D01*
X149914354Y-88862805D01*
X149914355Y-88862806D01*
X149980866Y-88993342D01*
X149980865Y-88993342D01*
X149988222Y-89004110D01*
X149998561Y-89048795D01*
X149999413Y-89069383D01*
X149999519Y-89074510D01*
X149999519Y-89317040D01*
X149990080Y-89364493D01*
X149963200Y-89404721D01*
X149229740Y-90138181D01*
X149189512Y-90165061D01*
X149142059Y-90174500D01*
X148549212Y-90174500D01*
X148523766Y-90171861D01*
X148514685Y-90169957D01*
X148485877Y-90173548D01*
X148471210Y-90174458D01*
X148451990Y-90177665D01*
X148446927Y-90178402D01*
X148391191Y-90185351D01*
X148341804Y-90212077D01*
X148337252Y-90214420D01*
X148286802Y-90239084D01*
X148248770Y-90280398D01*
X148245222Y-90284095D01*
X146591136Y-91938181D01*
X146550908Y-91965061D01*
X146503455Y-91974500D01*
X145302130Y-91974500D01*
X145242515Y-91980909D01*
X145107669Y-92031204D01*
X144992454Y-92117454D01*
X144906204Y-92232668D01*
X144855909Y-92367516D01*
X144849500Y-92427130D01*
X144849500Y-93722869D01*
X144855909Y-93782484D01*
X144869745Y-93819579D01*
X144906204Y-93917331D01*
X144992454Y-94032546D01*
X145107669Y-94118796D01*
X145242517Y-94169091D01*
X145302127Y-94175500D01*
X146597872Y-94175499D01*
X146657483Y-94169091D01*
X146792331Y-94118796D01*
X146907546Y-94032546D01*
X146993796Y-93917331D01*
X147044091Y-93782483D01*
X147050500Y-93722873D01*
X147050499Y-92521542D01*
X147059938Y-92474090D01*
X147086815Y-92433865D01*
X148608862Y-90911819D01*
X148649091Y-90884939D01*
X148696544Y-90875500D01*
X149050500Y-90875500D01*
X149112500Y-90892113D01*
X149157887Y-90937500D01*
X149174500Y-90999500D01*
X149174500Y-92238053D01*
X149163934Y-92288141D01*
X149140126Y-92321226D01*
X149140160Y-92321252D01*
X149139073Y-92322690D01*
X149134035Y-92329691D01*
X149133780Y-92329924D01*
X149133234Y-92330422D01*
X149010324Y-92493181D01*
X148919418Y-92675748D01*
X148863602Y-92871916D01*
X148844785Y-93075000D01*
X148863602Y-93278083D01*
X148919418Y-93474251D01*
X149010324Y-93656818D01*
X149133236Y-93819580D01*
X149283958Y-93956981D01*
X149457361Y-94064347D01*
X149457363Y-94064348D01*
X149647544Y-94138024D01*
X149848024Y-94175500D01*
X150051974Y-94175500D01*
X150051976Y-94175500D01*
X150252456Y-94138024D01*
X150442637Y-94064348D01*
X150616041Y-93956981D01*
X150766764Y-93819579D01*
X150889673Y-93656821D01*
X150889673Y-93656819D01*
X150889675Y-93656818D01*
X150935313Y-93565161D01*
X150980582Y-93474250D01*
X151036397Y-93278083D01*
X151055215Y-93075000D01*
X151036397Y-92871917D01*
X150980582Y-92675750D01*
X150973118Y-92660760D01*
X150889675Y-92493181D01*
X150766763Y-92330419D01*
X150616041Y-92193018D01*
X150442638Y-92085652D01*
X150252457Y-92011976D01*
X150185629Y-91999484D01*
X150051976Y-91974500D01*
X150051974Y-91974500D01*
X149999500Y-91974500D01*
X149937500Y-91957887D01*
X149892113Y-91912500D01*
X149875500Y-91850500D01*
X149875500Y-91171544D01*
X149884939Y-91124091D01*
X149911819Y-91083863D01*
X150182712Y-90812970D01*
X151013046Y-89982634D01*
X151032903Y-89966510D01*
X151040669Y-89961437D01*
X151058496Y-89938531D01*
X151068232Y-89927507D01*
X151073172Y-89920587D01*
X151079559Y-89911640D01*
X151082607Y-89907552D01*
X151112517Y-89869126D01*
X151112517Y-89869125D01*
X151117105Y-89863231D01*
X151119237Y-89856068D01*
X151119239Y-89856066D01*
X151133142Y-89809363D01*
X151134674Y-89804581D01*
X151150500Y-89758488D01*
X151150500Y-89758486D01*
X151152925Y-89751423D01*
X151152616Y-89743956D01*
X151152617Y-89743954D01*
X151150605Y-89695331D01*
X151150500Y-89690208D01*
X151150500Y-89462000D01*
X151167113Y-89400000D01*
X151212500Y-89354613D01*
X151274500Y-89338000D01*
X151463288Y-89338000D01*
X151488734Y-89340639D01*
X151490056Y-89340916D01*
X151497815Y-89342543D01*
X151523864Y-89339295D01*
X151526623Y-89338952D01*
X151541295Y-89338041D01*
X151560513Y-89334834D01*
X151565569Y-89334096D01*
X151613893Y-89328073D01*
X151613894Y-89328072D01*
X151621308Y-89327148D01*
X151627878Y-89323592D01*
X151627881Y-89323592D01*
X151670701Y-89300418D01*
X151675247Y-89298077D01*
X151718984Y-89276698D01*
X151718986Y-89276695D01*
X151725695Y-89273416D01*
X151730754Y-89267919D01*
X151730758Y-89267918D01*
X151763755Y-89232072D01*
X151767231Y-89228449D01*
X151877072Y-89118607D01*
X151920310Y-89090529D01*
X151971238Y-89082463D01*
X152021041Y-89095807D01*
X152074696Y-89123146D01*
X152168481Y-89138000D01*
X152531518Y-89137999D01*
X152625304Y-89123146D01*
X152738342Y-89065550D01*
X152828050Y-88975842D01*
X152885646Y-88862804D01*
X152900500Y-88769019D01*
X152900499Y-87530982D01*
X152885646Y-87437196D01*
X152857965Y-87382870D01*
X152828050Y-87324157D01*
X152738343Y-87234450D01*
X152625302Y-87176853D01*
X152531521Y-87162000D01*
X152168480Y-87162000D01*
X152128668Y-87168306D01*
X152118896Y-87169853D01*
X152065841Y-87166725D01*
X152018968Y-87141671D01*
X151986890Y-87099295D01*
X151975500Y-87047381D01*
X151975500Y-86739786D01*
X151992113Y-86677786D01*
X152037499Y-86632399D01*
X152099499Y-86615786D01*
X152216508Y-86615785D01*
X152216518Y-86615785D01*
X152310304Y-86600932D01*
X152423342Y-86543336D01*
X152513050Y-86453628D01*
X152559515Y-86362434D01*
X152605210Y-86313003D01*
X152670000Y-86294730D01*
X152734790Y-86313003D01*
X152780484Y-86362434D01*
X152788339Y-86377850D01*
X152826950Y-86453629D01*
X152916656Y-86543335D01*
X152916658Y-86543336D01*
X153029696Y-86600932D01*
X153123481Y-86615786D01*
X153486518Y-86615785D01*
X153580304Y-86600932D01*
X153693342Y-86543336D01*
X153783050Y-86453628D01*
X153840646Y-86340590D01*
X153851022Y-86275079D01*
X153855500Y-86246807D01*
X153855500Y-85891786D01*
X153872113Y-85829786D01*
X153917500Y-85784399D01*
X153979500Y-85767786D01*
X154544777Y-85767786D01*
X154600658Y-85781092D01*
X154644547Y-85818153D01*
X154702849Y-85897150D01*
X154812115Y-85977792D01*
X154812118Y-85977793D01*
X154940301Y-86022646D01*
X154952474Y-86023787D01*
X154970731Y-86025500D01*
X154970734Y-86025500D01*
X155629266Y-86025500D01*
X155629269Y-86025500D01*
X155644482Y-86024072D01*
X155659699Y-86022646D01*
X155787882Y-85977793D01*
X155787882Y-85977792D01*
X155787884Y-85977792D01*
X155897150Y-85897150D01*
X155977792Y-85787884D01*
X155977793Y-85787882D01*
X156022646Y-85659699D01*
X156025500Y-85629266D01*
X156025500Y-85120734D01*
X156024024Y-85105000D01*
X156022646Y-85090303D01*
X156022646Y-85090301D01*
X155977793Y-84962118D01*
X155977792Y-84962115D01*
X155897150Y-84852849D01*
X155787884Y-84772207D01*
X155659696Y-84727353D01*
X155629269Y-84724500D01*
X155629266Y-84724500D01*
X154970734Y-84724500D01*
X154970731Y-84724500D01*
X154940303Y-84727353D01*
X154812115Y-84772207D01*
X154702849Y-84852849D01*
X154621984Y-84962419D01*
X154578095Y-84999480D01*
X154522214Y-85012786D01*
X153979499Y-85012786D01*
X153917499Y-84996173D01*
X153872112Y-84950786D01*
X153855499Y-84888786D01*
X153855499Y-84533772D01*
X153855499Y-84533768D01*
X153840646Y-84439982D01*
X153811428Y-84382639D01*
X153783050Y-84326943D01*
X153693343Y-84237236D01*
X153580302Y-84179639D01*
X153486521Y-84164786D01*
X153123485Y-84164786D01*
X153076589Y-84172213D01*
X153029696Y-84179640D01*
X153029694Y-84179640D01*
X153029693Y-84179641D01*
X152916657Y-84237235D01*
X152826949Y-84326943D01*
X152780483Y-84418137D01*
X152734788Y-84467569D01*
X152669998Y-84485841D01*
X152605208Y-84467568D01*
X152559514Y-84418135D01*
X152551127Y-84401675D01*
X152540696Y-84381202D01*
X152513050Y-84326943D01*
X152423343Y-84237236D01*
X152310302Y-84179639D01*
X152216521Y-84164786D01*
X152216519Y-84164786D01*
X152099500Y-84164786D01*
X152037502Y-84148174D01*
X151992114Y-84102787D01*
X151975501Y-84040787D01*
X151975501Y-83781013D01*
X151978140Y-83755567D01*
X151978365Y-83754488D01*
X151980044Y-83746486D01*
X151976453Y-83717678D01*
X151975542Y-83703014D01*
X151975501Y-83702768D01*
X151975501Y-83702761D01*
X151972331Y-83683766D01*
X151971596Y-83678720D01*
X151971173Y-83675325D01*
X151965574Y-83630408D01*
X151965573Y-83630406D01*
X151964649Y-83622992D01*
X151961093Y-83616421D01*
X151961093Y-83616420D01*
X151937926Y-83573612D01*
X151935585Y-83569064D01*
X151931587Y-83560887D01*
X151919400Y-83496284D01*
X151941952Y-83434530D01*
X151992903Y-83392985D01*
X152057929Y-83383325D01*
X152087800Y-83386952D01*
X152095175Y-83388074D01*
X152153850Y-83398827D01*
X152213386Y-83395226D01*
X152220872Y-83395000D01*
X153675250Y-83395000D01*
X153682736Y-83395226D01*
X153688005Y-83395544D01*
X153742272Y-83398827D01*
X153800955Y-83388071D01*
X153808337Y-83386949D01*
X153867546Y-83379761D01*
X153876867Y-83376225D01*
X153898477Y-83370201D01*
X153908283Y-83368405D01*
X153962693Y-83343916D01*
X153969574Y-83341065D01*
X154025355Y-83319912D01*
X154033544Y-83314258D01*
X154053104Y-83303227D01*
X154058438Y-83300825D01*
X154062191Y-83299137D01*
X154109184Y-83262318D01*
X154115139Y-83257937D01*
X154164255Y-83224036D01*
X154203824Y-83179370D01*
X154208926Y-83173950D01*
X156001558Y-81381319D01*
X156041787Y-81354439D01*
X156089240Y-81345000D01*
X156431000Y-81345000D01*
X156493000Y-81361613D01*
X156538387Y-81407000D01*
X156555000Y-81469000D01*
X156555000Y-94310760D01*
X156545561Y-94358213D01*
X156518681Y-94398441D01*
X153848441Y-97068681D01*
X153808213Y-97095561D01*
X153760760Y-97105000D01*
X146239240Y-97105000D01*
X146191787Y-97095561D01*
X146151559Y-97068681D01*
X141608941Y-92526063D01*
X141603824Y-92520628D01*
X141564255Y-92475964D01*
X141564254Y-92475963D01*
X141564252Y-92475961D01*
X141515169Y-92442081D01*
X141509137Y-92437643D01*
X141495714Y-92427127D01*
X141462191Y-92400863D01*
X141453097Y-92396769D01*
X141433557Y-92385749D01*
X141425357Y-92380089D01*
X141425355Y-92380088D01*
X141369587Y-92358937D01*
X141362679Y-92356076D01*
X141337105Y-92344566D01*
X141308283Y-92331595D01*
X141298477Y-92329797D01*
X141276867Y-92323774D01*
X141267546Y-92320239D01*
X141245601Y-92317574D01*
X141208333Y-92313049D01*
X141200930Y-92311922D01*
X141142272Y-92301172D01*
X141082736Y-92304774D01*
X141075250Y-92305000D01*
X139756500Y-92305000D01*
X139694500Y-92288387D01*
X139649113Y-92243000D01*
X139632500Y-92181000D01*
X139632500Y-90712261D01*
X139632726Y-90704774D01*
X139634694Y-90672233D01*
X139636328Y-90645229D01*
X139629530Y-90608138D01*
X139627500Y-90585787D01*
X139627500Y-89279400D01*
X139637846Y-89229813D01*
X139667159Y-89188501D01*
X139710545Y-89162358D01*
X139737882Y-89152793D01*
X139847150Y-89072150D01*
X139847150Y-89072148D01*
X139847152Y-89072148D01*
X139927792Y-88962884D01*
X139927793Y-88962882D01*
X139972646Y-88834699D01*
X139975500Y-88804266D01*
X139975500Y-88359727D01*
X139984939Y-88312274D01*
X140011819Y-88272046D01*
X140983365Y-87300500D01*
X141980157Y-86303707D01*
X142000011Y-86287584D01*
X142009209Y-86281576D01*
X142028774Y-86256437D01*
X142038952Y-86244913D01*
X142039052Y-86244814D01*
X142047682Y-86232727D01*
X142051212Y-86227783D01*
X142054277Y-86223672D01*
X142066153Y-86208414D01*
X142086592Y-86182155D01*
X142086592Y-86182152D01*
X142091426Y-86175943D01*
X142091586Y-86175633D01*
X142108848Y-86117650D01*
X142110403Y-86112790D01*
X142127500Y-86062994D01*
X142127500Y-86062992D01*
X142130050Y-86055564D01*
X142130105Y-86055185D01*
X142129753Y-86046680D01*
X142127605Y-85994758D01*
X142127500Y-85989634D01*
X142127500Y-84596168D01*
X142144885Y-84532850D01*
X142192165Y-84487286D01*
X142256082Y-84472253D01*
X142318715Y-84491965D01*
X142362500Y-84540897D01*
X142395324Y-84606818D01*
X142518236Y-84769580D01*
X142668958Y-84906981D01*
X142839840Y-85012786D01*
X142842363Y-85014348D01*
X143032544Y-85088024D01*
X143233024Y-85125500D01*
X143436974Y-85125500D01*
X143436976Y-85125500D01*
X143637456Y-85088024D01*
X143827637Y-85014348D01*
X144001041Y-84906981D01*
X144151764Y-84769579D01*
X144274673Y-84606821D01*
X144274673Y-84606819D01*
X144274675Y-84606818D01*
X144334194Y-84487286D01*
X144365582Y-84424250D01*
X144421397Y-84228083D01*
X144440215Y-84025000D01*
X144422841Y-83837500D01*
X144421397Y-83821916D01*
X144383966Y-83690362D01*
X144365582Y-83625750D01*
X144353886Y-83602261D01*
X144274675Y-83443181D01*
X144151763Y-83280419D01*
X144001041Y-83143018D01*
X143827638Y-83035652D01*
X143800812Y-83025260D01*
X143791705Y-83021732D01*
X143750180Y-82995127D01*
X143722308Y-82954440D01*
X143712500Y-82906106D01*
X143712500Y-82099500D01*
X143729113Y-82037500D01*
X143774500Y-81992113D01*
X143836500Y-81975500D01*
X144597802Y-81975499D01*
X144597872Y-81975499D01*
X144657483Y-81969091D01*
X144792331Y-81918796D01*
X144907546Y-81832546D01*
X144993796Y-81717331D01*
X145044091Y-81582483D01*
X145050500Y-81522873D01*
X145050499Y-80527128D01*
X145044091Y-80467517D01*
X144993796Y-80332669D01*
X144907546Y-80217454D01*
X144792331Y-80131204D01*
X144657483Y-80080909D01*
X144597873Y-80074500D01*
X144597869Y-80074500D01*
X143958725Y-80074500D01*
X143902430Y-80060985D01*
X143858407Y-80023385D01*
X143836252Y-79969898D01*
X143840794Y-79912182D01*
X143871042Y-79862821D01*
X144380154Y-79353709D01*
X144400012Y-79337584D01*
X144409209Y-79331576D01*
X144428779Y-79306430D01*
X144438960Y-79294904D01*
X144439052Y-79294813D01*
X144451238Y-79277743D01*
X144454224Y-79273738D01*
X144486592Y-79232155D01*
X144486593Y-79232150D01*
X144491426Y-79225942D01*
X144491586Y-79225633D01*
X144508848Y-79167650D01*
X144510403Y-79162790D01*
X144527500Y-79112994D01*
X144527500Y-79112991D01*
X144530050Y-79105563D01*
X144530105Y-79105185D01*
X144529774Y-79097186D01*
X144527606Y-79044749D01*
X144527500Y-79039625D01*
X144527500Y-77910490D01*
X144546166Y-77845063D01*
X144596544Y-77799333D01*
X144663468Y-77787069D01*
X144726788Y-77811962D01*
X144767442Y-77866519D01*
X144819779Y-78004523D01*
X144909515Y-78134528D01*
X144909516Y-78134529D01*
X144909517Y-78134530D01*
X145027760Y-78239283D01*
X145167635Y-78312696D01*
X145321015Y-78350500D01*
X145478985Y-78350500D01*
X145632365Y-78312696D01*
X145772240Y-78239283D01*
X145890483Y-78134530D01*
X145980220Y-78004523D01*
X146036237Y-77856818D01*
X146055278Y-77700000D01*
X146036237Y-77543182D01*
X146036236Y-77543179D01*
X146035799Y-77539580D01*
X146041615Y-77484367D01*
X146050500Y-77458488D01*
X146050500Y-77458486D01*
X146052925Y-77451422D01*
X146052616Y-77443956D01*
X146052617Y-77443954D01*
X146050605Y-77395331D01*
X146050500Y-77390208D01*
X146050500Y-73849212D01*
X146053139Y-73823766D01*
X146053538Y-73821862D01*
X146055043Y-73814685D01*
X146051452Y-73785877D01*
X146050541Y-73771213D01*
X146050500Y-73770967D01*
X146050500Y-73770960D01*
X146047330Y-73751965D01*
X146046595Y-73746919D01*
X146045523Y-73738319D01*
X146040573Y-73698607D01*
X146040572Y-73698605D01*
X146039648Y-73691191D01*
X146036092Y-73684620D01*
X146036092Y-73684619D01*
X146012925Y-73641811D01*
X146010581Y-73637256D01*
X145985918Y-73586805D01*
X145956212Y-73559459D01*
X145944587Y-73548757D01*
X145940914Y-73545232D01*
X143268694Y-70873012D01*
X143238560Y-70824005D01*
X143233787Y-70766674D01*
X143255400Y-70713358D01*
X143298746Y-70675537D01*
X143418313Y-70612783D01*
X143536556Y-70508030D01*
X143626293Y-70378023D01*
X143626293Y-70378020D01*
X143630741Y-70371578D01*
X143670251Y-70334944D01*
X143721569Y-70318527D01*
X143775006Y-70325425D01*
G37*
%TD.AperFunction*%
%TA.AperFunction,Conductor*%
G36*
X127971385Y-74410409D02*
G01*
X128008985Y-74454432D01*
X128022500Y-74510727D01*
X128022500Y-87347988D01*
X128019861Y-87373434D01*
X128017607Y-87384183D01*
X128021548Y-87415801D01*
X128022500Y-87431138D01*
X128022500Y-87431281D01*
X128023486Y-87437193D01*
X128025938Y-87451885D01*
X128026676Y-87456948D01*
X128029553Y-87480030D01*
X128034161Y-87516991D01*
X128034282Y-87517368D01*
X128063067Y-87570558D01*
X128065409Y-87575107D01*
X128075011Y-87594748D01*
X128091974Y-87629446D01*
X128092204Y-87629753D01*
X128097979Y-87635069D01*
X128097980Y-87635071D01*
X128123333Y-87658410D01*
X128136715Y-87670729D01*
X128140413Y-87674278D01*
X131138367Y-90672233D01*
X131161518Y-90704305D01*
X131173390Y-90742036D01*
X131180417Y-90790268D01*
X131236922Y-90905851D01*
X131327898Y-90996827D01*
X131443481Y-91053332D01*
X131518415Y-91064250D01*
X131518418Y-91064250D01*
X131861582Y-91064250D01*
X131861585Y-91064250D01*
X131936518Y-91053332D01*
X132052101Y-90996827D01*
X132112319Y-90936610D01*
X132167906Y-90904516D01*
X132232094Y-90904516D01*
X132287681Y-90936610D01*
X132313181Y-90962110D01*
X132340061Y-91002338D01*
X132349500Y-91049791D01*
X132349500Y-91229482D01*
X132339488Y-91278295D01*
X132311070Y-91319225D01*
X132268834Y-91345662D01*
X132248739Y-91353157D01*
X132216548Y-91365164D01*
X132108527Y-91446027D01*
X132027665Y-91554047D01*
X131989590Y-91656132D01*
X131980509Y-91680478D01*
X131974500Y-91736370D01*
X131974500Y-92263630D01*
X131980509Y-92319522D01*
X132023155Y-92433862D01*
X132027665Y-92445952D01*
X132108527Y-92553972D01*
X132162655Y-92594491D01*
X132216550Y-92634836D01*
X132342978Y-92681991D01*
X132398870Y-92688000D01*
X133001127Y-92688000D01*
X133001130Y-92688000D01*
X133057022Y-92681991D01*
X133183450Y-92634836D01*
X133291472Y-92553972D01*
X133372336Y-92445950D01*
X133419491Y-92319522D01*
X133425500Y-92263630D01*
X133425500Y-91736370D01*
X133419491Y-91680478D01*
X133372336Y-91554050D01*
X133372334Y-91554047D01*
X133291472Y-91446027D01*
X133183451Y-91365164D01*
X133160196Y-91356490D01*
X133131165Y-91345662D01*
X133088930Y-91319225D01*
X133060512Y-91278295D01*
X133050500Y-91229482D01*
X133050500Y-91069791D01*
X133059939Y-91022338D01*
X133086819Y-90982110D01*
X133163077Y-90905851D01*
X133219582Y-90790268D01*
X133230500Y-90715335D01*
X133230500Y-90338728D01*
X133244015Y-90282433D01*
X133281615Y-90238410D01*
X133335102Y-90216255D01*
X133392818Y-90220797D01*
X133442181Y-90251047D01*
X133921290Y-90730156D01*
X133937413Y-90750010D01*
X133943424Y-90759209D01*
X133954583Y-90767894D01*
X133968565Y-90778777D01*
X133980083Y-90788949D01*
X133980186Y-90789052D01*
X133997206Y-90801205D01*
X134001311Y-90804266D01*
X134049048Y-90841420D01*
X134049374Y-90841588D01*
X134056910Y-90843831D01*
X134056911Y-90843832D01*
X134063475Y-90845786D01*
X134107340Y-90858845D01*
X134112218Y-90860407D01*
X134162006Y-90877500D01*
X134162008Y-90877500D01*
X134169433Y-90880049D01*
X134169814Y-90880105D01*
X134177658Y-90879780D01*
X134177660Y-90879781D01*
X134230241Y-90877605D01*
X134235366Y-90877500D01*
X134250959Y-90877500D01*
X134298412Y-90886939D01*
X134338640Y-90913819D01*
X134427898Y-91003077D01*
X134543481Y-91059582D01*
X134618415Y-91070500D01*
X134618418Y-91070500D01*
X134961582Y-91070500D01*
X134961585Y-91070500D01*
X135036518Y-91059582D01*
X135152101Y-91003077D01*
X135212319Y-90942860D01*
X135267906Y-90910766D01*
X135332094Y-90910766D01*
X135387681Y-90942860D01*
X135413181Y-90968360D01*
X135440061Y-91008588D01*
X135449500Y-91056041D01*
X135449500Y-91141982D01*
X135439488Y-91190795D01*
X135411070Y-91231725D01*
X135368834Y-91258162D01*
X135348739Y-91265657D01*
X135316548Y-91277664D01*
X135208527Y-91358527D01*
X135127665Y-91466547D01*
X135086404Y-91577174D01*
X135080509Y-91592978D01*
X135074500Y-91648870D01*
X135074500Y-92176130D01*
X135080509Y-92232022D01*
X135127351Y-92357612D01*
X135127665Y-92358452D01*
X135208527Y-92466472D01*
X135316547Y-92547334D01*
X135316550Y-92547336D01*
X135442978Y-92594491D01*
X135498870Y-92600500D01*
X136101127Y-92600500D01*
X136101130Y-92600500D01*
X136157022Y-92594491D01*
X136283450Y-92547336D01*
X136391472Y-92466472D01*
X136472336Y-92358450D01*
X136519491Y-92232022D01*
X136525500Y-92176130D01*
X136525500Y-91648870D01*
X136519491Y-91592978D01*
X136472336Y-91466550D01*
X136460321Y-91450500D01*
X136391472Y-91358527D01*
X136283451Y-91277664D01*
X136260196Y-91268990D01*
X136231165Y-91258162D01*
X136188930Y-91231725D01*
X136160512Y-91190795D01*
X136150500Y-91141982D01*
X136150500Y-91076041D01*
X136159939Y-91028588D01*
X136186819Y-90988360D01*
X136263077Y-90912101D01*
X136319582Y-90796518D01*
X136330500Y-90721585D01*
X136330500Y-90278415D01*
X136319582Y-90203481D01*
X136263077Y-90087898D01*
X136172101Y-89996922D01*
X136056518Y-89940417D01*
X135981585Y-89929500D01*
X135981582Y-89929500D01*
X135638418Y-89929500D01*
X135638415Y-89929500D01*
X135563481Y-89940417D01*
X135447898Y-89996922D01*
X135387681Y-90057140D01*
X135332094Y-90089234D01*
X135267906Y-90089234D01*
X135212319Y-90057140D01*
X135152101Y-89996922D01*
X135036518Y-89940417D01*
X134961585Y-89929500D01*
X134961582Y-89929500D01*
X134618418Y-89929500D01*
X134618415Y-89929500D01*
X134543481Y-89940417D01*
X134420137Y-90000716D01*
X134373929Y-90027391D01*
X134309745Y-90027389D01*
X134254161Y-89995296D01*
X133176125Y-88917260D01*
X132028709Y-87769843D01*
X132012581Y-87749983D01*
X132006575Y-87740790D01*
X131981434Y-87721222D01*
X131969916Y-87711050D01*
X131969814Y-87710948D01*
X131952797Y-87698798D01*
X131948690Y-87695736D01*
X131948357Y-87695477D01*
X131907155Y-87663408D01*
X131907154Y-87663407D01*
X131900957Y-87658584D01*
X131900619Y-87658410D01*
X131893089Y-87656168D01*
X131842632Y-87641146D01*
X131837761Y-87639585D01*
X131780567Y-87619950D01*
X131780185Y-87619894D01*
X131721764Y-87622311D01*
X131719880Y-87622389D01*
X131719759Y-87622394D01*
X131714634Y-87622500D01*
X130207727Y-87622500D01*
X130160274Y-87613061D01*
X130120046Y-87586181D01*
X129267819Y-86733953D01*
X129240939Y-86693725D01*
X129231500Y-86646272D01*
X129231500Y-84914624D01*
X129247311Y-84854035D01*
X129290711Y-84808896D01*
X129350633Y-84790720D01*
X129411796Y-84804140D01*
X129458602Y-84845734D01*
X129481899Y-84880601D01*
X129564760Y-84935966D01*
X129598523Y-84942682D01*
X129637825Y-84950500D01*
X129637826Y-84950500D01*
X131487174Y-84950500D01*
X131487175Y-84950500D01*
X131511529Y-84945655D01*
X131560240Y-84935966D01*
X131643101Y-84880601D01*
X131698466Y-84797740D01*
X131708155Y-84749029D01*
X131713000Y-84724675D01*
X131713000Y-84674500D01*
X131729613Y-84612500D01*
X131775000Y-84567113D01*
X131837000Y-84550500D01*
X132270849Y-84550500D01*
X132327143Y-84564014D01*
X132370325Y-84586017D01*
X132461765Y-84600500D01*
X132863234Y-84600499D01*
X132863237Y-84600499D01*
X132931814Y-84589637D01*
X132954675Y-84586017D01*
X133064891Y-84529859D01*
X133152359Y-84442391D01*
X133208517Y-84332175D01*
X133223000Y-84240735D01*
X133222999Y-84056542D01*
X133232438Y-84009090D01*
X133259315Y-83968865D01*
X133537819Y-83690361D01*
X133587182Y-83660112D01*
X133644898Y-83655570D01*
X133698385Y-83677725D01*
X133735985Y-83721748D01*
X133749500Y-83778043D01*
X133749500Y-83901675D01*
X133764246Y-83975807D01*
X133764246Y-84024190D01*
X133749500Y-84098324D01*
X133749500Y-84401675D01*
X133764033Y-84474738D01*
X133764033Y-84474739D01*
X133764034Y-84474740D01*
X133819399Y-84557601D01*
X133902260Y-84612966D01*
X133929684Y-84618421D01*
X133975325Y-84627500D01*
X133975326Y-84627500D01*
X134699674Y-84627500D01*
X134699675Y-84627500D01*
X134724029Y-84622655D01*
X134772740Y-84612966D01*
X134855601Y-84557601D01*
X134910966Y-84474740D01*
X134925500Y-84401674D01*
X134925500Y-84224500D01*
X134942113Y-84162500D01*
X134987500Y-84117113D01*
X135049500Y-84100500D01*
X135248500Y-84100500D01*
X135310500Y-84117113D01*
X135355887Y-84162500D01*
X135372500Y-84224500D01*
X135372500Y-84749674D01*
X135385259Y-84813819D01*
X135388822Y-84831728D01*
X135394161Y-84843017D01*
X135399500Y-84879011D01*
X135399500Y-85391887D01*
X135390061Y-85439340D01*
X135363181Y-85479568D01*
X135345141Y-85497607D01*
X135288982Y-85607826D01*
X135274500Y-85699262D01*
X135274500Y-86100737D01*
X135288982Y-86192174D01*
X135345140Y-86302391D01*
X135383180Y-86340430D01*
X135410061Y-86380659D01*
X135419500Y-86428112D01*
X135419500Y-86985222D01*
X135406384Y-87040727D01*
X135369809Y-87084490D01*
X135335312Y-87110313D01*
X135253372Y-87219773D01*
X135205588Y-87347883D01*
X135204194Y-87360848D01*
X135201198Y-87388726D01*
X135199500Y-87404518D01*
X135199500Y-87995482D01*
X135205588Y-88052117D01*
X135253371Y-88180225D01*
X135335312Y-88289687D01*
X135415142Y-88349446D01*
X135444774Y-88371628D01*
X135572886Y-88419412D01*
X135629515Y-88425500D01*
X135641256Y-88425499D01*
X135688709Y-88434937D01*
X135728940Y-88461818D01*
X138206181Y-90939059D01*
X138233061Y-90979287D01*
X138242500Y-91026740D01*
X138242500Y-92660760D01*
X138233061Y-92708213D01*
X138206181Y-92748441D01*
X136385941Y-94568681D01*
X136345713Y-94595561D01*
X136298260Y-94605000D01*
X132183691Y-94605000D01*
X132136238Y-94595561D01*
X132096010Y-94568681D01*
X126928392Y-89401063D01*
X126923275Y-89395628D01*
X126883706Y-89350964D01*
X126883705Y-89350963D01*
X126883703Y-89350961D01*
X126834620Y-89317081D01*
X126828588Y-89312643D01*
X126812984Y-89300418D01*
X126781642Y-89275863D01*
X126772548Y-89271769D01*
X126753008Y-89260749D01*
X126744808Y-89255089D01*
X126744806Y-89255088D01*
X126689038Y-89233937D01*
X126682130Y-89231076D01*
X126656556Y-89219566D01*
X126627734Y-89206595D01*
X126617928Y-89204797D01*
X126596318Y-89198774D01*
X126586997Y-89195239D01*
X126565052Y-89192574D01*
X126527784Y-89188049D01*
X126520381Y-89186922D01*
X126461723Y-89176172D01*
X126402187Y-89179774D01*
X126394701Y-89180000D01*
X126299499Y-89180000D01*
X126237499Y-89163387D01*
X126192112Y-89118000D01*
X126175499Y-89056000D01*
X126175499Y-88752130D01*
X126175499Y-88752127D01*
X126169091Y-88692517D01*
X126118796Y-88557669D01*
X126032546Y-88442454D01*
X126009898Y-88425500D01*
X125963832Y-88391015D01*
X125917331Y-88356204D01*
X125917329Y-88356203D01*
X125908952Y-88349932D01*
X125874322Y-88309892D01*
X125859547Y-88259057D01*
X125867320Y-88206697D01*
X125886237Y-88156818D01*
X125905278Y-88000000D01*
X125904729Y-87995482D01*
X125898868Y-87947207D01*
X125886237Y-87843182D01*
X125830220Y-87695477D01*
X125783672Y-87628040D01*
X125740484Y-87565471D01*
X125740483Y-87565470D01*
X125721465Y-87548622D01*
X125693987Y-87513606D01*
X125680644Y-87471141D01*
X125678452Y-87453552D01*
X125677500Y-87438217D01*
X125677500Y-87046136D01*
X125688425Y-86995244D01*
X125719274Y-86953320D01*
X125740482Y-86934531D01*
X125755479Y-86912804D01*
X125830220Y-86804523D01*
X125886237Y-86656818D01*
X125905278Y-86500000D01*
X125886237Y-86343182D01*
X125830220Y-86195477D01*
X125764824Y-86100734D01*
X125740482Y-86065468D01*
X125719274Y-86046680D01*
X125688425Y-86004756D01*
X125677500Y-85953864D01*
X125677500Y-76607727D01*
X125686939Y-76560274D01*
X125713819Y-76520046D01*
X127810819Y-74423046D01*
X127860182Y-74392796D01*
X127917898Y-74388254D01*
X127971385Y-74410409D01*
G37*
%TD.AperFunction*%
%TA.AperFunction,Conductor*%
G36*
X135525259Y-80185965D02*
G01*
X135525260Y-80185966D01*
X135571881Y-80195239D01*
X135598325Y-80200500D01*
X135598326Y-80200500D01*
X135901673Y-80200500D01*
X135901674Y-80200500D01*
X135974740Y-80185966D01*
X135974742Y-80185964D01*
X135975806Y-80185753D01*
X136024191Y-80185753D01*
X136025259Y-80185965D01*
X136025260Y-80185966D01*
X136071881Y-80195239D01*
X136098325Y-80200500D01*
X136098326Y-80200500D01*
X136401673Y-80200500D01*
X136401674Y-80200500D01*
X136474740Y-80185966D01*
X136474742Y-80185964D01*
X136475806Y-80185753D01*
X136524191Y-80185753D01*
X136525259Y-80185965D01*
X136525260Y-80185966D01*
X136571881Y-80195239D01*
X136598325Y-80200500D01*
X136598326Y-80200500D01*
X136901674Y-80200500D01*
X136901675Y-80200500D01*
X136926308Y-80195600D01*
X136980629Y-80196933D01*
X137029164Y-80221363D01*
X137062595Y-80264200D01*
X137074500Y-80317217D01*
X137074500Y-80401675D01*
X137089246Y-80475807D01*
X137089246Y-80524190D01*
X137074500Y-80598324D01*
X137074500Y-80901675D01*
X137089246Y-80975807D01*
X137089246Y-81024190D01*
X137074500Y-81098324D01*
X137074500Y-81401675D01*
X137089246Y-81475807D01*
X137089246Y-81524190D01*
X137074500Y-81598324D01*
X137074500Y-81901675D01*
X137089033Y-81974738D01*
X137089033Y-81974739D01*
X137089034Y-81974740D01*
X137144399Y-82057601D01*
X137227260Y-82112966D01*
X137253598Y-82118205D01*
X137304764Y-82128383D01*
X137364744Y-82158944D01*
X137399917Y-82216342D01*
X137399917Y-82283658D01*
X137364744Y-82341056D01*
X137304764Y-82371617D01*
X137227261Y-82387033D01*
X137144399Y-82442399D01*
X137089033Y-82525261D01*
X137074500Y-82598325D01*
X137074500Y-82901675D01*
X137089246Y-82975807D01*
X137089246Y-83024190D01*
X137074500Y-83098324D01*
X137074500Y-83401675D01*
X137089246Y-83475807D01*
X137089246Y-83524190D01*
X137074500Y-83598324D01*
X137074500Y-83682783D01*
X137062595Y-83735800D01*
X137029164Y-83778637D01*
X136980629Y-83803067D01*
X136926308Y-83804400D01*
X136901675Y-83799500D01*
X136901674Y-83799500D01*
X136598326Y-83799500D01*
X136584134Y-83802322D01*
X136524190Y-83814246D01*
X136475810Y-83814246D01*
X136415865Y-83802322D01*
X136401674Y-83799500D01*
X136401673Y-83799500D01*
X136206448Y-83799500D01*
X136150454Y-83786138D01*
X136106528Y-83748930D01*
X136096617Y-83725457D01*
X136095943Y-83725823D01*
X136086092Y-83707620D01*
X136086092Y-83707619D01*
X136062920Y-83664802D01*
X136060576Y-83660246D01*
X136035918Y-83609805D01*
X135994592Y-83571762D01*
X135990894Y-83568213D01*
X135976663Y-83553982D01*
X135959633Y-83536951D01*
X135943512Y-83517099D01*
X135938437Y-83509331D01*
X135915524Y-83491497D01*
X135904507Y-83481767D01*
X135888653Y-83470448D01*
X135884544Y-83467384D01*
X135840229Y-83432892D01*
X135786409Y-83416869D01*
X135781531Y-83415306D01*
X135728421Y-83397074D01*
X135672332Y-83399394D01*
X135667208Y-83399500D01*
X135049500Y-83399500D01*
X134987500Y-83382887D01*
X134942113Y-83337500D01*
X134925500Y-83275500D01*
X134925500Y-83098327D01*
X134925500Y-83098326D01*
X134910966Y-83025260D01*
X134910964Y-83025258D01*
X134910753Y-83024193D01*
X134910753Y-82975807D01*
X134910964Y-82974741D01*
X134910966Y-82974740D01*
X134925500Y-82901674D01*
X134925500Y-82598326D01*
X134910966Y-82525260D01*
X134855601Y-82442399D01*
X134772740Y-82387034D01*
X134772739Y-82387033D01*
X134772738Y-82387033D01*
X134695235Y-82371617D01*
X134635255Y-82341056D01*
X134600083Y-82283658D01*
X134600083Y-82216342D01*
X134635255Y-82158944D01*
X134695235Y-82128383D01*
X134699674Y-82127500D01*
X134772740Y-82112966D01*
X134855601Y-82057601D01*
X134910966Y-81974740D01*
X134925500Y-81901674D01*
X134925500Y-81598326D01*
X134924507Y-81593336D01*
X134910753Y-81524190D01*
X134910753Y-81475805D01*
X134910964Y-81474742D01*
X134910966Y-81474740D01*
X134925500Y-81401674D01*
X134925500Y-81098326D01*
X134925009Y-81095860D01*
X134910753Y-81024190D01*
X134910753Y-80975805D01*
X134910964Y-80974742D01*
X134910966Y-80974740D01*
X134925500Y-80901674D01*
X134925500Y-80598326D01*
X134923066Y-80586092D01*
X134911338Y-80527130D01*
X134910966Y-80525260D01*
X134910965Y-80525259D01*
X134910753Y-80524190D01*
X134910753Y-80475805D01*
X134910964Y-80474742D01*
X134910966Y-80474740D01*
X134925500Y-80401674D01*
X134925500Y-80317217D01*
X134937405Y-80264200D01*
X134970836Y-80221363D01*
X135019371Y-80196933D01*
X135073692Y-80195600D01*
X135098325Y-80200500D01*
X135098326Y-80200500D01*
X135401673Y-80200500D01*
X135401674Y-80200500D01*
X135474740Y-80185966D01*
X135474742Y-80185964D01*
X135475806Y-80185753D01*
X135524191Y-80185753D01*
X135525259Y-80185965D01*
G37*
%TD.AperFunction*%
%TA.AperFunction,Conductor*%
G36*
X139998385Y-80622226D02*
G01*
X140035985Y-80666249D01*
X140049500Y-80722544D01*
X140049500Y-82828210D01*
X140040061Y-82875663D01*
X140013181Y-82915891D01*
X139780752Y-83148319D01*
X139731389Y-83178569D01*
X139673673Y-83183111D01*
X139620185Y-83160956D01*
X139582586Y-83116933D01*
X139552358Y-83057607D01*
X139464892Y-82970141D01*
X139354673Y-82913982D01*
X139263237Y-82899500D01*
X139263235Y-82899500D01*
X139079044Y-82899500D01*
X139031591Y-82890061D01*
X138991363Y-82863181D01*
X138665138Y-82536956D01*
X138649009Y-82517094D01*
X138643937Y-82509330D01*
X138621033Y-82491504D01*
X138610008Y-82481768D01*
X138594153Y-82470448D01*
X138590044Y-82467384D01*
X138545729Y-82432892D01*
X138491909Y-82416869D01*
X138487031Y-82415306D01*
X138433921Y-82397074D01*
X138377832Y-82399394D01*
X138372708Y-82399500D01*
X138154011Y-82399500D01*
X138118017Y-82394161D01*
X138106728Y-82388822D01*
X138097740Y-82387034D01*
X138024674Y-82372500D01*
X138020235Y-82371617D01*
X137960255Y-82341056D01*
X137925083Y-82283658D01*
X137925083Y-82216342D01*
X137960255Y-82158944D01*
X138020235Y-82128383D01*
X138024674Y-82127500D01*
X138097740Y-82112966D01*
X138097742Y-82112964D01*
X138106728Y-82111177D01*
X138118017Y-82105839D01*
X138154011Y-82100500D01*
X138177788Y-82100500D01*
X138203234Y-82103139D01*
X138204556Y-82103416D01*
X138212315Y-82105043D01*
X138240256Y-82101560D01*
X138241123Y-82101452D01*
X138255795Y-82100541D01*
X138275013Y-82097334D01*
X138280069Y-82096596D01*
X138328393Y-82090573D01*
X138328394Y-82090572D01*
X138335808Y-82089648D01*
X138342378Y-82086092D01*
X138342381Y-82086092D01*
X138385201Y-82062918D01*
X138389747Y-82060577D01*
X138433484Y-82039198D01*
X138433486Y-82039195D01*
X138440195Y-82035916D01*
X138445254Y-82030419D01*
X138445258Y-82030418D01*
X138478254Y-81994572D01*
X138481756Y-81990924D01*
X139837818Y-80634863D01*
X139887182Y-80604613D01*
X139944898Y-80600071D01*
X139998385Y-80622226D01*
G37*
%TD.AperFunction*%
%TA.AperFunction,Conductor*%
G36*
X134971385Y-72676096D02*
G01*
X135008985Y-72720119D01*
X135022500Y-72776414D01*
X135022500Y-73367270D01*
X135013060Y-73414724D01*
X134986179Y-73454954D01*
X134969838Y-73471294D01*
X134949988Y-73487414D01*
X134940791Y-73493423D01*
X134921214Y-73518574D01*
X134911057Y-73530076D01*
X134910951Y-73530181D01*
X134898796Y-73547204D01*
X134895739Y-73551304D01*
X134858589Y-73599036D01*
X134858406Y-73599391D01*
X134841150Y-73657351D01*
X134839588Y-73662227D01*
X134819950Y-73719432D01*
X134819894Y-73719814D01*
X134822394Y-73780241D01*
X134822500Y-73785366D01*
X134822500Y-74045959D01*
X134813061Y-74093412D01*
X134786181Y-74133640D01*
X134725181Y-74194640D01*
X134669594Y-74226734D01*
X134605406Y-74226734D01*
X134549819Y-74194640D01*
X134489601Y-74134422D01*
X134374018Y-74077917D01*
X134299085Y-74067000D01*
X134299082Y-74067000D01*
X133955918Y-74067000D01*
X133955915Y-74067000D01*
X133880981Y-74077917D01*
X133765398Y-74134422D01*
X133674422Y-74225398D01*
X133617917Y-74340981D01*
X133607000Y-74415915D01*
X133607000Y-74859085D01*
X133617917Y-74934018D01*
X133674422Y-75049601D01*
X133713680Y-75088858D01*
X133740561Y-75129087D01*
X133750000Y-75176540D01*
X133750000Y-75429159D01*
X133731188Y-75494820D01*
X133701671Y-75521434D01*
X133702529Y-75522292D01*
X133596922Y-75627898D01*
X133540417Y-75743481D01*
X133529500Y-75818415D01*
X133529500Y-76161585D01*
X133540417Y-76236518D01*
X133596922Y-76352101D01*
X133657140Y-76412319D01*
X133689233Y-76467904D01*
X133689235Y-76532089D01*
X133657145Y-76587676D01*
X133648646Y-76596176D01*
X133608416Y-76623060D01*
X133560960Y-76632500D01*
X133528599Y-76632500D01*
X133470973Y-76618296D01*
X133426549Y-76578940D01*
X133365484Y-76490471D01*
X133340011Y-76467904D01*
X133247240Y-76385717D01*
X133183191Y-76352101D01*
X133107364Y-76312303D01*
X132953985Y-76274500D01*
X132796015Y-76274500D01*
X132642635Y-76312303D01*
X132502761Y-76385716D01*
X132384515Y-76490471D01*
X132294780Y-76620476D01*
X132238763Y-76768181D01*
X132219721Y-76925000D01*
X132238763Y-77081818D01*
X132294780Y-77229523D01*
X132384515Y-77359528D01*
X132384516Y-77359529D01*
X132384517Y-77359530D01*
X132502760Y-77464283D01*
X132642635Y-77537696D01*
X132796015Y-77575500D01*
X132953985Y-77575500D01*
X133107365Y-77537696D01*
X133247240Y-77464283D01*
X133298712Y-77418682D01*
X133336968Y-77395558D01*
X133380938Y-77387500D01*
X133560960Y-77387500D01*
X133608414Y-77396940D01*
X133648643Y-77423821D01*
X133669431Y-77444610D01*
X133699367Y-77493024D01*
X133704518Y-77549712D01*
X133683799Y-77602728D01*
X133619779Y-77695477D01*
X133563763Y-77843181D01*
X133544721Y-77999999D01*
X133563763Y-78156818D01*
X133619780Y-78304523D01*
X133709515Y-78434528D01*
X133709516Y-78434529D01*
X133709517Y-78434530D01*
X133827760Y-78539283D01*
X133892276Y-78573144D01*
X133920627Y-78588024D01*
X133969117Y-78633671D01*
X133987000Y-78697820D01*
X133987000Y-79268414D01*
X133974213Y-79323256D01*
X133938490Y-79366787D01*
X133920073Y-79375132D01*
X133819399Y-79442399D01*
X133764033Y-79525261D01*
X133749500Y-79598325D01*
X133749500Y-79901673D01*
X133764246Y-79975809D01*
X133764246Y-80024189D01*
X133749500Y-80098327D01*
X133749500Y-80401675D01*
X133764246Y-80475807D01*
X133764246Y-80524190D01*
X133749500Y-80598324D01*
X133749500Y-80901675D01*
X133764246Y-80975807D01*
X133764246Y-81024190D01*
X133749500Y-81098324D01*
X133749500Y-81401675D01*
X133764246Y-81475807D01*
X133764246Y-81524190D01*
X133749500Y-81598324D01*
X133749500Y-81901675D01*
X133764033Y-81974738D01*
X133764033Y-81974739D01*
X133764034Y-81974740D01*
X133819399Y-82057601D01*
X133902260Y-82112966D01*
X133928598Y-82118205D01*
X133979764Y-82128383D01*
X134039744Y-82158944D01*
X134074917Y-82216342D01*
X134074917Y-82283658D01*
X134039744Y-82341056D01*
X133979764Y-82371617D01*
X133893271Y-82388822D01*
X133881983Y-82394161D01*
X133845989Y-82399500D01*
X133484044Y-82399500D01*
X133436591Y-82390061D01*
X133396363Y-82363181D01*
X133241822Y-82208640D01*
X133211572Y-82159277D01*
X133207030Y-82101560D01*
X133208516Y-82092176D01*
X133208517Y-82092175D01*
X133223000Y-82000735D01*
X133222999Y-81659266D01*
X133222999Y-81659262D01*
X133208517Y-81567825D01*
X133152359Y-81457608D01*
X133064892Y-81370141D01*
X132954673Y-81313982D01*
X132863237Y-81299500D01*
X132461762Y-81299500D01*
X132370325Y-81313982D01*
X132330951Y-81334044D01*
X132279784Y-81347452D01*
X132251431Y-81348624D01*
X132232830Y-81349394D01*
X132227708Y-81349500D01*
X131837000Y-81349500D01*
X131775000Y-81332887D01*
X131729613Y-81287500D01*
X131713000Y-81225500D01*
X131713000Y-81175325D01*
X131698466Y-81102261D01*
X131698466Y-81102260D01*
X131643101Y-81019399D01*
X131560240Y-80964034D01*
X131560239Y-80964033D01*
X131560238Y-80964033D01*
X131487175Y-80949500D01*
X131487174Y-80949500D01*
X129637826Y-80949500D01*
X129637825Y-80949500D01*
X129564761Y-80964033D01*
X129532819Y-80985376D01*
X129485011Y-81017320D01*
X129481898Y-81019400D01*
X129478698Y-81024190D01*
X129464149Y-81045965D01*
X129458603Y-81054265D01*
X129411796Y-81095860D01*
X129350633Y-81109280D01*
X129290711Y-81091104D01*
X129247311Y-81045965D01*
X129231500Y-80985376D01*
X129231500Y-74953727D01*
X129240939Y-74906274D01*
X129267819Y-74866046D01*
X130920047Y-73213819D01*
X130960275Y-73186939D01*
X131007728Y-73177500D01*
X132133976Y-73177500D01*
X132198126Y-73195383D01*
X132243772Y-73243874D01*
X132257750Y-73308986D01*
X132236026Y-73371939D01*
X132219780Y-73395474D01*
X132163763Y-73543181D01*
X132144721Y-73700000D01*
X132163763Y-73856818D01*
X132219780Y-74004523D01*
X132309515Y-74134528D01*
X132309516Y-74134529D01*
X132309517Y-74134530D01*
X132427760Y-74239283D01*
X132567635Y-74312696D01*
X132721015Y-74350500D01*
X132878985Y-74350500D01*
X133032365Y-74312696D01*
X133172240Y-74239283D01*
X133290483Y-74134530D01*
X133319070Y-74093113D01*
X133356799Y-74057541D01*
X133405784Y-74040508D01*
X133412678Y-74039648D01*
X133419248Y-74036092D01*
X133419251Y-74036092D01*
X133462071Y-74012918D01*
X133466617Y-74010577D01*
X133510354Y-73989198D01*
X133510356Y-73989195D01*
X133517065Y-73985916D01*
X133522124Y-73980419D01*
X133522128Y-73980418D01*
X133555124Y-73944572D01*
X133558626Y-73940924D01*
X134810818Y-72688733D01*
X134860182Y-72658483D01*
X134917898Y-72653941D01*
X134971385Y-72676096D01*
G37*
%TD.AperFunction*%
%TA.AperFunction,Conductor*%
G36*
X145087681Y-68342860D02*
G01*
X145147898Y-68403077D01*
X145263481Y-68459582D01*
X145338415Y-68470500D01*
X145338418Y-68470500D01*
X145681582Y-68470500D01*
X145681585Y-68470500D01*
X145726543Y-68463949D01*
X145756518Y-68459582D01*
X145857789Y-68410073D01*
X145907122Y-68397580D01*
X145957322Y-68405957D01*
X145999927Y-68433792D01*
X149446088Y-71879954D01*
X152891181Y-75325047D01*
X152918061Y-75365275D01*
X152927500Y-75412728D01*
X152927500Y-79225032D01*
X152918061Y-79272485D01*
X152891183Y-79312710D01*
X152873189Y-79330705D01*
X152826949Y-79376944D01*
X152769353Y-79489983D01*
X152754500Y-79583764D01*
X152754500Y-81296800D01*
X152758964Y-81324983D01*
X152769354Y-81390590D01*
X152769354Y-81390591D01*
X152769355Y-81390592D01*
X152826949Y-81503628D01*
X152916656Y-81593335D01*
X152916658Y-81593336D01*
X153029696Y-81650932D01*
X153123481Y-81665786D01*
X153451974Y-81665785D01*
X153508268Y-81679300D01*
X153552292Y-81716899D01*
X153574447Y-81770387D01*
X153569905Y-81828103D01*
X153539656Y-81877465D01*
X153448438Y-81968683D01*
X153408213Y-81995561D01*
X153360760Y-82005000D01*
X152535361Y-82005000D01*
X152487908Y-81995561D01*
X152447680Y-81968681D01*
X151496319Y-81017320D01*
X151469439Y-80977092D01*
X151460000Y-80929639D01*
X151460000Y-80398244D01*
X151460000Y-80398243D01*
X151444761Y-80272740D01*
X151390855Y-80130601D01*
X151384912Y-80114930D01*
X151337449Y-80046169D01*
X151321114Y-80012619D01*
X151315499Y-79975729D01*
X151315499Y-79583772D01*
X151315499Y-79583768D01*
X151300646Y-79489982D01*
X151256548Y-79403436D01*
X151243605Y-79335259D01*
X151254365Y-79308287D01*
X151249869Y-79306745D01*
X151253313Y-79296706D01*
X151261586Y-79280633D01*
X151278848Y-79222650D01*
X151280403Y-79217790D01*
X151297500Y-79167994D01*
X151297500Y-79167991D01*
X151300050Y-79160563D01*
X151300105Y-79160185D01*
X151297606Y-79099749D01*
X151297500Y-79094625D01*
X151297500Y-78951398D01*
X151306939Y-78903945D01*
X151333816Y-78863719D01*
X151379859Y-78817677D01*
X151436017Y-78707461D01*
X151450500Y-78616021D01*
X151450499Y-78214552D01*
X151450499Y-78214551D01*
X151450499Y-78214548D01*
X151436017Y-78123111D01*
X151379859Y-78012894D01*
X151292392Y-77925427D01*
X151182173Y-77869268D01*
X151090737Y-77854786D01*
X150749262Y-77854786D01*
X150657825Y-77869268D01*
X150547608Y-77925426D01*
X150460141Y-78012893D01*
X150403982Y-78123112D01*
X150389500Y-78214548D01*
X150389500Y-78616023D01*
X150403982Y-78707460D01*
X150460140Y-78817677D01*
X150483096Y-78840632D01*
X150513762Y-78891296D01*
X150517432Y-78950404D01*
X150493271Y-79004474D01*
X150458591Y-79049032D01*
X150458406Y-79049391D01*
X150441150Y-79107351D01*
X150439588Y-79112227D01*
X150419950Y-79169432D01*
X150419894Y-79169815D01*
X150420593Y-79186709D01*
X150412216Y-79236908D01*
X150384380Y-79279513D01*
X150286949Y-79376943D01*
X150240483Y-79468137D01*
X150194788Y-79517569D01*
X150129998Y-79535841D01*
X150065208Y-79517568D01*
X150019514Y-79468135D01*
X149973051Y-79376945D01*
X149941912Y-79345806D01*
X149908816Y-79312710D01*
X149881939Y-79272485D01*
X149872500Y-79225032D01*
X149872500Y-74247012D01*
X149875139Y-74221566D01*
X149875177Y-74221382D01*
X149877393Y-74210816D01*
X149873451Y-74179198D01*
X149872500Y-74163862D01*
X149872500Y-74163720D01*
X149869058Y-74143093D01*
X149868319Y-74138019D01*
X149860838Y-74078001D01*
X149860724Y-74077644D01*
X149854136Y-74065470D01*
X149831931Y-74024439D01*
X149829596Y-74019903D01*
X149825588Y-74011704D01*
X149806477Y-73972611D01*
X149806476Y-73972610D01*
X149803027Y-73965554D01*
X149802798Y-73965247D01*
X149758295Y-73924279D01*
X149754597Y-73920731D01*
X144516047Y-68682181D01*
X144485797Y-68632818D01*
X144481255Y-68575102D01*
X144503410Y-68521615D01*
X144547433Y-68484015D01*
X144603728Y-68470500D01*
X144661585Y-68470500D01*
X144736518Y-68459582D01*
X144852101Y-68403077D01*
X144912319Y-68342860D01*
X144967906Y-68310766D01*
X145032094Y-68310766D01*
X145087681Y-68342860D01*
G37*
%TD.AperFunction*%
%TA.AperFunction,Conductor*%
G36*
X138760750Y-61564015D02*
G01*
X138804773Y-61601615D01*
X138826928Y-61655102D01*
X138822386Y-61712818D01*
X138792136Y-61762181D01*
X137186955Y-63367361D01*
X137167104Y-63383483D01*
X137159332Y-63388561D01*
X137141500Y-63411471D01*
X137131765Y-63422496D01*
X137120441Y-63438357D01*
X137117392Y-63442445D01*
X137100954Y-63463566D01*
X137082891Y-63486773D01*
X137066871Y-63540582D01*
X137065309Y-63545458D01*
X137047074Y-63598577D01*
X137049394Y-63654668D01*
X137049500Y-63659792D01*
X137049500Y-64650500D01*
X137032887Y-64712500D01*
X136987501Y-64757887D01*
X136925501Y-64774500D01*
X136800825Y-64774500D01*
X136755236Y-64780501D01*
X136702403Y-64805138D01*
X136649998Y-64816756D01*
X136597594Y-64805138D01*
X136544759Y-64780500D01*
X136499180Y-64774500D01*
X136300825Y-64774500D01*
X136255236Y-64780501D01*
X136202403Y-64805138D01*
X136149998Y-64816756D01*
X136097594Y-64805138D01*
X136044759Y-64780500D01*
X135999180Y-64774500D01*
X135800825Y-64774500D01*
X135755236Y-64780501D01*
X135702403Y-64805138D01*
X135649998Y-64816756D01*
X135597594Y-64805138D01*
X135544759Y-64780500D01*
X135499180Y-64774500D01*
X135499179Y-64774500D01*
X135374499Y-64774500D01*
X135312501Y-64757888D01*
X135267113Y-64712501D01*
X135250500Y-64650501D01*
X135250500Y-63814351D01*
X135261425Y-63763460D01*
X135292271Y-63721536D01*
X135390483Y-63634530D01*
X135480220Y-63504523D01*
X135536237Y-63356818D01*
X135555278Y-63200000D01*
X135536237Y-63043182D01*
X135480220Y-62895477D01*
X135390483Y-62765470D01*
X135272240Y-62660717D01*
X135193865Y-62619582D01*
X135132364Y-62587303D01*
X134978985Y-62549500D01*
X134821015Y-62549500D01*
X134667635Y-62587303D01*
X134527761Y-62660716D01*
X134409515Y-62765471D01*
X134319780Y-62895476D01*
X134263763Y-63043181D01*
X134244721Y-63200000D01*
X134262368Y-63345326D01*
X134263763Y-63356818D01*
X134319780Y-63504523D01*
X134409517Y-63634530D01*
X134507728Y-63721536D01*
X134538575Y-63763460D01*
X134549500Y-63814351D01*
X134549500Y-64937006D01*
X134537882Y-64989411D01*
X134530500Y-65005239D01*
X134524500Y-65050819D01*
X134524501Y-66082304D01*
X134521581Y-66082304D01*
X134516286Y-66126973D01*
X134484040Y-66172586D01*
X134509598Y-66173562D01*
X134562151Y-66204801D01*
X134655199Y-66297849D01*
X134655200Y-66297849D01*
X134655201Y-66297850D01*
X134661581Y-66300825D01*
X134755239Y-66344499D01*
X134762149Y-66345408D01*
X134800821Y-66350500D01*
X134999178Y-66350499D01*
X135044760Y-66344499D01*
X135097598Y-66319860D01*
X135150000Y-66308243D01*
X135202401Y-66319860D01*
X135255240Y-66344499D01*
X135300821Y-66350500D01*
X135499178Y-66350499D01*
X135544760Y-66344499D01*
X135597598Y-66319860D01*
X135650000Y-66308243D01*
X135702401Y-66319860D01*
X135755240Y-66344499D01*
X135800821Y-66350500D01*
X135999178Y-66350499D01*
X136044760Y-66344499D01*
X136097598Y-66319860D01*
X136150000Y-66308243D01*
X136202401Y-66319860D01*
X136255240Y-66344499D01*
X136300821Y-66350500D01*
X136499178Y-66350499D01*
X136544760Y-66344499D01*
X136597598Y-66319860D01*
X136650000Y-66308243D01*
X136702401Y-66319860D01*
X136755240Y-66344499D01*
X136800821Y-66350500D01*
X136999178Y-66350499D01*
X137044760Y-66344499D01*
X137097598Y-66319860D01*
X137150000Y-66308243D01*
X137202401Y-66319860D01*
X137255240Y-66344499D01*
X137300821Y-66350500D01*
X137499178Y-66350499D01*
X137544760Y-66344499D01*
X137597598Y-66319860D01*
X137650000Y-66308243D01*
X137702401Y-66319860D01*
X137755240Y-66344499D01*
X137800821Y-66350500D01*
X137999178Y-66350499D01*
X138044760Y-66344499D01*
X138097598Y-66319860D01*
X138150000Y-66308243D01*
X138202401Y-66319860D01*
X138255240Y-66344499D01*
X138300821Y-66350500D01*
X138325499Y-66350499D01*
X138387497Y-66367110D01*
X138432885Y-66412496D01*
X138449500Y-66474495D01*
X138449500Y-66499173D01*
X138455501Y-66544761D01*
X138502150Y-66644800D01*
X138580199Y-66722849D01*
X138680239Y-66769499D01*
X138687149Y-66770408D01*
X138725821Y-66775500D01*
X139192615Y-66775499D01*
X139202838Y-66775921D01*
X139214939Y-66776924D01*
X139254058Y-66790654D01*
X139273529Y-66780292D01*
X139277494Y-66779288D01*
X139307914Y-66775499D01*
X139749175Y-66775499D01*
X139749178Y-66775499D01*
X139794760Y-66769499D01*
X139894799Y-66722850D01*
X139972850Y-66644799D01*
X140019499Y-66544760D01*
X140025500Y-66499179D01*
X140025499Y-66300822D01*
X140019499Y-66255240D01*
X139994397Y-66201409D01*
X139963610Y-66135385D01*
X139963737Y-66135325D01*
X139946344Y-66105200D01*
X139946344Y-66041013D01*
X139978436Y-65985428D01*
X140095048Y-65868816D01*
X140135274Y-65841939D01*
X140182727Y-65832500D01*
X140245546Y-65832500D01*
X140301051Y-65845616D01*
X140344813Y-65882190D01*
X140410312Y-65969687D01*
X140474726Y-66017906D01*
X140519774Y-66051628D01*
X140647886Y-66099412D01*
X140704515Y-66105500D01*
X141290513Y-66105499D01*
X141356787Y-66124695D01*
X141402541Y-66176341D01*
X141413609Y-66244445D01*
X141394721Y-66399999D01*
X141412299Y-66544760D01*
X141413763Y-66556818D01*
X141469780Y-66704523D01*
X141556191Y-66829712D01*
X141568070Y-66846921D01*
X141567521Y-66847299D01*
X141591149Y-66881529D01*
X141598303Y-66940447D01*
X141577257Y-66995940D01*
X141532833Y-67035297D01*
X141475207Y-67049500D01*
X139862994Y-67049500D01*
X139810589Y-67037882D01*
X139794760Y-67030500D01*
X139749180Y-67024500D01*
X139303959Y-67024500D01*
X139252894Y-67011941D01*
X139204701Y-67024500D01*
X138725824Y-67024500D01*
X138680238Y-67030501D01*
X138580199Y-67077150D01*
X138502150Y-67155199D01*
X138455500Y-67255239D01*
X138449500Y-67300819D01*
X138449500Y-67499174D01*
X138455501Y-67544761D01*
X138480138Y-67597595D01*
X138491756Y-67650000D01*
X138480138Y-67702405D01*
X138455500Y-67755239D01*
X138449500Y-67800819D01*
X138449500Y-67999174D01*
X138455501Y-68044761D01*
X138480138Y-68097595D01*
X138491756Y-68150000D01*
X138480138Y-68202405D01*
X138455500Y-68255239D01*
X138449500Y-68300819D01*
X138449500Y-68499174D01*
X138455501Y-68544761D01*
X138480138Y-68597595D01*
X138491756Y-68650000D01*
X138480138Y-68702405D01*
X138455500Y-68755239D01*
X138449500Y-68800819D01*
X138449500Y-68999174D01*
X138455501Y-69044761D01*
X138480138Y-69097595D01*
X138491756Y-69150000D01*
X138480138Y-69202405D01*
X138455500Y-69255239D01*
X138449500Y-69300819D01*
X138449500Y-69499174D01*
X138455501Y-69544761D01*
X138480138Y-69597595D01*
X138491756Y-69650000D01*
X138480138Y-69702405D01*
X138455500Y-69755239D01*
X138449500Y-69800819D01*
X138449500Y-69999174D01*
X138455501Y-70044761D01*
X138480138Y-70097595D01*
X138491756Y-70150000D01*
X138480138Y-70202405D01*
X138455500Y-70255239D01*
X138449500Y-70300819D01*
X138449501Y-70507303D01*
X138446580Y-70507303D01*
X138441286Y-70551973D01*
X138409040Y-70597586D01*
X138434598Y-70598562D01*
X138487151Y-70629801D01*
X138580199Y-70722849D01*
X138580200Y-70722849D01*
X138580201Y-70722850D01*
X138592830Y-70728739D01*
X138680239Y-70769499D01*
X138687149Y-70770408D01*
X138725821Y-70775500D01*
X139160397Y-70775499D01*
X139160407Y-70775500D01*
X139174840Y-70775500D01*
X140144303Y-70775500D01*
X140200598Y-70789015D01*
X140244621Y-70826615D01*
X140266776Y-70880103D01*
X140278982Y-70957173D01*
X140335140Y-71067391D01*
X140422607Y-71154858D01*
X140422609Y-71154859D01*
X140532825Y-71211017D01*
X140624265Y-71225500D01*
X141025734Y-71225499D01*
X141025735Y-71225499D01*
X141047037Y-71222125D01*
X141108990Y-71212313D01*
X141166705Y-71216855D01*
X141216067Y-71247104D01*
X141403657Y-71434695D01*
X141591190Y-71622228D01*
X141598252Y-71632118D01*
X143736181Y-73770047D01*
X143763061Y-73810275D01*
X143772500Y-73857728D01*
X143772500Y-78842272D01*
X143763061Y-78889725D01*
X143736181Y-78929953D01*
X141519841Y-81146291D01*
X141499988Y-81162415D01*
X141490791Y-81168424D01*
X141471219Y-81193569D01*
X141461061Y-81205072D01*
X141460951Y-81205181D01*
X141448796Y-81222204D01*
X141445739Y-81226304D01*
X141408589Y-81274036D01*
X141408406Y-81274392D01*
X141393344Y-81324983D01*
X141355419Y-81383557D01*
X141291869Y-81412377D01*
X141222818Y-81402315D01*
X141170134Y-81356560D01*
X141150500Y-81289599D01*
X141150500Y-77762230D01*
X141159939Y-77714777D01*
X141186819Y-77674549D01*
X141501840Y-77359528D01*
X142613046Y-76248320D01*
X142632903Y-76232196D01*
X142640669Y-76227123D01*
X142658496Y-76204217D01*
X142668228Y-76193197D01*
X142668370Y-76192997D01*
X142668376Y-76192992D01*
X142679586Y-76177289D01*
X142682600Y-76173247D01*
X142712517Y-76134812D01*
X142712517Y-76134810D01*
X142717107Y-76128914D01*
X142719238Y-76121753D01*
X142719240Y-76121752D01*
X142733129Y-76075098D01*
X142734679Y-76070255D01*
X142750500Y-76024174D01*
X142750500Y-76024170D01*
X142752925Y-76017106D01*
X142752616Y-76009641D01*
X142752617Y-76009640D01*
X142750606Y-75961007D01*
X142750500Y-75955884D01*
X142750500Y-74421027D01*
X142753139Y-74395581D01*
X142753723Y-74392796D01*
X142755043Y-74386500D01*
X142751452Y-74357692D01*
X142750541Y-74343028D01*
X142750500Y-74342782D01*
X142750500Y-74342775D01*
X142747330Y-74323780D01*
X142746595Y-74318734D01*
X142740573Y-74270422D01*
X142740572Y-74270420D01*
X142739648Y-74263006D01*
X142736092Y-74256435D01*
X142736092Y-74256434D01*
X142712925Y-74213626D01*
X142710581Y-74209071D01*
X142685918Y-74158620D01*
X142669051Y-74143093D01*
X142644587Y-74120572D01*
X142640914Y-74117047D01*
X140610823Y-72086956D01*
X140594694Y-72067094D01*
X140589622Y-72059330D01*
X140566718Y-72041504D01*
X140555693Y-72031768D01*
X140539838Y-72020448D01*
X140535729Y-72017384D01*
X140491414Y-71982892D01*
X140437594Y-71966869D01*
X140432716Y-71965306D01*
X140379606Y-71947074D01*
X140323517Y-71949394D01*
X140318393Y-71949500D01*
X138526100Y-71949500D01*
X138478647Y-71940061D01*
X138438419Y-71913181D01*
X138311818Y-71786580D01*
X138284938Y-71746352D01*
X138275499Y-71698903D01*
X138275499Y-70725822D01*
X138275499Y-70717696D01*
X138278482Y-70717696D01*
X138283572Y-70673396D01*
X138315884Y-70627415D01*
X138290306Y-70626409D01*
X138237848Y-70595198D01*
X138144800Y-70502150D01*
X138044760Y-70455500D01*
X137999180Y-70449500D01*
X137800825Y-70449500D01*
X137755236Y-70455501D01*
X137702403Y-70480138D01*
X137649998Y-70491756D01*
X137597594Y-70480138D01*
X137544759Y-70455500D01*
X137499180Y-70449500D01*
X137300825Y-70449500D01*
X137255236Y-70455501D01*
X137202403Y-70480138D01*
X137149998Y-70491756D01*
X137097594Y-70480138D01*
X137044759Y-70455500D01*
X136999180Y-70449500D01*
X136800825Y-70449500D01*
X136755236Y-70455501D01*
X136702403Y-70480138D01*
X136649998Y-70491756D01*
X136597594Y-70480138D01*
X136544759Y-70455500D01*
X136499180Y-70449500D01*
X136300825Y-70449500D01*
X136255236Y-70455501D01*
X136202403Y-70480138D01*
X136149998Y-70491756D01*
X136097594Y-70480138D01*
X136044759Y-70455500D01*
X135999180Y-70449500D01*
X135800825Y-70449500D01*
X135755236Y-70455501D01*
X135702403Y-70480138D01*
X135649998Y-70491756D01*
X135597594Y-70480138D01*
X135544759Y-70455500D01*
X135499180Y-70449500D01*
X135300825Y-70449500D01*
X135255236Y-70455501D01*
X135202403Y-70480138D01*
X135149998Y-70491756D01*
X135097594Y-70480138D01*
X135044759Y-70455500D01*
X134999180Y-70449500D01*
X134800825Y-70449500D01*
X134755236Y-70455501D01*
X134702403Y-70480138D01*
X134649998Y-70491756D01*
X134597594Y-70480138D01*
X134544760Y-70455500D01*
X134499180Y-70449500D01*
X134499179Y-70449500D01*
X134474499Y-70449500D01*
X134412499Y-70432887D01*
X134367112Y-70387500D01*
X134350499Y-70325500D01*
X134350499Y-70300825D01*
X134350499Y-70300822D01*
X134344499Y-70255240D01*
X134319860Y-70202403D01*
X134308243Y-70149998D01*
X134319861Y-70097595D01*
X134344499Y-70044760D01*
X134350500Y-69999179D01*
X134350499Y-69800822D01*
X134344499Y-69755240D01*
X134319860Y-69702403D01*
X134308243Y-69649998D01*
X134319861Y-69597595D01*
X134344499Y-69544760D01*
X134350500Y-69499179D01*
X134350499Y-69300822D01*
X134344499Y-69255240D01*
X134319860Y-69202403D01*
X134308243Y-69149998D01*
X134319861Y-69097595D01*
X134344499Y-69044760D01*
X134350500Y-68999179D01*
X134350499Y-68800822D01*
X134344499Y-68755240D01*
X134297850Y-68655201D01*
X134297849Y-68655200D01*
X134297849Y-68655199D01*
X134219800Y-68577150D01*
X134119760Y-68530500D01*
X134074180Y-68524500D01*
X134074179Y-68524500D01*
X133652009Y-68524500D01*
X133611749Y-68517782D01*
X133608833Y-68516781D01*
X133552513Y-68477270D01*
X133525923Y-68413821D01*
X133537246Y-68345962D01*
X133582997Y-68294583D01*
X133649091Y-68275499D01*
X134074178Y-68275499D01*
X134119760Y-68269499D01*
X134219799Y-68222850D01*
X134297850Y-68144799D01*
X134344499Y-68044760D01*
X134350500Y-67999179D01*
X134350499Y-67800822D01*
X134344499Y-67755240D01*
X134319860Y-67702403D01*
X134308243Y-67649998D01*
X134319861Y-67597595D01*
X134344499Y-67544760D01*
X134350500Y-67499179D01*
X134350499Y-67300822D01*
X134344499Y-67255240D01*
X134319860Y-67202403D01*
X134308243Y-67149998D01*
X134319861Y-67097595D01*
X134344499Y-67044760D01*
X134350500Y-66999179D01*
X134350499Y-66800822D01*
X134344499Y-66755240D01*
X134319860Y-66702403D01*
X134308243Y-66649998D01*
X134319861Y-66597595D01*
X134344499Y-66544760D01*
X134350500Y-66499179D01*
X134350499Y-66300822D01*
X134350499Y-66292697D01*
X134353481Y-66292696D01*
X134358572Y-66248396D01*
X134390884Y-66202415D01*
X134365306Y-66201409D01*
X134312848Y-66170198D01*
X134219800Y-66077150D01*
X134119760Y-66030500D01*
X134074180Y-66024500D01*
X133079966Y-66024500D01*
X133032513Y-66015061D01*
X132992285Y-65988181D01*
X132671060Y-65666956D01*
X132654931Y-65647094D01*
X132649859Y-65639330D01*
X132626955Y-65621504D01*
X132615930Y-65611768D01*
X132600075Y-65600448D01*
X132595966Y-65597384D01*
X132551651Y-65562892D01*
X132497831Y-65546869D01*
X132492953Y-65545306D01*
X132439842Y-65527073D01*
X132404861Y-65528520D01*
X132354663Y-65520143D01*
X132312058Y-65492307D01*
X132239892Y-65420141D01*
X132129673Y-65363982D01*
X132038237Y-65349500D01*
X131636768Y-65349500D01*
X131571703Y-65359805D01*
X131545325Y-65363983D01*
X131545324Y-65363983D01*
X131533779Y-65365812D01*
X131476063Y-65361269D01*
X131426701Y-65331019D01*
X131380689Y-65285007D01*
X131351153Y-65237774D01*
X131345274Y-65182382D01*
X131355278Y-65100000D01*
X131336237Y-64943182D01*
X131280220Y-64795477D01*
X131217423Y-64704500D01*
X131190484Y-64665471D01*
X131173585Y-64650500D01*
X131072240Y-64560717D01*
X131058994Y-64553765D01*
X130932364Y-64487303D01*
X130778985Y-64449500D01*
X130621015Y-64449500D01*
X130467635Y-64487303D01*
X130327761Y-64560716D01*
X130209515Y-64665471D01*
X130119780Y-64795476D01*
X130063763Y-64943181D01*
X130056749Y-65000947D01*
X130035703Y-65056440D01*
X129991279Y-65095797D01*
X129933653Y-65110000D01*
X129923067Y-65110000D01*
X129905185Y-65107394D01*
X129844759Y-65109894D01*
X129839634Y-65110000D01*
X129774500Y-65110000D01*
X129712500Y-65093387D01*
X129667113Y-65048000D01*
X129650500Y-64986000D01*
X129650500Y-64962825D01*
X129635966Y-64889761D01*
X129635966Y-64889760D01*
X129580601Y-64806899D01*
X129497740Y-64751534D01*
X129497739Y-64751533D01*
X129497738Y-64751533D01*
X129424675Y-64737000D01*
X129424674Y-64737000D01*
X128904613Y-64737000D01*
X128848318Y-64723485D01*
X128804295Y-64685885D01*
X128782140Y-64632398D01*
X128786682Y-64574682D01*
X128816932Y-64525319D01*
X128839858Y-64502392D01*
X128847546Y-64487304D01*
X128896017Y-64392175D01*
X128910500Y-64300735D01*
X128910499Y-63899266D01*
X128910499Y-63899265D01*
X128910499Y-63899262D01*
X128896017Y-63807825D01*
X128839859Y-63697608D01*
X128752392Y-63610141D01*
X128642173Y-63553982D01*
X128550737Y-63539500D01*
X128209262Y-63539500D01*
X128117825Y-63553982D01*
X128007608Y-63610140D01*
X127920141Y-63697607D01*
X127863982Y-63807826D01*
X127849500Y-63899262D01*
X127849500Y-64300737D01*
X127863982Y-64392174D01*
X127920140Y-64502391D01*
X127943068Y-64525319D01*
X127973318Y-64574682D01*
X127977860Y-64632398D01*
X127955705Y-64685885D01*
X127911682Y-64723485D01*
X127855387Y-64737000D01*
X127575325Y-64737000D01*
X127502261Y-64751533D01*
X127419399Y-64806899D01*
X127364033Y-64889761D01*
X127349500Y-64962825D01*
X127349500Y-66012175D01*
X127364033Y-66085238D01*
X127364033Y-66085239D01*
X127364034Y-66085240D01*
X127419399Y-66168101D01*
X127502260Y-66223466D01*
X127538793Y-66230733D01*
X127575325Y-66238000D01*
X127575326Y-66238000D01*
X129424674Y-66238000D01*
X129424675Y-66238000D01*
X129449029Y-66233155D01*
X129497740Y-66223466D01*
X129580601Y-66168101D01*
X129635966Y-66085240D01*
X129636816Y-66080965D01*
X129666553Y-66021887D01*
X129722435Y-65986499D01*
X129788561Y-65984875D01*
X129846112Y-66017477D01*
X130410745Y-66582111D01*
X130440754Y-66630742D01*
X130445767Y-66687668D01*
X130424719Y-66740797D01*
X130382080Y-66778845D01*
X130341963Y-66800555D01*
X130337408Y-66802900D01*
X130283068Y-66829465D01*
X130282737Y-66829712D01*
X130241780Y-66874203D01*
X130238233Y-66877899D01*
X129779018Y-67337115D01*
X129733111Y-67366186D01*
X129679182Y-67372837D01*
X129627587Y-67355792D01*
X129588234Y-67318323D01*
X129583220Y-67310819D01*
X129580601Y-67306899D01*
X129497740Y-67251534D01*
X129497739Y-67251533D01*
X129497738Y-67251533D01*
X129424675Y-67237000D01*
X129424674Y-67237000D01*
X127575326Y-67237000D01*
X127575325Y-67237000D01*
X127502261Y-67251533D01*
X127419399Y-67306899D01*
X127364033Y-67389761D01*
X127349500Y-67462825D01*
X127349500Y-68512175D01*
X127364033Y-68585238D01*
X127364033Y-68585239D01*
X127364034Y-68585240D01*
X127419399Y-68668101D01*
X127502260Y-68723466D01*
X127538792Y-68730732D01*
X127575325Y-68738000D01*
X127575326Y-68738000D01*
X127799116Y-68738000D01*
X127859705Y-68753810D01*
X127904843Y-68797210D01*
X127923020Y-68857132D01*
X127909601Y-68918295D01*
X127863982Y-69007826D01*
X127849500Y-69099262D01*
X127849500Y-69500737D01*
X127863982Y-69592174D01*
X127920140Y-69702391D01*
X128007607Y-69789858D01*
X128007609Y-69789859D01*
X128117825Y-69846017D01*
X128209265Y-69860500D01*
X128550734Y-69860499D01*
X128550737Y-69860499D01*
X128619314Y-69849637D01*
X128642175Y-69846017D01*
X128752391Y-69789859D01*
X128839859Y-69702391D01*
X128896017Y-69592175D01*
X128910500Y-69500735D01*
X128910499Y-69099266D01*
X128910499Y-69099265D01*
X128910499Y-69099262D01*
X128896017Y-69007825D01*
X128864015Y-68945017D01*
X128850500Y-68888723D01*
X128850500Y-68862000D01*
X128867113Y-68800000D01*
X128912500Y-68754613D01*
X128974500Y-68738000D01*
X129424675Y-68738000D01*
X129449029Y-68733155D01*
X129497740Y-68723466D01*
X129580601Y-68668101D01*
X129635966Y-68585240D01*
X129646320Y-68533190D01*
X129650500Y-68512175D01*
X129650500Y-68478921D01*
X129664643Y-68421411D01*
X129703845Y-68377020D01*
X129759164Y-68355873D01*
X129766183Y-68354997D01*
X129771703Y-68354310D01*
X129771703Y-68354309D01*
X129779507Y-68353337D01*
X129779844Y-68353229D01*
X129786764Y-68349483D01*
X129786769Y-68349483D01*
X129833104Y-68324406D01*
X129837569Y-68322108D01*
X129884889Y-68298976D01*
X129884892Y-68298972D01*
X129891961Y-68295517D01*
X129892240Y-68295310D01*
X129897568Y-68289521D01*
X129897571Y-68289520D01*
X129933254Y-68250756D01*
X129936755Y-68247108D01*
X130632545Y-67551319D01*
X130672774Y-67524439D01*
X130720227Y-67515000D01*
X131289955Y-67515000D01*
X131346250Y-67528515D01*
X131390273Y-67566115D01*
X131412428Y-67619602D01*
X131407886Y-67677318D01*
X131377636Y-67726681D01*
X128391137Y-70713181D01*
X128350909Y-70740061D01*
X128303456Y-70749500D01*
X127096543Y-70749500D01*
X127049090Y-70740061D01*
X127008862Y-70713181D01*
X125686819Y-69391137D01*
X125659939Y-69350909D01*
X125650500Y-69303456D01*
X125650500Y-68643112D01*
X125659939Y-68595659D01*
X125686816Y-68555433D01*
X125739859Y-68502391D01*
X125796017Y-68392175D01*
X125810500Y-68300735D01*
X125810499Y-67899266D01*
X125810499Y-67899265D01*
X125810499Y-67899262D01*
X125796017Y-67807825D01*
X125739860Y-67697610D01*
X125719568Y-67677318D01*
X125686816Y-67644566D01*
X125659939Y-67604341D01*
X125650500Y-67556888D01*
X125650500Y-62496544D01*
X125659939Y-62449091D01*
X125686819Y-62408863D01*
X126508862Y-61586819D01*
X126549090Y-61559939D01*
X126596543Y-61550500D01*
X138704455Y-61550500D01*
X138760750Y-61564015D01*
G37*
%TD.AperFunction*%
%TA.AperFunction,Conductor*%
G36*
X143950909Y-63259939D02*
G01*
X143991137Y-63286819D01*
X145927361Y-65223043D01*
X145943489Y-65242903D01*
X145948563Y-65250669D01*
X145971473Y-65268500D01*
X145982496Y-65278235D01*
X145998355Y-65289558D01*
X146002464Y-65292622D01*
X146046771Y-65327107D01*
X146053932Y-65329239D01*
X146053934Y-65329240D01*
X146100614Y-65343137D01*
X146105455Y-65344688D01*
X146151512Y-65360500D01*
X146151514Y-65360500D01*
X146158578Y-65362925D01*
X146166044Y-65362616D01*
X146166047Y-65362617D01*
X146214678Y-65360606D01*
X146219802Y-65360500D01*
X147538950Y-65360500D01*
X147593794Y-65373288D01*
X147637326Y-65409014D01*
X147660567Y-65460309D01*
X147664033Y-65477738D01*
X147664033Y-65477739D01*
X147664034Y-65477740D01*
X147709735Y-65546138D01*
X147729762Y-65576110D01*
X147748276Y-65620809D01*
X147748276Y-65669191D01*
X147729762Y-65713890D01*
X147664033Y-65812261D01*
X147660567Y-65829691D01*
X147637326Y-65880986D01*
X147593794Y-65916712D01*
X147538950Y-65929500D01*
X144219207Y-65929500D01*
X144193761Y-65926861D01*
X144184685Y-65924958D01*
X144155884Y-65928548D01*
X144141203Y-65929459D01*
X144121986Y-65932665D01*
X144116924Y-65933402D01*
X144061192Y-65940350D01*
X144011813Y-65967072D01*
X144007261Y-65969415D01*
X143956804Y-65994082D01*
X143918780Y-66035387D01*
X143915233Y-66039083D01*
X142941137Y-67013181D01*
X142900909Y-67040061D01*
X142853456Y-67049500D01*
X142624793Y-67049500D01*
X142567167Y-67035297D01*
X142522743Y-66995940D01*
X142501697Y-66940447D01*
X142508851Y-66881529D01*
X142532478Y-66847299D01*
X142531930Y-66846921D01*
X142543195Y-66830601D01*
X142630220Y-66704523D01*
X142686237Y-66556818D01*
X142705278Y-66400000D01*
X142690640Y-66279445D01*
X142701708Y-66211341D01*
X142747462Y-66159695D01*
X142813736Y-66140499D01*
X142950737Y-66140499D01*
X143019314Y-66129637D01*
X143042175Y-66126017D01*
X143152391Y-66069859D01*
X143239859Y-65982391D01*
X143296017Y-65872175D01*
X143310500Y-65780735D01*
X143310499Y-65439266D01*
X143310499Y-65439262D01*
X143296017Y-65347825D01*
X143239859Y-65237608D01*
X143152392Y-65150141D01*
X143042173Y-65093982D01*
X142950737Y-65079500D01*
X142950735Y-65079500D01*
X142684509Y-65079500D01*
X142672521Y-65077500D01*
X142668067Y-65077500D01*
X142650185Y-65074894D01*
X142589759Y-65077394D01*
X142584634Y-65077500D01*
X141805362Y-65077500D01*
X141756550Y-65067488D01*
X141715619Y-65039070D01*
X141689181Y-64996836D01*
X141671628Y-64949774D01*
X141671626Y-64949771D01*
X141589687Y-64840312D01*
X141480226Y-64758372D01*
X141352116Y-64710588D01*
X141333237Y-64708558D01*
X141295485Y-64704500D01*
X141295481Y-64704500D01*
X140704517Y-64704500D01*
X140647882Y-64710588D01*
X140519774Y-64758371D01*
X140410312Y-64840312D01*
X140328373Y-64949771D01*
X140328371Y-64949774D01*
X140328372Y-64949774D01*
X140310818Y-64996836D01*
X140284381Y-65039070D01*
X140243450Y-65067488D01*
X140194638Y-65077500D01*
X140027012Y-65077500D01*
X140001566Y-65074861D01*
X139990816Y-65072607D01*
X139959199Y-65076548D01*
X139943862Y-65077500D01*
X139943719Y-65077500D01*
X139923101Y-65080939D01*
X139918049Y-65081675D01*
X139858030Y-65089157D01*
X139857620Y-65089288D01*
X139804461Y-65118056D01*
X139799908Y-65120400D01*
X139745568Y-65146965D01*
X139745237Y-65147212D01*
X139704280Y-65191703D01*
X139700733Y-65195399D01*
X139007341Y-65888791D01*
X138987489Y-65904914D01*
X138978291Y-65910924D01*
X138978290Y-65910924D01*
X138967328Y-65918088D01*
X138904630Y-65938178D01*
X138840486Y-65923341D01*
X138792978Y-65877760D01*
X138775499Y-65814284D01*
X138775499Y-65050825D01*
X138775499Y-65050822D01*
X138769499Y-65005240D01*
X138762118Y-64989411D01*
X138750500Y-64937006D01*
X138750500Y-64446544D01*
X138759939Y-64399091D01*
X138786819Y-64358863D01*
X139858863Y-63286819D01*
X139899091Y-63259939D01*
X139946544Y-63250500D01*
X143903456Y-63250500D01*
X143950909Y-63259939D01*
G37*
%TD.AperFunction*%
%TA.AperFunction,Conductor*%
G36*
X144844062Y-61564704D02*
G01*
X144888484Y-61604058D01*
X144909517Y-61634530D01*
X145027760Y-61739283D01*
X145167635Y-61812696D01*
X145321015Y-61850500D01*
X145478985Y-61850500D01*
X145632365Y-61812696D01*
X145772240Y-61739283D01*
X145890483Y-61634530D01*
X145911515Y-61604058D01*
X145955938Y-61564704D01*
X146013564Y-61550500D01*
X147538950Y-61550500D01*
X147593794Y-61563288D01*
X147637326Y-61599014D01*
X147660567Y-61650309D01*
X147664033Y-61667738D01*
X147729762Y-61766110D01*
X147748276Y-61810809D01*
X147748276Y-61859191D01*
X147729762Y-61903890D01*
X147664033Y-62002261D01*
X147649500Y-62075325D01*
X147649500Y-62864675D01*
X147664033Y-62937738D01*
X147664033Y-62937739D01*
X147664034Y-62937740D01*
X147719398Y-63020600D01*
X147729762Y-63036110D01*
X147748276Y-63080809D01*
X147748276Y-63129191D01*
X147729762Y-63173890D01*
X147664033Y-63272261D01*
X147660567Y-63289691D01*
X147637326Y-63340986D01*
X147593794Y-63376712D01*
X147538950Y-63389500D01*
X146236543Y-63389500D01*
X146189090Y-63380061D01*
X146148862Y-63353181D01*
X144557863Y-61762181D01*
X144527613Y-61712818D01*
X144523071Y-61655102D01*
X144545226Y-61601615D01*
X144589249Y-61564015D01*
X144645544Y-61550500D01*
X144786436Y-61550500D01*
X144844062Y-61564704D01*
G37*
%TD.AperFunction*%
%TA.AperFunction,Conductor*%
G36*
X156002854Y-55200632D02*
G01*
X156018811Y-55201369D01*
X156173088Y-55208502D01*
X156369795Y-55218166D01*
X156380787Y-55219201D01*
X156562876Y-55244601D01*
X156563781Y-55244732D01*
X156747261Y-55271949D01*
X156757413Y-55273892D01*
X156938614Y-55316510D01*
X156940023Y-55316852D01*
X157117874Y-55361401D01*
X157127091Y-55364096D01*
X157304478Y-55423550D01*
X157306618Y-55424292D01*
X157478220Y-55485692D01*
X157486519Y-55489004D01*
X157657980Y-55564712D01*
X157660909Y-55566051D01*
X157747263Y-55606892D01*
X157825119Y-55643715D01*
X157832411Y-55647465D01*
X157929135Y-55701341D01*
X157996435Y-55738827D01*
X157999810Y-55740777D01*
X158155371Y-55834017D01*
X158161670Y-55838058D01*
X158316699Y-55944256D01*
X158320459Y-55946935D01*
X158466009Y-56054882D01*
X158471305Y-56059040D01*
X158616009Y-56179200D01*
X158619947Y-56182617D01*
X158754206Y-56304303D01*
X158758590Y-56308478D01*
X158891520Y-56441408D01*
X158895698Y-56445795D01*
X159017375Y-56580045D01*
X159020805Y-56583998D01*
X159140951Y-56728684D01*
X159145124Y-56734000D01*
X159253041Y-56879509D01*
X159255742Y-56883299D01*
X159361940Y-57038328D01*
X159365999Y-57044656D01*
X159459200Y-57200153D01*
X159461171Y-57203563D01*
X159552525Y-57367573D01*
X159556291Y-57374896D01*
X159633947Y-57539089D01*
X159635286Y-57542018D01*
X159710994Y-57713479D01*
X159714311Y-57721791D01*
X159775666Y-57893265D01*
X159776487Y-57895634D01*
X159835894Y-58072881D01*
X159838606Y-58082157D01*
X159883104Y-58259803D01*
X159883526Y-58261543D01*
X159926101Y-58442562D01*
X159928053Y-58452758D01*
X159955257Y-58636156D01*
X159955410Y-58637218D01*
X159980794Y-58819184D01*
X159981834Y-58830232D01*
X159991512Y-59027238D01*
X159991529Y-59027595D01*
X159999368Y-59197145D01*
X159999500Y-59202872D01*
X159999500Y-101197145D01*
X159999369Y-101202846D01*
X159991510Y-101373591D01*
X159991493Y-101373947D01*
X159982001Y-101568041D01*
X159980971Y-101579039D01*
X159955706Y-101760990D01*
X159955554Y-101762048D01*
X159928712Y-101943839D01*
X159926778Y-101953990D01*
X159884448Y-102134813D01*
X159884029Y-102136545D01*
X159840070Y-102312870D01*
X159837382Y-102322108D01*
X159778387Y-102498983D01*
X159777574Y-102501341D01*
X159716874Y-102671823D01*
X159713586Y-102680104D01*
X159638429Y-102851186D01*
X159637102Y-102854105D01*
X159560252Y-103017436D01*
X159556519Y-103024734D01*
X159465813Y-103188467D01*
X159463859Y-103191865D01*
X159371593Y-103346659D01*
X159367569Y-103352969D01*
X159262144Y-103507772D01*
X159259464Y-103511553D01*
X159152607Y-103656505D01*
X159148442Y-103661843D01*
X159029197Y-103806364D01*
X159025707Y-103810414D01*
X158905248Y-103944213D01*
X158901085Y-103948616D01*
X158769064Y-104081577D01*
X158764692Y-104085770D01*
X158631739Y-104207190D01*
X158627714Y-104210709D01*
X158484073Y-104330953D01*
X158478765Y-104335156D01*
X158334535Y-104443071D01*
X158330773Y-104445777D01*
X158176756Y-104552277D01*
X158170475Y-104556346D01*
X158016310Y-104649729D01*
X158012925Y-104651707D01*
X157849867Y-104743560D01*
X157842596Y-104747345D01*
X157679830Y-104825346D01*
X157676921Y-104826694D01*
X157506353Y-104903076D01*
X157498095Y-104906423D01*
X157328076Y-104968323D01*
X157325724Y-104969153D01*
X157149248Y-105029412D01*
X157140029Y-105032165D01*
X156963951Y-105077394D01*
X156962222Y-105077825D01*
X156871549Y-105099732D01*
X156842552Y-105103200D01*
X113386855Y-105146569D01*
X113368537Y-105145227D01*
X113252757Y-105128053D01*
X113242561Y-105126101D01*
X113061543Y-105083526D01*
X113059803Y-105083104D01*
X112882157Y-105038606D01*
X112872881Y-105035894D01*
X112695634Y-104976487D01*
X112693265Y-104975666D01*
X112521791Y-104914311D01*
X112513479Y-104910994D01*
X112342018Y-104835286D01*
X112339089Y-104833947D01*
X112174896Y-104756291D01*
X112167573Y-104752525D01*
X112003563Y-104661171D01*
X112000153Y-104659200D01*
X111980648Y-104647509D01*
X111844645Y-104565992D01*
X111838328Y-104561940D01*
X111683299Y-104455742D01*
X111679509Y-104453041D01*
X111666066Y-104443071D01*
X111534000Y-104345124D01*
X111528684Y-104340951D01*
X111383998Y-104220805D01*
X111380045Y-104217375D01*
X111245795Y-104095698D01*
X111241408Y-104091520D01*
X111108478Y-103958590D01*
X111104303Y-103954206D01*
X110982617Y-103819947D01*
X110979200Y-103816009D01*
X110859040Y-103671305D01*
X110854882Y-103666009D01*
X110746935Y-103520459D01*
X110744256Y-103516699D01*
X110638058Y-103361670D01*
X110634017Y-103355371D01*
X110540777Y-103199810D01*
X110538827Y-103196435D01*
X110447465Y-103032411D01*
X110443715Y-103025119D01*
X110389769Y-102911058D01*
X110366051Y-102860909D01*
X110364712Y-102857980D01*
X110289004Y-102686519D01*
X110285692Y-102678220D01*
X110224292Y-102506618D01*
X110223550Y-102504478D01*
X110164096Y-102327091D01*
X110161401Y-102317874D01*
X110116852Y-102140023D01*
X110116510Y-102138614D01*
X110073892Y-101957413D01*
X110071949Y-101947261D01*
X110044732Y-101763781D01*
X110044588Y-101762780D01*
X110044486Y-101762048D01*
X110019201Y-101580787D01*
X110018166Y-101569795D01*
X110008480Y-101372611D01*
X110001322Y-101217764D01*
X112095787Y-101217764D01*
X112125413Y-101487016D01*
X112149471Y-101579039D01*
X112193928Y-101749088D01*
X112299870Y-101998390D01*
X112299871Y-101998392D01*
X112440982Y-102229611D01*
X112614253Y-102437818D01*
X112614255Y-102437820D01*
X112815998Y-102618582D01*
X113041910Y-102768044D01*
X113133027Y-102810758D01*
X113287177Y-102883021D01*
X113511469Y-102950500D01*
X113546569Y-102961060D01*
X113814561Y-103000500D01*
X114017631Y-103000500D01*
X114017634Y-103000500D01*
X114220156Y-102985677D01*
X114233381Y-102982731D01*
X114484553Y-102926780D01*
X114737558Y-102830014D01*
X114973777Y-102697441D01*
X115188177Y-102531888D01*
X115376186Y-102336881D01*
X115523247Y-102131328D01*
X118795709Y-102131328D01*
X118825925Y-102354388D01*
X118883598Y-102531888D01*
X118895483Y-102568464D01*
X119002148Y-102766681D01*
X119142492Y-102942666D01*
X119312004Y-103090765D01*
X119312006Y-103090766D01*
X119505237Y-103206216D01*
X119623214Y-103250493D01*
X119715976Y-103285307D01*
X119937453Y-103325500D01*
X120106153Y-103325500D01*
X120106155Y-103325500D01*
X120274188Y-103310377D01*
X120491170Y-103250493D01*
X120693973Y-103152829D01*
X120876078Y-103020522D01*
X121031632Y-102857825D01*
X121155635Y-102669968D01*
X121244103Y-102462988D01*
X121294191Y-102243537D01*
X121299230Y-102131328D01*
X122795709Y-102131328D01*
X122825925Y-102354388D01*
X122883598Y-102531888D01*
X122895483Y-102568464D01*
X123002148Y-102766681D01*
X123142492Y-102942666D01*
X123312004Y-103090765D01*
X123312006Y-103090766D01*
X123505237Y-103206216D01*
X123623214Y-103250493D01*
X123715976Y-103285307D01*
X123937453Y-103325500D01*
X124106153Y-103325500D01*
X124106155Y-103325500D01*
X124274188Y-103310377D01*
X124491170Y-103250493D01*
X124693973Y-103152829D01*
X124876078Y-103020522D01*
X125031632Y-102857825D01*
X125155635Y-102669968D01*
X125244103Y-102462988D01*
X125294191Y-102243537D01*
X125299230Y-102131328D01*
X144695709Y-102131328D01*
X144725925Y-102354388D01*
X144783598Y-102531888D01*
X144795483Y-102568464D01*
X144902148Y-102766681D01*
X145042492Y-102942666D01*
X145212004Y-103090765D01*
X145212006Y-103090766D01*
X145405237Y-103206216D01*
X145523214Y-103250493D01*
X145615976Y-103285307D01*
X145837453Y-103325500D01*
X146006153Y-103325500D01*
X146006155Y-103325500D01*
X146174188Y-103310377D01*
X146391170Y-103250493D01*
X146593973Y-103152829D01*
X146776078Y-103020522D01*
X146931632Y-102857825D01*
X147055635Y-102669968D01*
X147144103Y-102462988D01*
X147194191Y-102243537D01*
X147199230Y-102131328D01*
X148695709Y-102131328D01*
X148725925Y-102354388D01*
X148783598Y-102531888D01*
X148795483Y-102568464D01*
X148902148Y-102766681D01*
X149042492Y-102942666D01*
X149212004Y-103090765D01*
X149212006Y-103090766D01*
X149405237Y-103206216D01*
X149523214Y-103250493D01*
X149615976Y-103285307D01*
X149837453Y-103325500D01*
X150006153Y-103325500D01*
X150006155Y-103325500D01*
X150174188Y-103310377D01*
X150391170Y-103250493D01*
X150593973Y-103152829D01*
X150776078Y-103020522D01*
X150931632Y-102857825D01*
X151055635Y-102669968D01*
X151144103Y-102462988D01*
X151194191Y-102243537D01*
X151204290Y-102018670D01*
X151174075Y-101795613D01*
X151104517Y-101581536D01*
X150997852Y-101383319D01*
X150877737Y-101232701D01*
X150857509Y-101207335D01*
X150852371Y-101202846D01*
X150812217Y-101167764D01*
X154195787Y-101167764D01*
X154225413Y-101437016D01*
X154259493Y-101567372D01*
X154293928Y-101699088D01*
X154382053Y-101906462D01*
X154399871Y-101948392D01*
X154540982Y-102179611D01*
X154714253Y-102387818D01*
X154714255Y-102387820D01*
X154915998Y-102568582D01*
X155141910Y-102718044D01*
X155245662Y-102766681D01*
X155387177Y-102833021D01*
X155646562Y-102911058D01*
X155646569Y-102911060D01*
X155914561Y-102950500D01*
X156117631Y-102950500D01*
X156117634Y-102950500D01*
X156320156Y-102935677D01*
X156320155Y-102935677D01*
X156584553Y-102876780D01*
X156837558Y-102780014D01*
X157073777Y-102647441D01*
X157288177Y-102481888D01*
X157476186Y-102286881D01*
X157633799Y-102066579D01*
X157757656Y-101825675D01*
X157845118Y-101569305D01*
X157894319Y-101302933D01*
X157904212Y-101032235D01*
X157874586Y-100762982D01*
X157806072Y-100500912D01*
X157700130Y-100251610D01*
X157589533Y-100070390D01*
X157559017Y-100020388D01*
X157385746Y-99812181D01*
X157280758Y-99718112D01*
X157184002Y-99631418D01*
X156958090Y-99481956D01*
X156932556Y-99469986D01*
X156712822Y-99366978D01*
X156453437Y-99288941D01*
X156453431Y-99288940D01*
X156185439Y-99249500D01*
X155982369Y-99249500D01*
X155982366Y-99249500D01*
X155779843Y-99264322D01*
X155515449Y-99323219D01*
X155262441Y-99419986D01*
X155026223Y-99552559D01*
X154811825Y-99718109D01*
X154623813Y-99913120D01*
X154466201Y-100133420D01*
X154342342Y-100374329D01*
X154254881Y-100630695D01*
X154205680Y-100897066D01*
X154195787Y-101167764D01*
X150812217Y-101167764D01*
X150687996Y-101059235D01*
X150687993Y-101059233D01*
X150494762Y-100943783D01*
X150284025Y-100864693D01*
X150062547Y-100824500D01*
X149893845Y-100824500D01*
X149826631Y-100830549D01*
X149725809Y-100839623D01*
X149508828Y-100899507D01*
X149306027Y-100997170D01*
X149123925Y-101129475D01*
X148968365Y-101292178D01*
X148844365Y-101480031D01*
X148755896Y-101687012D01*
X148705809Y-101906462D01*
X148695709Y-102131328D01*
X147199230Y-102131328D01*
X147204290Y-102018670D01*
X147174075Y-101795613D01*
X147104517Y-101581536D01*
X146997852Y-101383319D01*
X146877737Y-101232701D01*
X146857509Y-101207335D01*
X146852371Y-101202846D01*
X146687996Y-101059235D01*
X146687993Y-101059233D01*
X146494762Y-100943783D01*
X146284025Y-100864693D01*
X146062547Y-100824500D01*
X145893845Y-100824500D01*
X145826631Y-100830549D01*
X145725809Y-100839623D01*
X145508828Y-100899507D01*
X145306027Y-100997170D01*
X145123925Y-101129475D01*
X144968365Y-101292178D01*
X144844365Y-101480031D01*
X144755896Y-101687012D01*
X144705809Y-101906462D01*
X144695709Y-102131328D01*
X125299230Y-102131328D01*
X125304290Y-102018670D01*
X125274075Y-101795613D01*
X125204517Y-101581536D01*
X125097852Y-101383319D01*
X124977737Y-101232701D01*
X124957509Y-101207335D01*
X124952371Y-101202846D01*
X124787996Y-101059235D01*
X124787993Y-101059233D01*
X124594762Y-100943783D01*
X124384025Y-100864693D01*
X124162547Y-100824500D01*
X123993845Y-100824500D01*
X123926631Y-100830549D01*
X123825809Y-100839623D01*
X123608828Y-100899507D01*
X123406027Y-100997170D01*
X123223925Y-101129475D01*
X123068365Y-101292178D01*
X122944365Y-101480031D01*
X122855896Y-101687012D01*
X122805809Y-101906462D01*
X122795709Y-102131328D01*
X121299230Y-102131328D01*
X121304290Y-102018670D01*
X121274075Y-101795613D01*
X121204517Y-101581536D01*
X121097852Y-101383319D01*
X120977737Y-101232701D01*
X120957509Y-101207335D01*
X120952371Y-101202846D01*
X120787996Y-101059235D01*
X120787993Y-101059233D01*
X120594762Y-100943783D01*
X120384025Y-100864693D01*
X120162547Y-100824500D01*
X119993845Y-100824500D01*
X119926631Y-100830549D01*
X119825809Y-100839623D01*
X119608828Y-100899507D01*
X119406027Y-100997170D01*
X119223925Y-101129475D01*
X119068365Y-101292178D01*
X118944365Y-101480031D01*
X118855896Y-101687012D01*
X118805809Y-101906462D01*
X118795709Y-102131328D01*
X115523247Y-102131328D01*
X115533799Y-102116579D01*
X115657656Y-101875675D01*
X115745118Y-101619305D01*
X115794319Y-101352933D01*
X115804212Y-101082235D01*
X115774586Y-100812982D01*
X115706072Y-100550912D01*
X115600130Y-100301610D01*
X115527999Y-100183420D01*
X115459017Y-100070388D01*
X115285746Y-99862181D01*
X115229941Y-99812180D01*
X115084002Y-99681418D01*
X114858090Y-99531956D01*
X114858086Y-99531954D01*
X114612822Y-99416978D01*
X114353437Y-99338941D01*
X114353431Y-99338940D01*
X114085439Y-99299500D01*
X113882369Y-99299500D01*
X113882366Y-99299500D01*
X113679843Y-99314322D01*
X113415449Y-99373219D01*
X113162441Y-99469986D01*
X112926223Y-99602559D01*
X112711825Y-99768109D01*
X112523813Y-99963120D01*
X112366201Y-100183420D01*
X112242342Y-100424329D01*
X112154881Y-100680695D01*
X112105680Y-100947066D01*
X112095787Y-101217764D01*
X110001322Y-101217764D01*
X110000632Y-101202846D01*
X110000500Y-101197128D01*
X110000500Y-78824675D01*
X111849500Y-78824675D01*
X111864033Y-78897738D01*
X111864033Y-78897739D01*
X111864034Y-78897740D01*
X111919399Y-78980601D01*
X112002260Y-79035966D01*
X112036842Y-79042845D01*
X112075325Y-79050500D01*
X112075326Y-79050500D01*
X113524674Y-79050500D01*
X113524675Y-79050500D01*
X113553586Y-79044749D01*
X113597740Y-79035966D01*
X113680601Y-78980601D01*
X113735966Y-78897740D01*
X113746960Y-78842470D01*
X113750500Y-78824675D01*
X113750500Y-77175325D01*
X113735966Y-77102261D01*
X113735966Y-77102260D01*
X113680601Y-77019399D01*
X113597740Y-76964034D01*
X113597739Y-76964033D01*
X113597738Y-76964033D01*
X113524675Y-76949500D01*
X113524674Y-76949500D01*
X113274500Y-76949500D01*
X113212500Y-76932887D01*
X113167113Y-76887500D01*
X113150500Y-76825500D01*
X113150500Y-75178138D01*
X113168383Y-75113989D01*
X113216873Y-75068342D01*
X113217180Y-75068181D01*
X113272240Y-75039283D01*
X113390483Y-74934530D01*
X113480220Y-74804523D01*
X113536237Y-74656818D01*
X113555278Y-74500000D01*
X113554015Y-74489602D01*
X113545689Y-74421027D01*
X113536237Y-74343182D01*
X113480220Y-74195477D01*
X113399555Y-74078613D01*
X113390484Y-74065471D01*
X113376495Y-74053078D01*
X113272240Y-73960717D01*
X113216872Y-73931657D01*
X113168383Y-73886011D01*
X113150500Y-73821862D01*
X113150500Y-71974500D01*
X113167113Y-71912500D01*
X113212500Y-71867113D01*
X113274500Y-71850500D01*
X113524675Y-71850500D01*
X113559186Y-71843635D01*
X113597740Y-71835966D01*
X113680601Y-71780601D01*
X113735966Y-71697740D01*
X113750500Y-71624674D01*
X113750500Y-69975326D01*
X113735966Y-69902260D01*
X113680601Y-69819399D01*
X113597740Y-69764034D01*
X113597737Y-69764033D01*
X113590894Y-69759461D01*
X113542359Y-69735028D01*
X113506974Y-69679146D01*
X113505352Y-69613022D01*
X113537950Y-69555476D01*
X113696612Y-69396814D01*
X113736837Y-69369938D01*
X113784290Y-69360499D01*
X113940737Y-69360499D01*
X114009314Y-69349637D01*
X114032175Y-69346017D01*
X114142391Y-69289859D01*
X114142392Y-69289858D01*
X114162319Y-69269932D01*
X114217906Y-69237838D01*
X114282094Y-69237838D01*
X114337681Y-69269932D01*
X114357607Y-69289858D01*
X114357609Y-69289859D01*
X114467825Y-69346017D01*
X114559265Y-69360500D01*
X114743455Y-69360499D01*
X114790907Y-69369938D01*
X114831136Y-69396818D01*
X115012968Y-69578650D01*
X115042038Y-69624557D01*
X115048690Y-69678485D01*
X115031645Y-69730080D01*
X114994178Y-69769433D01*
X114919400Y-69819398D01*
X114864033Y-69902261D01*
X114849500Y-69975325D01*
X114849500Y-71624675D01*
X114864033Y-71697738D01*
X114864033Y-71697739D01*
X114864034Y-71697740D01*
X114919399Y-71780601D01*
X115002260Y-71835966D01*
X115038792Y-71843232D01*
X115075325Y-71850500D01*
X115075326Y-71850500D01*
X115325500Y-71850500D01*
X115387500Y-71867113D01*
X115432887Y-71912500D01*
X115449500Y-71974500D01*
X115449500Y-76825500D01*
X115432887Y-76887500D01*
X115387500Y-76932887D01*
X115325500Y-76949500D01*
X115075325Y-76949500D01*
X115002261Y-76964033D01*
X114919399Y-77019399D01*
X114864033Y-77102261D01*
X114849500Y-77175325D01*
X114849500Y-78824675D01*
X114864033Y-78897738D01*
X114864033Y-78897739D01*
X114864034Y-78897740D01*
X114919399Y-78980601D01*
X115002260Y-79035966D01*
X115036842Y-79042845D01*
X115075325Y-79050500D01*
X115075326Y-79050500D01*
X115962196Y-79050500D01*
X116009649Y-79059939D01*
X116049877Y-79086819D01*
X119176099Y-82213040D01*
X119192227Y-82232900D01*
X119197303Y-82240670D01*
X119220213Y-82258501D01*
X119231228Y-82268228D01*
X119247089Y-82279553D01*
X119251196Y-82282616D01*
X119295511Y-82317108D01*
X119349333Y-82333131D01*
X119354177Y-82334682D01*
X119400252Y-82350500D01*
X119400255Y-82350500D01*
X119407319Y-82352925D01*
X119414784Y-82352616D01*
X119414786Y-82352617D01*
X119463418Y-82350606D01*
X119468542Y-82350500D01*
X122053456Y-82350500D01*
X122100909Y-82359939D01*
X122141137Y-82386819D01*
X124886181Y-85131863D01*
X124913061Y-85172091D01*
X124922500Y-85219544D01*
X124922500Y-85865273D01*
X124911575Y-85916164D01*
X124880727Y-85958089D01*
X124877761Y-85960716D01*
X124877760Y-85960717D01*
X124770699Y-86055564D01*
X124759517Y-86065470D01*
X124709465Y-86137983D01*
X124669954Y-86174616D01*
X124618637Y-86191033D01*
X124565200Y-86184135D01*
X124519734Y-86155223D01*
X123565375Y-85200864D01*
X122534355Y-84169843D01*
X122518227Y-84149983D01*
X122517045Y-84148174D01*
X122512222Y-84140791D01*
X122511732Y-84140410D01*
X122487080Y-84121222D01*
X122475562Y-84111050D01*
X122475460Y-84110948D01*
X122458443Y-84098798D01*
X122454336Y-84095736D01*
X122452330Y-84094175D01*
X122412801Y-84063408D01*
X122412800Y-84063407D01*
X122406603Y-84058584D01*
X122406265Y-84058410D01*
X122398735Y-84056168D01*
X122348278Y-84041146D01*
X122343407Y-84039585D01*
X122286213Y-84019950D01*
X122285831Y-84019894D01*
X122225405Y-84022394D01*
X122220280Y-84022500D01*
X119252012Y-84022500D01*
X119226566Y-84019861D01*
X119215816Y-84017607D01*
X119184199Y-84021548D01*
X119168862Y-84022500D01*
X119168719Y-84022500D01*
X119148101Y-84025939D01*
X119143049Y-84026676D01*
X119083016Y-84034159D01*
X119082630Y-84034283D01*
X119029449Y-84063063D01*
X119024896Y-84065406D01*
X118970570Y-84091965D01*
X118970235Y-84092215D01*
X118929269Y-84136714D01*
X118925723Y-84140410D01*
X118469843Y-84596289D01*
X118449991Y-84612411D01*
X118440793Y-84618421D01*
X118421214Y-84643574D01*
X118411057Y-84655076D01*
X118410951Y-84655181D01*
X118398796Y-84672204D01*
X118395739Y-84676304D01*
X118358589Y-84724036D01*
X118358406Y-84724391D01*
X118341150Y-84782351D01*
X118339588Y-84787227D01*
X118319950Y-84844432D01*
X118319894Y-84844814D01*
X118322394Y-84905241D01*
X118322500Y-84910366D01*
X118322500Y-85372246D01*
X118313061Y-85419699D01*
X118286183Y-85459924D01*
X118266540Y-85479568D01*
X118221949Y-85524158D01*
X118164353Y-85637197D01*
X118149500Y-85730978D01*
X118149500Y-86819014D01*
X118149501Y-86819018D01*
X118164354Y-86912804D01*
X118164354Y-86912805D01*
X118164355Y-86912806D01*
X118221949Y-87025842D01*
X118311656Y-87115549D01*
X118311658Y-87115550D01*
X118424696Y-87173146D01*
X118518481Y-87188000D01*
X118881518Y-87187999D01*
X118975304Y-87173146D01*
X119088342Y-87115550D01*
X119178050Y-87025842D01*
X119235646Y-86912804D01*
X119250500Y-86819019D01*
X119250499Y-85730982D01*
X119235646Y-85637196D01*
X119207417Y-85581795D01*
X119178051Y-85524159D01*
X119151499Y-85497607D01*
X119113816Y-85459924D01*
X119086939Y-85419699D01*
X119077500Y-85372246D01*
X119077500Y-85107727D01*
X119086939Y-85060274D01*
X119113819Y-85020046D01*
X119320047Y-84813819D01*
X119360275Y-84786939D01*
X119407728Y-84777500D01*
X122022919Y-84777500D01*
X122070372Y-84786939D01*
X122110600Y-84813819D01*
X122190100Y-84893319D01*
X122220350Y-84942682D01*
X122224892Y-85000398D01*
X122202737Y-85053885D01*
X122158714Y-85091485D01*
X122102419Y-85105000D01*
X121099750Y-85105000D01*
X121092264Y-85104774D01*
X121032727Y-85101172D01*
X120974075Y-85111921D01*
X120966672Y-85113048D01*
X120907451Y-85120239D01*
X120898127Y-85123775D01*
X120876521Y-85129798D01*
X120866716Y-85131595D01*
X120812337Y-85156068D01*
X120805424Y-85158932D01*
X120749642Y-85180089D01*
X120741436Y-85185753D01*
X120721902Y-85196770D01*
X120712810Y-85200862D01*
X120665851Y-85237650D01*
X120659825Y-85242084D01*
X120610744Y-85275964D01*
X120571529Y-85320228D01*
X120529606Y-85351075D01*
X120478717Y-85362000D01*
X120418485Y-85362000D01*
X120371588Y-85369427D01*
X120324696Y-85376854D01*
X120324694Y-85376854D01*
X120324693Y-85376855D01*
X120211657Y-85434449D01*
X120121950Y-85524156D01*
X120064353Y-85637197D01*
X120049500Y-85730979D01*
X120049500Y-85807939D01*
X120042717Y-85848388D01*
X120023112Y-85884409D01*
X120014085Y-85895931D01*
X120000863Y-85912808D01*
X119931594Y-86066718D01*
X119901172Y-86232727D01*
X119911363Y-86401199D01*
X119961572Y-86562329D01*
X120031617Y-86678197D01*
X120049500Y-86742346D01*
X120049500Y-86819014D01*
X120049501Y-86819018D01*
X120064354Y-86912804D01*
X120064354Y-86912805D01*
X120064355Y-86912806D01*
X120121949Y-87025842D01*
X120211656Y-87115549D01*
X120211658Y-87115550D01*
X120324696Y-87173146D01*
X120418481Y-87188000D01*
X120781518Y-87187999D01*
X120875304Y-87173146D01*
X120988342Y-87115550D01*
X121078050Y-87025842D01*
X121135646Y-86912804D01*
X121150500Y-86819019D01*
X121150499Y-86758739D01*
X121159938Y-86711287D01*
X121186819Y-86671058D01*
X121204168Y-86653710D01*
X121244046Y-86613832D01*
X121326562Y-86531318D01*
X121366790Y-86504439D01*
X121414242Y-86495000D01*
X121778266Y-86495000D01*
X121842417Y-86512884D01*
X121888063Y-86561376D01*
X121902040Y-86626489D01*
X121880314Y-86689442D01*
X121842077Y-86744835D01*
X121837640Y-86750866D01*
X121800862Y-86797809D01*
X121796770Y-86806901D01*
X121785752Y-86826437D01*
X121780087Y-86834645D01*
X121758936Y-86890413D01*
X121756072Y-86897328D01*
X121731595Y-86951716D01*
X121729798Y-86961522D01*
X121723775Y-86983126D01*
X121720239Y-86992449D01*
X121713049Y-87051665D01*
X121711922Y-87059068D01*
X121701172Y-87117726D01*
X121704774Y-87177264D01*
X121705000Y-87184750D01*
X121705000Y-88484611D01*
X121698654Y-88523771D01*
X121681907Y-88555785D01*
X121630909Y-88692516D01*
X121624500Y-88752131D01*
X121624500Y-88917260D01*
X121610985Y-88973555D01*
X121573385Y-89017578D01*
X121519898Y-89039733D01*
X121462182Y-89035191D01*
X121412819Y-89004941D01*
X121331319Y-88923441D01*
X121304439Y-88883213D01*
X121295000Y-88835760D01*
X121295000Y-88507958D01*
X121292165Y-88484611D01*
X121279761Y-88382454D01*
X121219912Y-88224645D01*
X121219912Y-88224644D01*
X121172449Y-88155883D01*
X121156114Y-88122333D01*
X121150499Y-88085443D01*
X121150499Y-88005986D01*
X121150499Y-88005982D01*
X121135646Y-87912196D01*
X121102330Y-87846810D01*
X121078050Y-87799157D01*
X120988343Y-87709450D01*
X120875302Y-87651853D01*
X120781521Y-87637000D01*
X120418485Y-87637000D01*
X120324695Y-87651854D01*
X120221057Y-87704661D01*
X120155531Y-87717832D01*
X120092688Y-87695079D01*
X119980835Y-87615183D01*
X119946954Y-87594748D01*
X119912721Y-87577565D01*
X119837562Y-87553480D01*
X119799721Y-87547565D01*
X119793143Y-87547054D01*
X119760262Y-87544500D01*
X118293497Y-87544500D01*
X118293492Y-87544500D01*
X118250607Y-87548124D01*
X118209558Y-87555115D01*
X118128604Y-87583513D01*
X118092178Y-87603700D01*
X118056428Y-87627657D01*
X117886925Y-87763259D01*
X117846597Y-87803697D01*
X117812297Y-87846810D01*
X117781953Y-87895205D01*
X117763121Y-87949125D01*
X117750884Y-88002838D01*
X117744500Y-88059598D01*
X117744500Y-89737394D01*
X117751347Y-89796146D01*
X117764462Y-89851647D01*
X117784642Y-89907263D01*
X117806371Y-89940418D01*
X117817068Y-89956740D01*
X117853640Y-90000500D01*
X117853643Y-90000502D01*
X117853644Y-90000504D01*
X117896570Y-90041192D01*
X117917889Y-90057151D01*
X117942848Y-90082110D01*
X117959391Y-90104210D01*
X117976302Y-90135180D01*
X117987179Y-90164339D01*
X117994999Y-90207677D01*
X117994999Y-90742322D01*
X117987180Y-90785658D01*
X117976305Y-90814813D01*
X117959392Y-90845786D01*
X117942845Y-90867891D01*
X117917890Y-90892848D01*
X117896567Y-90908810D01*
X117853639Y-90949499D01*
X117817066Y-90993261D01*
X117784641Y-91042737D01*
X117764463Y-91098352D01*
X117751346Y-91153855D01*
X117744500Y-91212606D01*
X117744500Y-93806508D01*
X117748124Y-93849392D01*
X117755115Y-93890441D01*
X117783513Y-93971395D01*
X117803700Y-94007821D01*
X117820269Y-94032546D01*
X117827660Y-94043575D01*
X117903219Y-94138024D01*
X118363259Y-94713074D01*
X118401218Y-94750930D01*
X118403699Y-94753404D01*
X118446812Y-94787704D01*
X118476377Y-94806241D01*
X118495205Y-94818046D01*
X118549125Y-94836878D01*
X118571606Y-94841999D01*
X118602841Y-94849116D01*
X118659598Y-94855500D01*
X121329793Y-94855500D01*
X121394882Y-94847070D01*
X121394882Y-94847069D01*
X121455977Y-94830975D01*
X121516773Y-94806241D01*
X121569263Y-94766833D01*
X121614497Y-94722725D01*
X121655211Y-94671251D01*
X121901418Y-94260906D01*
X121928558Y-94197654D01*
X121946229Y-94133857D01*
X121955500Y-94065655D01*
X121955500Y-94009240D01*
X123469310Y-94009240D01*
X123557588Y-94063899D01*
X123747679Y-94137540D01*
X123948072Y-94175000D01*
X124151928Y-94175000D01*
X124352320Y-94137540D01*
X124542411Y-94063899D01*
X124630688Y-94009240D01*
X124050001Y-93428553D01*
X124050000Y-93428553D01*
X123469310Y-94009240D01*
X121955500Y-94009240D01*
X121955500Y-93074999D01*
X122945287Y-93074999D01*
X122964096Y-93277992D01*
X123019885Y-93474068D01*
X123110751Y-93656552D01*
X123112532Y-93658912D01*
X123112533Y-93658913D01*
X123696447Y-93075001D01*
X123696447Y-93075000D01*
X124403553Y-93075000D01*
X124987465Y-93658912D01*
X124989247Y-93656553D01*
X125080115Y-93474066D01*
X125135903Y-93277992D01*
X125154712Y-93074999D01*
X125135903Y-92872007D01*
X125080114Y-92675931D01*
X124989248Y-92493448D01*
X124987465Y-92491086D01*
X124987465Y-92491085D01*
X124403553Y-93075000D01*
X123696447Y-93075000D01*
X123112533Y-92491085D01*
X123110753Y-92493444D01*
X123019884Y-92675933D01*
X122964096Y-92872007D01*
X122945287Y-93074999D01*
X121955500Y-93074999D01*
X121955500Y-92140758D01*
X123469310Y-92140758D01*
X124050000Y-92721447D01*
X124050001Y-92721447D01*
X124630688Y-92140758D01*
X124630687Y-92140757D01*
X124542414Y-92086101D01*
X124352320Y-92012459D01*
X124151928Y-91975000D01*
X123948072Y-91975000D01*
X123747679Y-92012459D01*
X123557589Y-92086100D01*
X123469310Y-92140758D01*
X121955500Y-92140758D01*
X121955500Y-91801362D01*
X121950591Y-91751516D01*
X121941152Y-91704063D01*
X121936095Y-91687391D01*
X121926612Y-91656131D01*
X121911364Y-91627605D01*
X121896884Y-91562791D01*
X121917927Y-91499800D01*
X121968456Y-91456703D01*
X122033977Y-91445861D01*
X122048678Y-91447441D01*
X122077127Y-91450500D01*
X122922872Y-91450499D01*
X122982483Y-91444091D01*
X123117331Y-91393796D01*
X123232546Y-91307546D01*
X123318796Y-91192331D01*
X123369091Y-91057483D01*
X123375500Y-90997873D01*
X123375499Y-88752128D01*
X123369091Y-88692517D01*
X123318796Y-88557669D01*
X123232546Y-88442454D01*
X123144687Y-88376682D01*
X123108116Y-88332922D01*
X123095000Y-88277418D01*
X123095000Y-87345843D01*
X123097031Y-87323491D01*
X123101244Y-87300500D01*
X123123827Y-87177272D01*
X123113637Y-87008803D01*
X123063426Y-86847668D01*
X122976110Y-86703232D01*
X122946634Y-86673756D01*
X122918552Y-86630513D01*
X122910486Y-86579586D01*
X122923830Y-86529784D01*
X122971017Y-86437175D01*
X122985500Y-86345735D01*
X122985499Y-86290644D01*
X122993558Y-86246673D01*
X123016687Y-86208414D01*
X123026174Y-86197706D01*
X123027344Y-86195477D01*
X123104610Y-86048261D01*
X123104611Y-86048256D01*
X123109049Y-86039801D01*
X123146873Y-85996453D01*
X123200188Y-85974839D01*
X123257520Y-85979612D01*
X123306526Y-86009745D01*
X124030733Y-86733953D01*
X124728396Y-87431616D01*
X124758333Y-87480030D01*
X124763485Y-87536718D01*
X124742766Y-87589736D01*
X124669779Y-87695477D01*
X124613763Y-87843181D01*
X124594721Y-87999999D01*
X124613763Y-88156818D01*
X124654791Y-88265000D01*
X124662565Y-88317364D01*
X124647790Y-88368198D01*
X124613161Y-88408237D01*
X124567454Y-88442453D01*
X124481204Y-88557668D01*
X124430909Y-88692516D01*
X124424500Y-88752130D01*
X124424500Y-90997869D01*
X124430909Y-91057484D01*
X124446152Y-91098352D01*
X124481204Y-91192331D01*
X124567454Y-91307546D01*
X124682669Y-91393796D01*
X124817517Y-91444091D01*
X124877127Y-91450500D01*
X125722872Y-91450499D01*
X125782483Y-91444091D01*
X125917331Y-91393796D01*
X126032546Y-91307546D01*
X126118796Y-91192331D01*
X126169091Y-91057483D01*
X126175500Y-90997873D01*
X126175499Y-90913285D01*
X126189014Y-90856994D01*
X126226613Y-90812970D01*
X126280101Y-90790815D01*
X126337817Y-90795357D01*
X126387180Y-90825607D01*
X126803181Y-91241608D01*
X126830061Y-91281836D01*
X126839500Y-91329288D01*
X126839500Y-91485737D01*
X126853982Y-91577174D01*
X126910140Y-91687391D01*
X126997607Y-91774858D01*
X126997609Y-91774859D01*
X127107825Y-91831017D01*
X127199265Y-91845500D01*
X127355710Y-91845499D01*
X127403162Y-91854938D01*
X127443391Y-91881818D01*
X131335508Y-95773935D01*
X131340642Y-95779389D01*
X131380195Y-95824036D01*
X131429284Y-95857920D01*
X131435316Y-95862358D01*
X131482261Y-95899137D01*
X131491343Y-95903224D01*
X131510895Y-95914251D01*
X131519096Y-95919912D01*
X131574866Y-95941062D01*
X131581776Y-95943924D01*
X131636168Y-95968405D01*
X131645973Y-95970201D01*
X131667589Y-95976228D01*
X131672978Y-95978271D01*
X131676905Y-95979761D01*
X131736117Y-95986949D01*
X131743502Y-95988074D01*
X131754553Y-95990099D01*
X131802180Y-95998828D01*
X131861724Y-95995226D01*
X131869212Y-95995000D01*
X136612750Y-95995000D01*
X136620236Y-95995226D01*
X136625505Y-95995544D01*
X136679772Y-95998827D01*
X136738455Y-95988071D01*
X136745837Y-95986949D01*
X136805046Y-95979761D01*
X136814367Y-95976225D01*
X136835977Y-95970201D01*
X136845783Y-95968405D01*
X136900193Y-95943916D01*
X136907074Y-95941065D01*
X136962855Y-95919912D01*
X136971044Y-95914258D01*
X136990604Y-95903227D01*
X136995938Y-95900825D01*
X136999691Y-95899137D01*
X137046684Y-95862318D01*
X137052639Y-95857937D01*
X137101755Y-95824036D01*
X137141324Y-95779370D01*
X137146426Y-95773950D01*
X139189058Y-93731319D01*
X139229287Y-93704439D01*
X139276740Y-93695000D01*
X140760760Y-93695000D01*
X140808213Y-93704439D01*
X140848441Y-93731319D01*
X145391057Y-98273935D01*
X145396191Y-98279389D01*
X145435744Y-98324035D01*
X145484827Y-98357915D01*
X145490861Y-98362355D01*
X145537809Y-98399136D01*
X145546893Y-98403224D01*
X145566445Y-98414252D01*
X145574644Y-98419912D01*
X145630414Y-98441062D01*
X145637319Y-98443921D01*
X145691717Y-98468405D01*
X145701523Y-98470202D01*
X145723135Y-98476226D01*
X145732454Y-98479761D01*
X145791661Y-98486949D01*
X145799053Y-98488073D01*
X145857728Y-98498827D01*
X145912581Y-98495509D01*
X145917264Y-98495226D01*
X145924750Y-98495000D01*
X154075250Y-98495000D01*
X154082736Y-98495226D01*
X154088005Y-98495544D01*
X154142272Y-98498827D01*
X154200955Y-98488071D01*
X154208337Y-98486949D01*
X154267546Y-98479761D01*
X154276867Y-98476225D01*
X154298477Y-98470201D01*
X154308283Y-98468405D01*
X154362693Y-98443916D01*
X154369574Y-98441065D01*
X154425355Y-98419912D01*
X154433544Y-98414258D01*
X154453104Y-98403227D01*
X154458438Y-98400825D01*
X154462191Y-98399137D01*
X154509184Y-98362318D01*
X154515139Y-98357937D01*
X154564255Y-98324036D01*
X154603824Y-98279370D01*
X154608926Y-98273950D01*
X157723950Y-95158926D01*
X157729370Y-95153824D01*
X157774036Y-95114255D01*
X157807937Y-95065139D01*
X157812318Y-95059184D01*
X157849137Y-95012191D01*
X157853227Y-95003104D01*
X157864258Y-94983546D01*
X157869911Y-94975356D01*
X157869910Y-94975356D01*
X157869912Y-94975355D01*
X157891065Y-94919574D01*
X157893916Y-94912693D01*
X157918405Y-94858283D01*
X157920201Y-94848477D01*
X157926225Y-94826867D01*
X157929761Y-94817546D01*
X157936953Y-94758311D01*
X157938069Y-94750971D01*
X157948827Y-94692271D01*
X157945226Y-94632735D01*
X157945000Y-94625249D01*
X157945000Y-67374761D01*
X157945226Y-67367274D01*
X157945655Y-67360182D01*
X157948828Y-67307729D01*
X157940099Y-67260102D01*
X157938074Y-67249051D01*
X157936949Y-67241666D01*
X157929761Y-67182454D01*
X157926228Y-67173138D01*
X157920201Y-67151522D01*
X157918405Y-67141717D01*
X157893924Y-67087325D01*
X157891064Y-67080420D01*
X157869912Y-67024645D01*
X157864251Y-67016444D01*
X157853224Y-66996892D01*
X157853147Y-66996722D01*
X157849137Y-66987810D01*
X157812353Y-66940858D01*
X157807920Y-66934833D01*
X157774036Y-66885744D01*
X157729389Y-66846191D01*
X157723935Y-66841057D01*
X156688941Y-65806063D01*
X156683824Y-65800628D01*
X156644255Y-65755964D01*
X156644254Y-65755963D01*
X156644252Y-65755961D01*
X156595169Y-65722081D01*
X156589137Y-65717643D01*
X156584347Y-65713890D01*
X156542191Y-65680863D01*
X156533097Y-65676769D01*
X156513557Y-65665749D01*
X156505357Y-65660089D01*
X156505355Y-65660088D01*
X156449587Y-65638937D01*
X156442679Y-65636076D01*
X156408756Y-65620809D01*
X156388283Y-65611595D01*
X156378477Y-65609797D01*
X156356867Y-65603774D01*
X156347546Y-65600239D01*
X156324033Y-65597384D01*
X156288333Y-65593049D01*
X156280930Y-65591922D01*
X156222272Y-65581172D01*
X156162736Y-65584774D01*
X156155250Y-65585000D01*
X155054424Y-65585000D01*
X155032073Y-65582969D01*
X155029623Y-65582520D01*
X155022270Y-65581172D01*
X155007485Y-65582067D01*
X154992515Y-65582067D01*
X154977729Y-65581172D01*
X154970377Y-65582520D01*
X154967926Y-65582969D01*
X154945576Y-65585000D01*
X152957957Y-65585000D01*
X152900950Y-65591922D01*
X152832453Y-65600239D01*
X152697442Y-65651442D01*
X152653471Y-65659500D01*
X151775325Y-65659500D01*
X151702261Y-65674033D01*
X151619399Y-65729399D01*
X151564033Y-65812261D01*
X151549500Y-65885325D01*
X151549500Y-66674675D01*
X151564033Y-66747738D01*
X151564033Y-66747739D01*
X151564034Y-66747740D01*
X151616340Y-66826023D01*
X151629762Y-66846110D01*
X151648276Y-66890809D01*
X151648276Y-66939191D01*
X151629762Y-66983890D01*
X151619399Y-66999398D01*
X151619399Y-66999399D01*
X151602530Y-67024646D01*
X151564033Y-67082261D01*
X151549500Y-67155325D01*
X151549500Y-67944675D01*
X151564033Y-68017738D01*
X151564033Y-68017739D01*
X151564034Y-68017740D01*
X151619399Y-68100601D01*
X151702260Y-68155966D01*
X151738793Y-68163233D01*
X151775325Y-68170500D01*
X151775326Y-68170500D01*
X154224674Y-68170500D01*
X154224675Y-68170500D01*
X154249029Y-68165655D01*
X154297740Y-68155966D01*
X154380601Y-68100601D01*
X154435966Y-68017740D01*
X154450500Y-67944674D01*
X154450500Y-67155326D01*
X154444108Y-67123191D01*
X154445441Y-67068871D01*
X154469871Y-67020336D01*
X154512708Y-66986905D01*
X154565725Y-66975000D01*
X154811169Y-66975000D01*
X154848059Y-66980614D01*
X154873803Y-66988637D01*
X154908594Y-66990740D01*
X154923447Y-66992544D01*
X154957728Y-66998827D01*
X154992528Y-66996722D01*
X155007472Y-66996722D01*
X155042272Y-66998827D01*
X155076549Y-66992544D01*
X155091405Y-66990740D01*
X155126197Y-66988637D01*
X155147007Y-66982151D01*
X155151940Y-66980615D01*
X155188831Y-66975000D01*
X155840760Y-66975000D01*
X155888213Y-66984439D01*
X155928441Y-67011319D01*
X156518681Y-67601559D01*
X156545561Y-67641787D01*
X156555000Y-67689240D01*
X156555000Y-79831000D01*
X156538387Y-79893000D01*
X156493000Y-79938387D01*
X156431000Y-79955000D01*
X155774751Y-79955000D01*
X155767264Y-79954774D01*
X155707727Y-79951172D01*
X155649077Y-79961920D01*
X155641676Y-79963047D01*
X155582452Y-79970239D01*
X155573128Y-79973775D01*
X155551523Y-79979797D01*
X155547060Y-79980615D01*
X155541716Y-79981595D01*
X155487328Y-80006072D01*
X155480413Y-80008936D01*
X155424645Y-80030087D01*
X155416437Y-80035752D01*
X155396901Y-80046770D01*
X155387809Y-80050862D01*
X155340866Y-80087640D01*
X155334835Y-80092077D01*
X155285747Y-80125961D01*
X155246191Y-80170610D01*
X155241058Y-80176062D01*
X154067180Y-81349940D01*
X154017817Y-81380190D01*
X153960101Y-81384732D01*
X153906614Y-81362577D01*
X153869014Y-81318554D01*
X153855499Y-81262263D01*
X153855499Y-79583768D01*
X153840646Y-79489982D01*
X153802326Y-79414775D01*
X153783051Y-79376945D01*
X153751912Y-79345806D01*
X153718816Y-79312710D01*
X153691939Y-79272485D01*
X153682500Y-79225032D01*
X153682500Y-75257012D01*
X153685139Y-75231566D01*
X153685177Y-75231382D01*
X153687393Y-75220816D01*
X153683452Y-75189200D01*
X153682500Y-75173863D01*
X153682500Y-75173720D01*
X153681409Y-75167182D01*
X153679055Y-75153077D01*
X153678319Y-75148027D01*
X153671809Y-75095796D01*
X153671808Y-75095794D01*
X153670836Y-75087993D01*
X153670724Y-75087645D01*
X153666983Y-75080732D01*
X153666983Y-75080731D01*
X153641930Y-75034438D01*
X153639593Y-75029898D01*
X153613024Y-74975550D01*
X153612799Y-74975248D01*
X153568283Y-74934268D01*
X153564585Y-74930720D01*
X146303709Y-67669843D01*
X146287581Y-67649983D01*
X146284194Y-67644799D01*
X146281576Y-67640791D01*
X146277833Y-67637878D01*
X146256434Y-67621222D01*
X146244916Y-67611050D01*
X146244814Y-67610948D01*
X146235881Y-67604570D01*
X146227787Y-67598791D01*
X146223690Y-67595736D01*
X146214773Y-67588796D01*
X146182155Y-67563408D01*
X146182154Y-67563407D01*
X146175957Y-67558584D01*
X146175619Y-67558410D01*
X146168089Y-67556168D01*
X146117632Y-67541146D01*
X146112761Y-67539585D01*
X146055567Y-67519950D01*
X146055183Y-67519894D01*
X146051802Y-67520034D01*
X146001605Y-67511657D01*
X145959000Y-67483821D01*
X145872101Y-67396922D01*
X145756518Y-67340417D01*
X145681585Y-67329500D01*
X145681582Y-67329500D01*
X145338418Y-67329500D01*
X145338415Y-67329500D01*
X145263481Y-67340417D01*
X145147898Y-67396922D01*
X145087681Y-67457140D01*
X145032094Y-67489234D01*
X144967906Y-67489234D01*
X144912319Y-67457140D01*
X144852101Y-67396922D01*
X144736518Y-67340417D01*
X144661585Y-67329500D01*
X144661582Y-67329500D01*
X144318418Y-67329500D01*
X144318415Y-67329500D01*
X144243481Y-67340417D01*
X144127898Y-67396922D01*
X144038640Y-67486181D01*
X143998412Y-67513061D01*
X143950959Y-67522500D01*
X143722544Y-67522500D01*
X143666249Y-67508985D01*
X143622226Y-67471385D01*
X143600071Y-67417898D01*
X143604613Y-67360182D01*
X143634863Y-67310819D01*
X144278863Y-66666819D01*
X144319091Y-66639939D01*
X144366544Y-66630500D01*
X147538950Y-66630500D01*
X147593794Y-66643288D01*
X147637326Y-66679014D01*
X147660567Y-66730309D01*
X147664033Y-66747738D01*
X147664033Y-66747739D01*
X147664034Y-66747740D01*
X147716340Y-66826023D01*
X147729762Y-66846110D01*
X147748276Y-66890809D01*
X147748276Y-66939191D01*
X147729762Y-66983890D01*
X147719399Y-66999398D01*
X147719399Y-66999399D01*
X147702530Y-67024646D01*
X147664033Y-67082261D01*
X147649500Y-67155325D01*
X147649500Y-67944675D01*
X147664033Y-68017738D01*
X147664033Y-68017739D01*
X147664034Y-68017740D01*
X147719399Y-68100601D01*
X147802260Y-68155966D01*
X147838793Y-68163233D01*
X147875325Y-68170500D01*
X147875326Y-68170500D01*
X150324674Y-68170500D01*
X150324675Y-68170500D01*
X150349029Y-68165655D01*
X150397740Y-68155966D01*
X150480601Y-68100601D01*
X150535966Y-68017740D01*
X150550500Y-67944674D01*
X150550500Y-67155326D01*
X150535966Y-67082260D01*
X150480601Y-66999399D01*
X150480598Y-66999397D01*
X150470237Y-66983890D01*
X150451723Y-66939191D01*
X150451723Y-66890809D01*
X150470237Y-66846110D01*
X150480598Y-66830602D01*
X150480601Y-66830601D01*
X150535966Y-66747740D01*
X150550500Y-66674674D01*
X150550500Y-65885326D01*
X150549005Y-65877812D01*
X150539433Y-65829691D01*
X150535966Y-65812260D01*
X150480601Y-65729399D01*
X150480598Y-65729397D01*
X150470237Y-65713890D01*
X150451723Y-65669191D01*
X150451723Y-65620809D01*
X150470237Y-65576110D01*
X150480598Y-65560602D01*
X150480601Y-65560601D01*
X150535966Y-65477740D01*
X150550500Y-65404674D01*
X150550500Y-64615326D01*
X150535966Y-64542260D01*
X150480601Y-64459399D01*
X150480599Y-64459398D01*
X150470237Y-64443889D01*
X150451722Y-64399190D01*
X150451723Y-64350808D01*
X150470238Y-64306108D01*
X150480597Y-64290603D01*
X150480601Y-64290601D01*
X150535966Y-64207740D01*
X150550500Y-64134674D01*
X150550500Y-63345326D01*
X150535966Y-63272260D01*
X150480601Y-63189399D01*
X150480598Y-63189397D01*
X150470237Y-63173890D01*
X150451723Y-63129191D01*
X150451723Y-63080809D01*
X150470237Y-63036110D01*
X150480598Y-63020602D01*
X150480601Y-63020601D01*
X150535966Y-62937740D01*
X150550500Y-62864675D01*
X151549500Y-62864675D01*
X151564033Y-62937738D01*
X151564033Y-62937739D01*
X151564034Y-62937740D01*
X151619399Y-63020601D01*
X151702260Y-63075966D01*
X151726607Y-63080809D01*
X151775325Y-63090500D01*
X151775326Y-63090500D01*
X154224674Y-63090500D01*
X154224675Y-63090500D01*
X154249029Y-63085655D01*
X154297740Y-63075966D01*
X154380601Y-63020601D01*
X154435966Y-62937740D01*
X154450500Y-62864674D01*
X154450500Y-62075326D01*
X154435966Y-62002260D01*
X154380601Y-61919399D01*
X154380598Y-61919397D01*
X154370237Y-61903890D01*
X154351723Y-61859191D01*
X154351723Y-61810809D01*
X154370237Y-61766110D01*
X154380598Y-61750602D01*
X154380601Y-61750601D01*
X154435966Y-61667740D01*
X154445655Y-61619029D01*
X154450500Y-61594675D01*
X154450500Y-60805325D01*
X154435966Y-60732261D01*
X154435966Y-60732260D01*
X154380601Y-60649399D01*
X154380599Y-60649398D01*
X154370237Y-60633889D01*
X154351722Y-60589190D01*
X154351723Y-60540808D01*
X154370238Y-60496108D01*
X154380597Y-60480603D01*
X154380601Y-60480601D01*
X154435966Y-60397740D01*
X154450500Y-60324674D01*
X154450500Y-59535326D01*
X154435966Y-59462260D01*
X154380601Y-59379399D01*
X154297740Y-59324034D01*
X154297739Y-59324033D01*
X154297738Y-59324033D01*
X154224675Y-59309500D01*
X154224674Y-59309500D01*
X151775326Y-59309500D01*
X151775325Y-59309500D01*
X151702261Y-59324033D01*
X151619399Y-59379399D01*
X151564033Y-59462261D01*
X151549500Y-59535325D01*
X151549500Y-60324675D01*
X151564033Y-60397738D01*
X151564033Y-60397739D01*
X151564034Y-60397740D01*
X151590185Y-60436879D01*
X151629762Y-60496110D01*
X151648276Y-60540809D01*
X151648276Y-60589191D01*
X151629762Y-60633890D01*
X151619399Y-60649398D01*
X151619399Y-60649399D01*
X151611837Y-60660717D01*
X151564033Y-60732261D01*
X151549500Y-60805325D01*
X151549500Y-61594675D01*
X151564033Y-61667738D01*
X151629762Y-61766110D01*
X151648276Y-61810809D01*
X151648276Y-61859191D01*
X151629762Y-61903890D01*
X151564033Y-62002261D01*
X151549500Y-62075325D01*
X151549500Y-62864675D01*
X150550500Y-62864675D01*
X150550500Y-62864674D01*
X150550500Y-62075326D01*
X150535966Y-62002260D01*
X150480601Y-61919399D01*
X150480598Y-61919397D01*
X150470237Y-61903890D01*
X150451723Y-61859191D01*
X150451723Y-61810809D01*
X150470237Y-61766110D01*
X150480598Y-61750602D01*
X150480601Y-61750601D01*
X150535966Y-61667740D01*
X150545655Y-61619029D01*
X150550500Y-61594675D01*
X150550500Y-60805325D01*
X150535966Y-60732261D01*
X150535966Y-60732260D01*
X150480601Y-60649399D01*
X150480599Y-60649398D01*
X150470237Y-60633889D01*
X150451722Y-60589190D01*
X150451723Y-60540808D01*
X150470238Y-60496108D01*
X150480597Y-60480603D01*
X150480601Y-60480601D01*
X150535966Y-60397740D01*
X150550500Y-60324674D01*
X150550500Y-59535326D01*
X150535966Y-59462260D01*
X150480601Y-59379399D01*
X150397740Y-59324034D01*
X150397739Y-59324033D01*
X150397738Y-59324033D01*
X150324675Y-59309500D01*
X150324674Y-59309500D01*
X147875326Y-59309500D01*
X147875325Y-59309500D01*
X147802261Y-59324033D01*
X147719399Y-59379399D01*
X147664033Y-59462261D01*
X147649500Y-59535325D01*
X147649500Y-60324675D01*
X147664033Y-60397738D01*
X147664033Y-60397739D01*
X147664034Y-60397740D01*
X147690185Y-60436879D01*
X147729762Y-60496110D01*
X147748276Y-60540809D01*
X147748276Y-60589191D01*
X147729762Y-60633890D01*
X147719399Y-60649398D01*
X147719399Y-60649399D01*
X147711837Y-60660717D01*
X147664033Y-60732261D01*
X147660567Y-60749691D01*
X147637326Y-60800986D01*
X147593794Y-60836712D01*
X147538950Y-60849500D01*
X146013564Y-60849500D01*
X145955938Y-60835296D01*
X145911515Y-60795941D01*
X145890483Y-60765470D01*
X145772240Y-60660717D01*
X145721124Y-60633889D01*
X145632364Y-60587303D01*
X145478985Y-60549500D01*
X145321015Y-60549500D01*
X145167635Y-60587303D01*
X145027761Y-60660716D01*
X145027759Y-60660717D01*
X145027760Y-60660717D01*
X144909517Y-60765470D01*
X144888484Y-60795941D01*
X144844062Y-60835296D01*
X144786436Y-60849500D01*
X126449212Y-60849500D01*
X126423766Y-60846861D01*
X126414685Y-60844957D01*
X126385877Y-60848548D01*
X126371201Y-60849458D01*
X126351961Y-60852668D01*
X126346903Y-60853405D01*
X126291189Y-60860351D01*
X126241813Y-60887072D01*
X126237261Y-60889415D01*
X126186804Y-60914082D01*
X126148780Y-60955387D01*
X126145233Y-60959083D01*
X125086955Y-62017361D01*
X125067104Y-62033483D01*
X125059332Y-62038561D01*
X125041500Y-62061471D01*
X125031765Y-62072496D01*
X125020441Y-62088357D01*
X125017392Y-62092445D01*
X125000954Y-62113566D01*
X124982891Y-62136773D01*
X124966871Y-62190582D01*
X124965309Y-62195458D01*
X124947074Y-62248577D01*
X124949394Y-62304668D01*
X124949500Y-62309792D01*
X124949500Y-67516888D01*
X124940061Y-67564341D01*
X124913181Y-67604570D01*
X124907610Y-67610140D01*
X124907609Y-67610141D01*
X124879872Y-67637878D01*
X124820140Y-67697609D01*
X124763982Y-67807826D01*
X124749500Y-67899262D01*
X124749500Y-68300737D01*
X124763982Y-68392174D01*
X124820139Y-68502389D01*
X124820140Y-68502390D01*
X124820141Y-68502391D01*
X124907609Y-68589859D01*
X124907610Y-68589859D01*
X124913181Y-68595430D01*
X124940061Y-68635659D01*
X124949500Y-68683112D01*
X124949500Y-69450788D01*
X124946861Y-69476234D01*
X124944957Y-69485314D01*
X124948548Y-69514123D01*
X124949458Y-69528795D01*
X124952665Y-69548013D01*
X124953403Y-69553078D01*
X124960351Y-69608809D01*
X124987081Y-69658202D01*
X124989421Y-69662747D01*
X125010802Y-69706484D01*
X125010803Y-69706485D01*
X125014084Y-69713196D01*
X125019581Y-69718256D01*
X125019582Y-69718258D01*
X125053520Y-69749500D01*
X125055399Y-69751230D01*
X125059097Y-69754779D01*
X126617361Y-71313043D01*
X126633489Y-71332903D01*
X126638563Y-71340669D01*
X126661473Y-71358500D01*
X126672496Y-71368235D01*
X126688355Y-71379558D01*
X126692464Y-71382622D01*
X126700913Y-71389198D01*
X126729829Y-71411704D01*
X126736773Y-71417108D01*
X126790593Y-71433131D01*
X126795437Y-71434682D01*
X126841512Y-71450500D01*
X126841515Y-71450500D01*
X126848579Y-71452925D01*
X126856044Y-71452616D01*
X126856046Y-71452617D01*
X126904678Y-71450606D01*
X126909802Y-71450500D01*
X128450788Y-71450500D01*
X128476234Y-71453139D01*
X128477556Y-71453416D01*
X128485315Y-71455043D01*
X128511364Y-71451795D01*
X128514123Y-71451452D01*
X128528795Y-71450541D01*
X128548013Y-71447334D01*
X128553069Y-71446596D01*
X128601393Y-71440573D01*
X128601394Y-71440572D01*
X128608808Y-71439648D01*
X128615378Y-71436092D01*
X128615381Y-71436092D01*
X128658201Y-71412918D01*
X128662747Y-71410577D01*
X128706484Y-71389198D01*
X128706486Y-71389195D01*
X128713195Y-71385916D01*
X128718254Y-71380419D01*
X128718258Y-71380418D01*
X128751254Y-71344572D01*
X128754756Y-71340924D01*
X131808862Y-68286819D01*
X131849091Y-68259939D01*
X131896544Y-68250500D01*
X132937006Y-68250500D01*
X132989411Y-68262118D01*
X133005239Y-68269499D01*
X133051283Y-68275561D01*
X133108420Y-68298501D01*
X133147479Y-68346096D01*
X133158831Y-68406610D01*
X133139677Y-68465125D01*
X133094740Y-68507214D01*
X133035097Y-68522500D01*
X132419512Y-68522500D01*
X132394066Y-68519861D01*
X132383316Y-68517607D01*
X132351699Y-68521548D01*
X132336362Y-68522500D01*
X132336219Y-68522500D01*
X132315601Y-68525939D01*
X132310549Y-68526676D01*
X132250516Y-68534159D01*
X132250130Y-68534283D01*
X132196949Y-68563063D01*
X132192396Y-68565406D01*
X132138070Y-68591965D01*
X132137735Y-68592215D01*
X132096769Y-68636714D01*
X132093223Y-68640410D01*
X131787343Y-68946289D01*
X131767491Y-68962411D01*
X131758293Y-68968421D01*
X131747451Y-68982350D01*
X131705897Y-69016667D01*
X131645110Y-69047640D01*
X131557640Y-69135109D01*
X131501482Y-69245326D01*
X131487000Y-69336763D01*
X131487000Y-69627771D01*
X131477561Y-69675224D01*
X131450681Y-69715452D01*
X125069841Y-76096291D01*
X125049988Y-76112415D01*
X125040791Y-76118424D01*
X125021219Y-76143569D01*
X125011061Y-76155072D01*
X125010951Y-76155181D01*
X124998796Y-76172204D01*
X124995739Y-76176304D01*
X124958589Y-76224036D01*
X124958406Y-76224391D01*
X124941150Y-76282351D01*
X124939588Y-76287227D01*
X124919950Y-76344432D01*
X124919894Y-76344814D01*
X124922394Y-76405241D01*
X124922500Y-76410366D01*
X124922500Y-83877456D01*
X124908985Y-83933751D01*
X124871385Y-83977774D01*
X124817898Y-83999929D01*
X124760182Y-83995387D01*
X124710819Y-83965137D01*
X122532638Y-81786956D01*
X122516509Y-81767094D01*
X122511437Y-81759330D01*
X122488533Y-81741504D01*
X122477508Y-81731768D01*
X122461653Y-81720448D01*
X122457544Y-81717384D01*
X122413229Y-81682892D01*
X122359409Y-81666869D01*
X122354531Y-81665306D01*
X122301421Y-81647074D01*
X122245332Y-81649394D01*
X122240208Y-81649500D01*
X119655283Y-81649500D01*
X119607830Y-81640061D01*
X119567602Y-81613181D01*
X116786819Y-78832397D01*
X116759939Y-78792169D01*
X116750500Y-78744716D01*
X116750500Y-77175325D01*
X116735966Y-77102261D01*
X116735966Y-77102260D01*
X116680601Y-77019399D01*
X116597740Y-76964034D01*
X116597739Y-76964033D01*
X116597738Y-76964033D01*
X116524675Y-76949500D01*
X116524674Y-76949500D01*
X116274500Y-76949500D01*
X116212500Y-76932887D01*
X116167113Y-76887500D01*
X116150500Y-76825500D01*
X116150500Y-71974500D01*
X116167113Y-71912500D01*
X116212500Y-71867113D01*
X116274500Y-71850500D01*
X116524675Y-71850500D01*
X116559186Y-71843635D01*
X116597740Y-71835966D01*
X116680601Y-71780601D01*
X116735966Y-71697740D01*
X116750500Y-71624674D01*
X116750500Y-69975326D01*
X116735966Y-69902260D01*
X116680601Y-69819399D01*
X116597740Y-69764034D01*
X116597739Y-69764033D01*
X116597738Y-69764033D01*
X116524675Y-69749500D01*
X116524674Y-69749500D01*
X116208638Y-69749500D01*
X116142975Y-69730687D01*
X116097236Y-69679958D01*
X116085918Y-69656805D01*
X116078526Y-69650000D01*
X116044587Y-69618757D01*
X116040914Y-69615232D01*
X115296818Y-68871136D01*
X115269938Y-68830908D01*
X115260499Y-68783455D01*
X115260499Y-68599265D01*
X115253941Y-68557860D01*
X115257716Y-68502591D01*
X115285183Y-68454481D01*
X115303484Y-68434600D01*
X115307010Y-68430924D01*
X115851116Y-67886819D01*
X115891345Y-67859939D01*
X115938798Y-67850500D01*
X117743892Y-67850500D01*
X117792704Y-67860512D01*
X117833635Y-67888930D01*
X117860072Y-67931163D01*
X117878372Y-67980226D01*
X117878373Y-67980228D01*
X117960312Y-68089687D01*
X117974892Y-68100601D01*
X118069774Y-68171628D01*
X118197886Y-68219412D01*
X118254515Y-68225500D01*
X118795484Y-68225499D01*
X118852114Y-68219412D01*
X118980226Y-68171628D01*
X119089687Y-68089687D01*
X119171628Y-67980226D01*
X119219412Y-67852114D01*
X119225500Y-67795485D01*
X119225499Y-67204516D01*
X119219412Y-67147886D01*
X119217111Y-67141717D01*
X119171628Y-67019774D01*
X119089687Y-66910312D01*
X118980226Y-66828372D01*
X118852116Y-66780588D01*
X118833237Y-66778558D01*
X118795485Y-66774500D01*
X118795481Y-66774500D01*
X118254517Y-66774500D01*
X118197882Y-66780588D01*
X118069774Y-66828371D01*
X117960312Y-66910312D01*
X117878373Y-67019771D01*
X117878371Y-67019774D01*
X117878372Y-67019774D01*
X117860072Y-67068836D01*
X117833635Y-67111070D01*
X117792704Y-67139488D01*
X117743892Y-67149500D01*
X115791461Y-67149500D01*
X115766015Y-67146861D01*
X115756939Y-67144958D01*
X115728138Y-67148548D01*
X115713457Y-67149459D01*
X115694240Y-67152665D01*
X115689178Y-67153402D01*
X115633446Y-67160350D01*
X115584067Y-67187072D01*
X115579515Y-67189415D01*
X115529058Y-67214082D01*
X115491034Y-67255387D01*
X115487487Y-67259083D01*
X114943391Y-67803181D01*
X114903163Y-67830061D01*
X114855710Y-67839500D01*
X114456953Y-67839500D01*
X114431507Y-67836861D01*
X114422431Y-67834958D01*
X114393630Y-67838548D01*
X114378949Y-67839459D01*
X114359732Y-67842665D01*
X114354670Y-67843402D01*
X114298938Y-67850350D01*
X114249559Y-67877072D01*
X114245007Y-67879415D01*
X114194550Y-67904082D01*
X114156526Y-67945387D01*
X114152979Y-67949083D01*
X113898881Y-68203181D01*
X113858653Y-68230061D01*
X113811201Y-68239500D01*
X113599262Y-68239500D01*
X113507825Y-68253982D01*
X113397608Y-68310140D01*
X113310141Y-68397607D01*
X113253982Y-68507826D01*
X113239500Y-68599263D01*
X113239500Y-68811201D01*
X113230061Y-68858654D01*
X113203181Y-68898882D01*
X112586955Y-69515107D01*
X112567104Y-69531229D01*
X112559332Y-69536307D01*
X112541500Y-69559217D01*
X112531765Y-69570242D01*
X112520441Y-69586103D01*
X112517392Y-69590191D01*
X112503485Y-69608060D01*
X112482891Y-69634519D01*
X112475042Y-69660884D01*
X112449706Y-69706939D01*
X112407567Y-69738359D01*
X112356198Y-69749500D01*
X112075325Y-69749500D01*
X112002261Y-69764033D01*
X111919399Y-69819399D01*
X111864033Y-69902261D01*
X111849500Y-69975325D01*
X111849500Y-71624675D01*
X111864033Y-71697738D01*
X111864033Y-71697739D01*
X111864034Y-71697740D01*
X111919399Y-71780601D01*
X112002260Y-71835966D01*
X112038792Y-71843232D01*
X112075325Y-71850500D01*
X112075326Y-71850500D01*
X112325500Y-71850500D01*
X112387500Y-71867113D01*
X112432887Y-71912500D01*
X112449500Y-71974500D01*
X112449500Y-73974240D01*
X112438575Y-74025133D01*
X112418031Y-74053051D01*
X112418070Y-74053078D01*
X112319780Y-74195476D01*
X112263763Y-74343181D01*
X112244721Y-74499999D01*
X112263763Y-74656818D01*
X112319780Y-74804523D01*
X112418070Y-74946922D01*
X112418031Y-74946948D01*
X112438575Y-74974867D01*
X112449500Y-75025760D01*
X112449500Y-76825500D01*
X112432887Y-76887500D01*
X112387500Y-76932887D01*
X112325500Y-76949500D01*
X112075325Y-76949500D01*
X112002261Y-76964033D01*
X111919399Y-77019399D01*
X111864033Y-77102261D01*
X111849500Y-77175325D01*
X111849500Y-78824675D01*
X110000500Y-78824675D01*
X110000500Y-59317764D01*
X112095787Y-59317764D01*
X112125413Y-59587016D01*
X112193928Y-59849087D01*
X112299871Y-60098392D01*
X112440982Y-60329611D01*
X112612712Y-60535966D01*
X112614255Y-60537820D01*
X112815998Y-60718582D01*
X113041910Y-60868044D01*
X113133121Y-60910802D01*
X113287177Y-60983021D01*
X113546562Y-61061058D01*
X113546569Y-61061060D01*
X113814561Y-61100500D01*
X114017631Y-61100500D01*
X114017634Y-61100500D01*
X114220156Y-61085677D01*
X114220155Y-61085677D01*
X114484553Y-61026780D01*
X114737558Y-60930014D01*
X114973777Y-60797441D01*
X115188177Y-60631888D01*
X115376186Y-60436881D01*
X115533799Y-60216579D01*
X115657656Y-59975675D01*
X115745118Y-59719305D01*
X115794319Y-59452933D01*
X115804212Y-59182235D01*
X115774586Y-58912982D01*
X115706072Y-58650912D01*
X115600130Y-58401610D01*
X115459018Y-58170390D01*
X115459017Y-58170388D01*
X115285746Y-57962181D01*
X115246836Y-57927318D01*
X115084002Y-57781418D01*
X114858090Y-57631956D01*
X114858086Y-57631954D01*
X114612822Y-57516978D01*
X114353437Y-57438941D01*
X114353431Y-57438940D01*
X114085439Y-57399500D01*
X113882369Y-57399500D01*
X113882366Y-57399500D01*
X113679843Y-57414322D01*
X113415449Y-57473219D01*
X113162441Y-57569986D01*
X112926223Y-57702559D01*
X112711825Y-57868109D01*
X112523813Y-58063120D01*
X112366201Y-58283420D01*
X112242342Y-58524329D01*
X112154881Y-58780695D01*
X112105680Y-59047066D01*
X112095787Y-59317764D01*
X110000500Y-59317764D01*
X110000500Y-59202872D01*
X110000632Y-59197146D01*
X110007570Y-59047067D01*
X110008490Y-59027168D01*
X110018166Y-58830200D01*
X110019200Y-58819217D01*
X110044611Y-58637054D01*
X110044722Y-58636286D01*
X110071950Y-58452729D01*
X110073890Y-58442595D01*
X110116526Y-58261318D01*
X110116837Y-58260037D01*
X110161405Y-58082111D01*
X110164091Y-58072922D01*
X110223572Y-57895457D01*
X110224270Y-57893442D01*
X110285699Y-57721759D01*
X110288996Y-57713497D01*
X110364713Y-57542015D01*
X110366051Y-57539089D01*
X110397205Y-57473219D01*
X110443727Y-57374855D01*
X110447452Y-57367612D01*
X110538864Y-57203497D01*
X110540745Y-57200243D01*
X110634036Y-57044598D01*
X110638034Y-57038363D01*
X110744270Y-56883278D01*
X110746899Y-56879590D01*
X110854909Y-56733954D01*
X110859011Y-56728728D01*
X110979239Y-56583944D01*
X110982577Y-56580097D01*
X111104340Y-56445752D01*
X111108437Y-56441450D01*
X111241450Y-56308437D01*
X111245752Y-56304340D01*
X111380097Y-56182577D01*
X111383944Y-56179239D01*
X111528728Y-56059011D01*
X111533954Y-56054909D01*
X111679590Y-55946899D01*
X111683278Y-55944270D01*
X111838363Y-55838034D01*
X111844598Y-55834036D01*
X112000243Y-55740745D01*
X112003497Y-55738864D01*
X112167612Y-55647452D01*
X112174855Y-55643727D01*
X112339098Y-55566046D01*
X112342018Y-55564712D01*
X112406007Y-55536458D01*
X112513497Y-55488996D01*
X112521759Y-55485699D01*
X112693442Y-55424270D01*
X112695457Y-55423572D01*
X112872922Y-55364091D01*
X112882111Y-55361405D01*
X113060037Y-55316837D01*
X113061318Y-55316526D01*
X113242595Y-55273890D01*
X113252727Y-55271950D01*
X113436295Y-55244720D01*
X113436913Y-55244631D01*
X113440150Y-55244179D01*
X113457004Y-55242992D01*
X134724748Y-55200500D01*
X155997128Y-55200500D01*
X156002854Y-55200632D01*
G37*
%TD.AperFunction*%
%TD*%
M02*
