%TF.GenerationSoftware,KiCad,Pcbnew,7.0.1-0*%
%TF.CreationDate,2024-03-03T19:15:34-08:00*%
%TF.ProjectId,BNOCAN,424e4f43-414e-42e6-9b69-6361645f7063,rev?*%
%TF.SameCoordinates,Original*%
%TF.FileFunction,Soldermask,Top*%
%TF.FilePolarity,Negative*%
%FSLAX46Y46*%
G04 Gerber Fmt 4.6, Leading zero omitted, Abs format (unit mm)*
G04 Created by KiCad (PCBNEW 7.0.1-0) date 2024-03-03 19:15:34*
%MOMM*%
%LPD*%
G01*
G04 APERTURE LIST*
G04 Aperture macros list*
%AMRoundRect*
0 Rectangle with rounded corners*
0 $1 Rounding radius*
0 $2 $3 $4 $5 $6 $7 $8 $9 X,Y pos of 4 corners*
0 Add a 4 corners polygon primitive as box body*
4,1,4,$2,$3,$4,$5,$6,$7,$8,$9,$2,$3,0*
0 Add four circle primitives for the rounded corners*
1,1,$1+$1,$2,$3*
1,1,$1+$1,$4,$5*
1,1,$1+$1,$6,$7*
1,1,$1+$1,$8,$9*
0 Add four rect primitives between the rounded corners*
20,1,$1+$1,$2,$3,$4,$5,0*
20,1,$1+$1,$4,$5,$6,$7,0*
20,1,$1+$1,$6,$7,$8,$9,0*
20,1,$1+$1,$8,$9,$2,$3,0*%
G04 Aperture macros list end*
%ADD10RoundRect,0.062500X-0.475000X-0.062500X0.475000X-0.062500X0.475000X0.062500X-0.475000X0.062500X0*%
%ADD11RoundRect,0.062500X-0.062500X-0.475000X0.062500X-0.475000X0.062500X0.475000X-0.062500X0.475000X0*%
%ADD12R,4.100000X4.100000*%
%ADD13RoundRect,0.218750X0.256250X-0.218750X0.256250X0.218750X-0.256250X0.218750X-0.256250X-0.218750X0*%
%ADD14R,1.800000X1.000000*%
%ADD15RoundRect,0.140000X-0.140000X-0.170000X0.140000X-0.170000X0.140000X0.170000X-0.140000X0.170000X0*%
%ADD16RoundRect,0.150000X-0.150000X0.587500X-0.150000X-0.587500X0.150000X-0.587500X0.150000X0.587500X0*%
%ADD17RoundRect,0.150000X-0.150000X0.825000X-0.150000X-0.825000X0.150000X-0.825000X0.150000X0.825000X0*%
%ADD18C,2.000000*%
%ADD19RoundRect,0.250000X-0.600000X-0.600000X0.600000X-0.600000X0.600000X0.600000X-0.600000X0.600000X0*%
%ADD20C,1.700000*%
%ADD21RoundRect,0.150000X-0.150000X0.512500X-0.150000X-0.512500X0.150000X-0.512500X0.150000X0.512500X0*%
%ADD22RoundRect,0.135000X-0.135000X-0.185000X0.135000X-0.185000X0.135000X0.185000X-0.135000X0.185000X0*%
%ADD23RoundRect,0.250000X0.350000X0.450000X-0.350000X0.450000X-0.350000X-0.450000X0.350000X-0.450000X0*%
%ADD24C,3.200000*%
%ADD25RoundRect,0.225000X0.225000X0.250000X-0.225000X0.250000X-0.225000X-0.250000X0.225000X-0.250000X0*%
%ADD26RoundRect,0.140000X0.170000X-0.140000X0.170000X0.140000X-0.170000X0.140000X-0.170000X-0.140000X0*%
%ADD27R,0.675000X0.254000*%
%ADD28R,0.254000X0.675000*%
%ADD29RoundRect,0.135000X0.185000X-0.135000X0.185000X0.135000X-0.185000X0.135000X-0.185000X-0.135000X0*%
%ADD30R,2.400000X0.740000*%
%ADD31RoundRect,0.140000X-0.170000X0.140000X-0.170000X-0.140000X0.170000X-0.140000X0.170000X0.140000X0*%
%ADD32R,1.700000X1.700000*%
%ADD33O,1.700000X1.700000*%
%ADD34RoundRect,0.250000X-0.375000X-1.075000X0.375000X-1.075000X0.375000X1.075000X-0.375000X1.075000X0*%
%ADD35RoundRect,0.135000X-0.185000X0.135000X-0.185000X-0.135000X0.185000X-0.135000X0.185000X0.135000X0*%
%ADD36RoundRect,0.140000X0.140000X0.170000X-0.140000X0.170000X-0.140000X-0.170000X0.140000X-0.170000X0*%
%ADD37RoundRect,0.225000X0.250000X-0.225000X0.250000X0.225000X-0.250000X0.225000X-0.250000X-0.225000X0*%
%ADD38R,1.400000X1.600000*%
%ADD39RoundRect,0.200000X0.275000X-0.200000X0.275000X0.200000X-0.275000X0.200000X-0.275000X-0.200000X0*%
%ADD40RoundRect,0.135000X0.135000X0.185000X-0.135000X0.185000X-0.135000X-0.185000X0.135000X-0.185000X0*%
%ADD41RoundRect,0.225000X-0.225000X-0.250000X0.225000X-0.250000X0.225000X0.250000X-0.225000X0.250000X0*%
G04 APERTURE END LIST*
D10*
%TO.C,U4*%
X133562500Y-66400000D03*
X133562500Y-66900000D03*
X133562500Y-67400000D03*
X133562500Y-67900000D03*
X133562500Y-68400000D03*
X133562500Y-68900000D03*
X133562500Y-69400000D03*
X133562500Y-69900000D03*
X133562500Y-70400000D03*
D11*
X134400000Y-71237500D03*
X134900000Y-71237500D03*
X135400000Y-71237500D03*
X135900000Y-71237500D03*
X136400000Y-71237500D03*
X136900000Y-71237500D03*
X137400000Y-71237500D03*
X137900000Y-71237500D03*
X138400000Y-71237500D03*
D10*
X139237500Y-70400000D03*
X139237500Y-69900000D03*
X139237500Y-69400000D03*
X139237500Y-68900000D03*
X139237500Y-68400000D03*
X139237500Y-67900000D03*
X139237500Y-67400000D03*
X139237500Y-66900000D03*
X139237500Y-66400000D03*
D11*
X138400000Y-65562500D03*
X137900000Y-65562500D03*
X137400000Y-65562500D03*
X136900000Y-65562500D03*
X136400000Y-65562500D03*
X135900000Y-65562500D03*
X135400000Y-65562500D03*
X134900000Y-65562500D03*
X134400000Y-65562500D03*
D12*
X136400000Y-68400000D03*
%TD*%
D13*
%TO.C,D1*%
X132700000Y-93575000D03*
X132700000Y-92000000D03*
%TD*%
D14*
%TO.C,Y2*%
X128500000Y-65487500D03*
X128500000Y-67987500D03*
%TD*%
D15*
%TO.C,C14*%
X124320000Y-68100000D03*
X125280000Y-68100000D03*
%TD*%
D16*
%TO.C,D2*%
X152350000Y-88150000D03*
X150450000Y-88150000D03*
X151400000Y-90025000D03*
%TD*%
D17*
%TO.C,U2*%
X153305000Y-80440286D03*
X152035000Y-80440286D03*
X150765000Y-80440286D03*
X149495000Y-80440286D03*
X149495000Y-85390286D03*
X150765000Y-85390286D03*
X152035000Y-85390286D03*
X153305000Y-85390286D03*
%TD*%
D18*
%TO.C,J2*%
X120050000Y-102075000D03*
X124050000Y-102075000D03*
D19*
X120050000Y-93075000D03*
D20*
X124050000Y-93075000D03*
%TD*%
D21*
%TO.C,U1*%
X120600000Y-86275000D03*
X119650000Y-86275000D03*
X118700000Y-86275000D03*
X118700000Y-88550000D03*
X119650000Y-88550000D03*
X120600000Y-88550000D03*
%TD*%
D22*
%TO.C,R10*%
X144490000Y-67900000D03*
X145510000Y-67900000D03*
%TD*%
D23*
%TO.C,R16*%
X146200000Y-81025000D03*
X144200000Y-81025000D03*
%TD*%
D13*
%TO.C,D3*%
X135800000Y-93487500D03*
X135800000Y-91912500D03*
%TD*%
D24*
%TO.C,H1*%
X113950000Y-59250000D03*
%TD*%
D25*
%TO.C,C2*%
X119100000Y-90475000D03*
X117550000Y-90475000D03*
%TD*%
D26*
%TO.C,C17*%
X142750000Y-65610000D03*
X142750000Y-64650000D03*
%TD*%
D22*
%TO.C,R12*%
X134127500Y-74637500D03*
X135147500Y-74637500D03*
%TD*%
D27*
%TO.C,U5*%
X134337500Y-84250000D03*
D28*
X135250000Y-84387500D03*
X135750000Y-84387500D03*
X136250000Y-84387500D03*
X136750000Y-84387500D03*
D27*
X137662500Y-84250000D03*
X137662500Y-83750000D03*
X137662500Y-83250000D03*
X137662500Y-82750000D03*
X137662500Y-82250000D03*
X137662500Y-81750000D03*
X137662500Y-81250000D03*
X137662500Y-80750000D03*
X137662500Y-80250000D03*
X137662500Y-79750000D03*
D28*
X136750000Y-79612500D03*
X136250000Y-79612500D03*
X135750000Y-79612500D03*
X135250000Y-79612500D03*
D27*
X134337500Y-79750000D03*
X134337500Y-80250000D03*
X134337500Y-80750000D03*
X134337500Y-81250000D03*
X134337500Y-81750000D03*
X134337500Y-82250000D03*
X134337500Y-82750000D03*
X134337500Y-83250000D03*
X134337500Y-83750000D03*
%TD*%
D26*
%TO.C,C6*%
X132662500Y-81830000D03*
X132662500Y-80870000D03*
%TD*%
D29*
%TO.C,R9*%
X134100000Y-77010000D03*
X134100000Y-75990000D03*
%TD*%
D30*
%TO.C,J3*%
X153000000Y-67550000D03*
X149100000Y-67550000D03*
X153000000Y-66280000D03*
X149100000Y-66280000D03*
X153000000Y-65010000D03*
X149100000Y-65010000D03*
X153000000Y-63740000D03*
X149100000Y-63740000D03*
X153000000Y-62470000D03*
X149100000Y-62470000D03*
X153000000Y-61200000D03*
X149100000Y-61200000D03*
X153000000Y-59930000D03*
X149100000Y-59930000D03*
%TD*%
D14*
%TO.C,Y1*%
X130562500Y-81700000D03*
X130562500Y-84200000D03*
%TD*%
D31*
%TO.C,C5*%
X132662500Y-84070000D03*
X132662500Y-85030000D03*
%TD*%
%TO.C,C7*%
X139062500Y-82470000D03*
X139062500Y-83430000D03*
%TD*%
D32*
%TO.C,JP1*%
X145875000Y-84025000D03*
D33*
X143335000Y-84025000D03*
%TD*%
D34*
%TO.C,L1*%
X122500000Y-89875000D03*
X125300000Y-89875000D03*
%TD*%
D18*
%TO.C,J1*%
X145950000Y-102075000D03*
X149950000Y-102075000D03*
D19*
X145950000Y-93075000D03*
D20*
X149950000Y-93075000D03*
%TD*%
D35*
%TO.C,R11*%
X138987500Y-74127500D03*
X138987500Y-75147500D03*
%TD*%
D15*
%TO.C,C1*%
X150920000Y-78415286D03*
X151880000Y-78415286D03*
%TD*%
D36*
%TO.C,C12*%
X128380000Y-64100000D03*
X127420000Y-64100000D03*
%TD*%
D22*
%TO.C,R13*%
X136227500Y-74637500D03*
X137247500Y-74637500D03*
%TD*%
D37*
%TO.C,C15*%
X141000000Y-65405000D03*
X141000000Y-63855000D03*
%TD*%
D26*
%TO.C,C16*%
X131837500Y-65880000D03*
X131837500Y-64920000D03*
%TD*%
D38*
%TO.C,SW1*%
X112800000Y-78000000D03*
X112800000Y-70800000D03*
X115800000Y-78000000D03*
X115800000Y-70800000D03*
%TD*%
D39*
%TO.C,R15*%
X155300000Y-87025000D03*
X155300000Y-85375000D03*
%TD*%
D36*
%TO.C,C11*%
X128380000Y-69300000D03*
X127420000Y-69300000D03*
%TD*%
D40*
%TO.C,R4*%
X135810000Y-90500000D03*
X134790000Y-90500000D03*
%TD*%
D31*
%TO.C,C4*%
X127400000Y-91315000D03*
X127400000Y-92275000D03*
%TD*%
D26*
%TO.C,C3*%
X122425000Y-87135000D03*
X122425000Y-86175000D03*
%TD*%
D36*
%TO.C,C19*%
X132017500Y-69537500D03*
X131057500Y-69537500D03*
%TD*%
D25*
%TO.C,C9*%
X135900000Y-87700000D03*
X134350000Y-87700000D03*
%TD*%
D36*
%TO.C,C10*%
X114730000Y-68800000D03*
X113770000Y-68800000D03*
%TD*%
D41*
%TO.C,R14*%
X118525000Y-67500000D03*
X120075000Y-67500000D03*
%TD*%
D24*
%TO.C,H3*%
X113950000Y-101150000D03*
%TD*%
D31*
%TO.C,C18*%
X140825000Y-70695000D03*
X140825000Y-71655000D03*
%TD*%
D22*
%TO.C,R5*%
X131690000Y-90493750D03*
X132710000Y-90493750D03*
%TD*%
D24*
%TO.C,H2*%
X156050000Y-101100000D03*
%TD*%
D36*
%TO.C,C8*%
X135805000Y-85900000D03*
X134845000Y-85900000D03*
%TD*%
D39*
%TO.C,R17*%
X139250000Y-88550000D03*
X139250000Y-86900000D03*
%TD*%
M02*
