%TF.GenerationSoftware,KiCad,Pcbnew,7.0.1-0*%
%TF.CreationDate,2024-03-03T19:15:34-08:00*%
%TF.ProjectId,BNOCAN,424e4f43-414e-42e6-9b69-6361645f7063,rev?*%
%TF.SameCoordinates,Original*%
%TF.FileFunction,Copper,L2,Bot*%
%TF.FilePolarity,Positive*%
%FSLAX46Y46*%
G04 Gerber Fmt 4.6, Leading zero omitted, Abs format (unit mm)*
G04 Created by KiCad (PCBNEW 7.0.1-0) date 2024-03-03 19:15:34*
%MOMM*%
%LPD*%
G01*
G04 APERTURE LIST*
G04 Aperture macros list*
%AMRoundRect*
0 Rectangle with rounded corners*
0 $1 Rounding radius*
0 $2 $3 $4 $5 $6 $7 $8 $9 X,Y pos of 4 corners*
0 Add a 4 corners polygon primitive as box body*
4,1,4,$2,$3,$4,$5,$6,$7,$8,$9,$2,$3,0*
0 Add four circle primitives for the rounded corners*
1,1,$1+$1,$2,$3*
1,1,$1+$1,$4,$5*
1,1,$1+$1,$6,$7*
1,1,$1+$1,$8,$9*
0 Add four rect primitives between the rounded corners*
20,1,$1+$1,$2,$3,$4,$5,0*
20,1,$1+$1,$4,$5,$6,$7,0*
20,1,$1+$1,$6,$7,$8,$9,0*
20,1,$1+$1,$8,$9,$2,$3,0*%
G04 Aperture macros list end*
%TA.AperFunction,ComponentPad*%
%ADD10RoundRect,0.250000X-0.600000X-0.600000X0.600000X-0.600000X0.600000X0.600000X-0.600000X0.600000X0*%
%TD*%
%TA.AperFunction,ComponentPad*%
%ADD11C,1.700000*%
%TD*%
%TA.AperFunction,ComponentPad*%
%ADD12R,1.700000X1.700000*%
%TD*%
%TA.AperFunction,ComponentPad*%
%ADD13O,1.700000X1.700000*%
%TD*%
%TA.AperFunction,ViaPad*%
%ADD14C,0.800000*%
%TD*%
%TA.AperFunction,Conductor*%
%ADD15C,0.200000*%
%TD*%
%TA.AperFunction,Conductor*%
%ADD16C,0.254000*%
%TD*%
G04 APERTURE END LIST*
D10*
%TO.P,J2,1,Pin_1*%
%TO.N,VCC*%
X120050000Y-93075000D03*
D11*
%TO.P,J2,2,Pin_2*%
%TO.N,GND*%
X124050000Y-93075000D03*
%TD*%
D12*
%TO.P,JP1,1,A*%
%TO.N,/CAN-*%
X145875000Y-84025000D03*
D13*
%TO.P,JP1,2,B*%
%TO.N,Net-(JP1-B)*%
X143335000Y-84025000D03*
%TD*%
D10*
%TO.P,J1,1,Pin_1*%
%TO.N,/CAN-*%
X145950000Y-93075000D03*
D11*
%TO.P,J1,2,Pin_2*%
%TO.N,/CAN+*%
X149950000Y-93075000D03*
%TD*%
D14*
%TO.N,+3.3V*%
X125250000Y-86500000D03*
X125250000Y-88000000D03*
X125250000Y-89000000D03*
%TO.N,GND*%
X136778690Y-100870000D03*
X116458690Y-85630000D03*
X131698690Y-57690000D03*
X111378690Y-95790000D03*
X126618690Y-93250000D03*
X137200000Y-91800000D03*
X113918690Y-93250000D03*
X121538690Y-83090000D03*
X124078690Y-75470000D03*
X134238690Y-60230000D03*
X146938690Y-85630000D03*
X121538690Y-80550000D03*
X136778690Y-98330000D03*
X113918690Y-85630000D03*
X126618690Y-67850000D03*
X139318690Y-57690000D03*
X121538690Y-103410000D03*
X121538690Y-65310000D03*
X129158690Y-100870000D03*
X154558690Y-72930000D03*
X141858690Y-103410000D03*
X111378690Y-93250000D03*
X126618690Y-57690000D03*
X146938690Y-62770000D03*
X113918690Y-65310000D03*
X118998690Y-75470000D03*
X141858690Y-90710000D03*
X121538690Y-95790000D03*
X111378690Y-65310000D03*
X126618690Y-100870000D03*
X111378690Y-98330000D03*
X131698690Y-100870000D03*
X130000000Y-75300000D03*
X121538690Y-100870000D03*
X134800000Y-66800000D03*
X124078690Y-57690000D03*
X116458690Y-100870000D03*
X126618690Y-72930000D03*
X141858690Y-100870000D03*
X134238690Y-98330000D03*
X130800000Y-92100000D03*
X116458690Y-98330000D03*
X111378690Y-70390000D03*
X133000000Y-87800000D03*
X121538690Y-72930000D03*
X111378690Y-62770000D03*
X129158690Y-95790000D03*
X124078690Y-98330000D03*
X118998690Y-60230000D03*
X126618690Y-85630000D03*
X152018690Y-57690000D03*
X154558690Y-70390000D03*
X152018690Y-95790000D03*
X136778690Y-62770000D03*
X118998690Y-98330000D03*
X126618690Y-98330000D03*
X134800000Y-70000000D03*
X136778690Y-60230000D03*
X139318690Y-98330000D03*
X126618690Y-88170000D03*
X144398690Y-90710000D03*
X111378690Y-100870000D03*
X116458690Y-103410000D03*
X154558690Y-90710000D03*
X134238690Y-100870000D03*
X144398690Y-93250000D03*
X152018690Y-100870000D03*
X118998690Y-62770000D03*
X111378690Y-67850000D03*
X130000000Y-77400000D03*
X154558690Y-57690000D03*
X138000000Y-66800000D03*
X151425000Y-76050000D03*
X144398690Y-88170000D03*
X131698690Y-60230000D03*
X144398690Y-100870000D03*
X139318690Y-95790000D03*
X118998690Y-57690000D03*
X154558690Y-93250000D03*
X138000000Y-70000000D03*
X141858690Y-57690000D03*
X116458690Y-88170000D03*
X126618690Y-95790000D03*
X126618690Y-80550000D03*
X118998690Y-95790000D03*
X113918690Y-95790000D03*
X149478690Y-88170000D03*
X116458690Y-60230000D03*
X116458690Y-95790000D03*
X129158690Y-103410000D03*
X136778690Y-103410000D03*
X146938690Y-75470000D03*
X149478690Y-95790000D03*
X129158690Y-60230000D03*
X134238690Y-103410000D03*
X129158690Y-98330000D03*
X152018690Y-70390000D03*
X130000000Y-86600000D03*
X131000000Y-76600000D03*
X111378690Y-90710000D03*
X121538690Y-60230000D03*
X116458690Y-62770000D03*
X128100000Y-89000000D03*
X141858690Y-88170000D03*
X152018690Y-103410000D03*
X131698690Y-85630000D03*
X126618690Y-60230000D03*
X121538690Y-75470000D03*
X144398690Y-57690000D03*
X139318690Y-103410000D03*
X111378690Y-72930000D03*
X111378690Y-85630000D03*
X131698690Y-98330000D03*
X124078690Y-60230000D03*
X126618690Y-65310000D03*
X118998690Y-83090000D03*
X129600000Y-90500000D03*
X141858690Y-60230000D03*
X111378690Y-83090000D03*
X116458690Y-57690000D03*
X134238690Y-57690000D03*
X157098690Y-103410000D03*
X130900000Y-79700000D03*
X136400000Y-68400000D03*
X111378690Y-78010000D03*
X154558690Y-78010000D03*
X116458690Y-65310000D03*
X124078690Y-95790000D03*
X134800000Y-68400000D03*
X129158690Y-57690000D03*
X152018690Y-93250000D03*
X121538690Y-70390000D03*
X131100000Y-74200000D03*
X157098690Y-62770000D03*
X113918690Y-83090000D03*
X139318690Y-100870000D03*
X118998690Y-80550000D03*
X121538690Y-98330000D03*
X121538690Y-67850000D03*
X136778690Y-57690000D03*
X113918690Y-88170000D03*
X111378690Y-88170000D03*
X116458690Y-83090000D03*
X157098690Y-98330000D03*
X146938690Y-95790000D03*
X154558690Y-88170000D03*
X157098690Y-57690000D03*
X126618690Y-83090000D03*
X141858690Y-98330000D03*
X124078690Y-70390000D03*
X113918690Y-62770000D03*
X154558690Y-103410000D03*
X126618690Y-78010000D03*
X131698690Y-103410000D03*
X111378690Y-80550000D03*
X144398690Y-65310000D03*
X116458690Y-93250000D03*
X124078690Y-65310000D03*
X111378690Y-60230000D03*
X146938690Y-78010000D03*
X146938690Y-57690000D03*
X113918690Y-98330000D03*
X144398690Y-103410000D03*
X149478690Y-57690000D03*
X113918690Y-80550000D03*
X146938690Y-88170000D03*
X134238690Y-93250000D03*
X111378690Y-75470000D03*
X121538690Y-57690000D03*
X113918690Y-103410000D03*
X138000000Y-68400000D03*
X154558690Y-75470000D03*
X139318690Y-60230000D03*
X113918690Y-72930000D03*
X113918690Y-90710000D03*
X157098690Y-60230000D03*
X126618690Y-103410000D03*
X146938690Y-60230000D03*
X116458690Y-80550000D03*
X144398690Y-85630000D03*
%TO.N,+3.3V*%
X142050000Y-66400000D03*
X155000000Y-66300000D03*
X130700000Y-65100000D03*
%TO.N,Net-(U4-BOOT0)*%
X134900000Y-63200000D03*
X112900000Y-74500000D03*
%TO.N,/~{NRST}*%
X145400000Y-61200000D03*
X140575000Y-75225000D03*
%TO.N,/MISO*%
X134200000Y-78000000D03*
X136050000Y-76550000D03*
%TO.N,Net-(U4-PA9)*%
X143046073Y-70073500D03*
X132875000Y-76925000D03*
%TO.N,/UART_RX*%
X144600000Y-70800000D03*
X137700000Y-75837500D03*
%TO.N,/~{CS}*%
X136000000Y-78225000D03*
X132800000Y-73700000D03*
%TO.N,/~{IMU_INTR}*%
X139200000Y-79277000D03*
X145400000Y-77700000D03*
%TD*%
D15*
%TO.N,+3.3V*%
X125250000Y-86500000D02*
X125250000Y-88000000D01*
X125250000Y-88000000D02*
X125250000Y-89000000D01*
X125250000Y-89000000D02*
X125250000Y-90000000D01*
X130700000Y-65100000D02*
X130700000Y-72100000D01*
X125250000Y-77550000D02*
X125250000Y-86500000D01*
X130700000Y-72100000D02*
X125250000Y-77550000D01*
D16*
X142150000Y-66300000D02*
X155000000Y-66300000D01*
X142050000Y-66400000D02*
X142150000Y-66300000D01*
D15*
%TO.N,Net-(U4-BOOT0)*%
X116350000Y-74500000D02*
X112900000Y-74500000D01*
X119250000Y-71600000D02*
X116350000Y-74500000D01*
X119250000Y-65800000D02*
X119250000Y-71600000D01*
X133900000Y-62200000D02*
X122850000Y-62200000D01*
X122850000Y-62200000D02*
X119250000Y-65800000D01*
X134900000Y-63200000D02*
X133900000Y-62200000D01*
%TO.N,/~{NRST}*%
X145800000Y-69700000D02*
X145800000Y-72700000D01*
X141200000Y-68200000D02*
X144300000Y-68200000D01*
X139500000Y-66500000D02*
X141200000Y-68200000D01*
X139500000Y-63600000D02*
X139500000Y-66500000D01*
X144300000Y-68200000D02*
X145800000Y-69700000D01*
X145200000Y-61400000D02*
X141700000Y-61400000D01*
X145400000Y-61200000D02*
X145200000Y-61400000D01*
X141700000Y-61400000D02*
X139500000Y-63600000D01*
X143275000Y-75225000D02*
X140575000Y-75225000D01*
X145800000Y-72700000D02*
X143275000Y-75225000D01*
%TO.N,/MISO*%
X134850000Y-76550000D02*
X136050000Y-76550000D01*
X134200000Y-77200000D02*
X134850000Y-76550000D01*
X134200000Y-78000000D02*
X134200000Y-77200000D01*
D16*
%TO.N,Net-(U4-PA9)*%
X134962500Y-74837500D02*
X132875000Y-76925000D01*
X136100000Y-74837500D02*
X134962500Y-74837500D01*
X140864000Y-70073500D02*
X136100000Y-74837500D01*
X143046073Y-70073500D02*
X140864000Y-70073500D01*
%TO.N,/UART_RX*%
X144600000Y-70800000D02*
X142737500Y-70800000D01*
X142737500Y-70800000D02*
X137700000Y-75837500D01*
D15*
%TO.N,/~{CS}*%
X132175000Y-77375000D02*
X132175000Y-74325000D01*
X136000000Y-78225000D02*
X135325000Y-78900000D01*
X132175000Y-74325000D02*
X132800000Y-73700000D01*
X135325000Y-78900000D02*
X133700000Y-78900000D01*
X133700000Y-78900000D02*
X132175000Y-77375000D01*
%TO.N,/~{IMU_INTR}*%
X139200000Y-79277000D02*
X140777000Y-77700000D01*
X140777000Y-77700000D02*
X145400000Y-77700000D01*
%TD*%
%TA.AperFunction,Conductor*%
%TO.N,GND*%
G36*
X156002854Y-55200632D02*
G01*
X156018811Y-55201369D01*
X156173088Y-55208502D01*
X156369795Y-55218166D01*
X156380787Y-55219201D01*
X156562876Y-55244601D01*
X156563781Y-55244732D01*
X156747261Y-55271949D01*
X156757413Y-55273892D01*
X156938614Y-55316510D01*
X156940023Y-55316852D01*
X157117874Y-55361401D01*
X157127091Y-55364096D01*
X157304478Y-55423550D01*
X157306618Y-55424292D01*
X157478220Y-55485692D01*
X157486519Y-55489004D01*
X157657980Y-55564712D01*
X157660909Y-55566051D01*
X157747263Y-55606892D01*
X157825119Y-55643715D01*
X157832411Y-55647465D01*
X157929135Y-55701341D01*
X157996435Y-55738827D01*
X157999810Y-55740777D01*
X158155371Y-55834017D01*
X158161670Y-55838058D01*
X158316699Y-55944256D01*
X158320459Y-55946935D01*
X158466009Y-56054882D01*
X158471305Y-56059040D01*
X158616009Y-56179200D01*
X158619947Y-56182617D01*
X158754206Y-56304303D01*
X158758590Y-56308478D01*
X158891520Y-56441408D01*
X158895698Y-56445795D01*
X159017375Y-56580045D01*
X159020805Y-56583998D01*
X159140951Y-56728684D01*
X159145124Y-56734000D01*
X159253041Y-56879509D01*
X159255742Y-56883299D01*
X159361940Y-57038328D01*
X159365999Y-57044656D01*
X159459200Y-57200153D01*
X159461171Y-57203563D01*
X159552525Y-57367573D01*
X159556291Y-57374896D01*
X159633947Y-57539089D01*
X159635286Y-57542018D01*
X159710994Y-57713479D01*
X159714311Y-57721791D01*
X159775666Y-57893265D01*
X159776487Y-57895634D01*
X159835894Y-58072881D01*
X159838606Y-58082157D01*
X159883104Y-58259803D01*
X159883526Y-58261543D01*
X159926101Y-58442562D01*
X159928053Y-58452758D01*
X159955257Y-58636156D01*
X159955410Y-58637218D01*
X159980794Y-58819184D01*
X159981834Y-58830232D01*
X159991512Y-59027238D01*
X159991529Y-59027595D01*
X159999368Y-59197145D01*
X159999500Y-59202872D01*
X159999500Y-101197145D01*
X159999369Y-101202846D01*
X159991510Y-101373591D01*
X159991493Y-101373947D01*
X159982001Y-101568041D01*
X159980971Y-101579039D01*
X159955706Y-101760990D01*
X159955554Y-101762048D01*
X159928712Y-101943839D01*
X159926778Y-101953990D01*
X159884448Y-102134813D01*
X159884029Y-102136545D01*
X159840070Y-102312870D01*
X159837382Y-102322108D01*
X159778387Y-102498983D01*
X159777574Y-102501341D01*
X159716874Y-102671823D01*
X159713586Y-102680104D01*
X159638429Y-102851186D01*
X159637102Y-102854105D01*
X159560252Y-103017436D01*
X159556519Y-103024734D01*
X159465813Y-103188467D01*
X159463859Y-103191865D01*
X159371593Y-103346659D01*
X159367569Y-103352969D01*
X159262144Y-103507772D01*
X159259464Y-103511553D01*
X159152607Y-103656505D01*
X159148442Y-103661843D01*
X159029197Y-103806364D01*
X159025707Y-103810414D01*
X158905248Y-103944213D01*
X158901085Y-103948616D01*
X158769064Y-104081577D01*
X158764692Y-104085770D01*
X158631739Y-104207190D01*
X158627714Y-104210709D01*
X158484073Y-104330953D01*
X158478765Y-104335156D01*
X158334535Y-104443071D01*
X158330773Y-104445777D01*
X158176756Y-104552277D01*
X158170475Y-104556346D01*
X158016310Y-104649729D01*
X158012925Y-104651707D01*
X157849867Y-104743560D01*
X157842596Y-104747345D01*
X157679830Y-104825346D01*
X157676921Y-104826694D01*
X157506353Y-104903076D01*
X157498095Y-104906423D01*
X157328076Y-104968323D01*
X157325724Y-104969153D01*
X157149248Y-105029412D01*
X157140029Y-105032165D01*
X156963951Y-105077394D01*
X156962222Y-105077825D01*
X156871549Y-105099732D01*
X156842552Y-105103200D01*
X113386855Y-105146569D01*
X113368537Y-105145227D01*
X113252757Y-105128053D01*
X113242561Y-105126101D01*
X113061543Y-105083526D01*
X113059803Y-105083104D01*
X112882157Y-105038606D01*
X112872881Y-105035894D01*
X112695634Y-104976487D01*
X112693265Y-104975666D01*
X112521791Y-104914311D01*
X112513479Y-104910994D01*
X112342018Y-104835286D01*
X112339089Y-104833947D01*
X112174896Y-104756291D01*
X112167573Y-104752525D01*
X112003563Y-104661171D01*
X112000153Y-104659200D01*
X111980648Y-104647509D01*
X111844645Y-104565992D01*
X111838328Y-104561940D01*
X111683299Y-104455742D01*
X111679509Y-104453041D01*
X111666066Y-104443071D01*
X111534000Y-104345124D01*
X111528684Y-104340951D01*
X111383998Y-104220805D01*
X111380045Y-104217375D01*
X111245795Y-104095698D01*
X111241408Y-104091520D01*
X111108478Y-103958590D01*
X111104303Y-103954206D01*
X110982617Y-103819947D01*
X110979200Y-103816009D01*
X110859040Y-103671305D01*
X110854882Y-103666009D01*
X110746935Y-103520459D01*
X110744256Y-103516699D01*
X110638058Y-103361670D01*
X110634017Y-103355371D01*
X110540777Y-103199810D01*
X110538827Y-103196435D01*
X110447465Y-103032411D01*
X110443715Y-103025119D01*
X110389769Y-102911058D01*
X110366051Y-102860909D01*
X110364712Y-102857980D01*
X110289004Y-102686519D01*
X110285692Y-102678220D01*
X110224292Y-102506618D01*
X110223550Y-102504478D01*
X110164096Y-102327091D01*
X110161401Y-102317874D01*
X110116852Y-102140023D01*
X110116510Y-102138614D01*
X110073892Y-101957413D01*
X110071949Y-101947261D01*
X110044732Y-101763781D01*
X110044588Y-101762780D01*
X110044486Y-101762048D01*
X110019201Y-101580787D01*
X110018166Y-101569795D01*
X110008480Y-101372611D01*
X110001322Y-101217764D01*
X112095787Y-101217764D01*
X112125413Y-101487016D01*
X112149471Y-101579039D01*
X112193928Y-101749088D01*
X112299870Y-101998390D01*
X112299871Y-101998392D01*
X112440982Y-102229611D01*
X112614253Y-102437818D01*
X112614255Y-102437820D01*
X112815998Y-102618582D01*
X113041910Y-102768044D01*
X113133027Y-102810758D01*
X113287177Y-102883021D01*
X113511469Y-102950500D01*
X113546569Y-102961060D01*
X113814561Y-103000500D01*
X114017631Y-103000500D01*
X114017634Y-103000500D01*
X114220156Y-102985677D01*
X114233381Y-102982731D01*
X114484553Y-102926780D01*
X114737558Y-102830014D01*
X114973777Y-102697441D01*
X115188177Y-102531888D01*
X115376186Y-102336881D01*
X115523247Y-102131328D01*
X118795709Y-102131328D01*
X118825925Y-102354388D01*
X118883598Y-102531888D01*
X118895483Y-102568464D01*
X119002148Y-102766681D01*
X119142492Y-102942666D01*
X119312004Y-103090765D01*
X119312006Y-103090766D01*
X119505237Y-103206216D01*
X119623214Y-103250493D01*
X119715976Y-103285307D01*
X119937453Y-103325500D01*
X120106153Y-103325500D01*
X120106155Y-103325500D01*
X120274188Y-103310377D01*
X120491170Y-103250493D01*
X120693973Y-103152829D01*
X120876078Y-103020522D01*
X121031632Y-102857825D01*
X121155635Y-102669968D01*
X121244103Y-102462988D01*
X121294191Y-102243537D01*
X121299230Y-102131328D01*
X122795709Y-102131328D01*
X122825925Y-102354388D01*
X122883598Y-102531888D01*
X122895483Y-102568464D01*
X123002148Y-102766681D01*
X123142492Y-102942666D01*
X123312004Y-103090765D01*
X123312006Y-103090766D01*
X123505237Y-103206216D01*
X123623214Y-103250493D01*
X123715976Y-103285307D01*
X123937453Y-103325500D01*
X124106153Y-103325500D01*
X124106155Y-103325500D01*
X124274188Y-103310377D01*
X124491170Y-103250493D01*
X124693973Y-103152829D01*
X124876078Y-103020522D01*
X125031632Y-102857825D01*
X125155635Y-102669968D01*
X125244103Y-102462988D01*
X125294191Y-102243537D01*
X125299230Y-102131328D01*
X144695709Y-102131328D01*
X144725925Y-102354388D01*
X144783598Y-102531888D01*
X144795483Y-102568464D01*
X144902148Y-102766681D01*
X145042492Y-102942666D01*
X145212004Y-103090765D01*
X145212006Y-103090766D01*
X145405237Y-103206216D01*
X145523214Y-103250493D01*
X145615976Y-103285307D01*
X145837453Y-103325500D01*
X146006153Y-103325500D01*
X146006155Y-103325500D01*
X146174188Y-103310377D01*
X146391170Y-103250493D01*
X146593973Y-103152829D01*
X146776078Y-103020522D01*
X146931632Y-102857825D01*
X147055635Y-102669968D01*
X147144103Y-102462988D01*
X147194191Y-102243537D01*
X147199230Y-102131328D01*
X148695709Y-102131328D01*
X148725925Y-102354388D01*
X148783598Y-102531888D01*
X148795483Y-102568464D01*
X148902148Y-102766681D01*
X149042492Y-102942666D01*
X149212004Y-103090765D01*
X149212006Y-103090766D01*
X149405237Y-103206216D01*
X149523214Y-103250493D01*
X149615976Y-103285307D01*
X149837453Y-103325500D01*
X150006153Y-103325500D01*
X150006155Y-103325500D01*
X150174188Y-103310377D01*
X150391170Y-103250493D01*
X150593973Y-103152829D01*
X150776078Y-103020522D01*
X150931632Y-102857825D01*
X151055635Y-102669968D01*
X151144103Y-102462988D01*
X151194191Y-102243537D01*
X151204290Y-102018670D01*
X151174075Y-101795613D01*
X151104517Y-101581536D01*
X150997852Y-101383319D01*
X150877737Y-101232701D01*
X150857509Y-101207335D01*
X150852371Y-101202846D01*
X150812217Y-101167764D01*
X154195787Y-101167764D01*
X154225413Y-101437016D01*
X154259493Y-101567372D01*
X154293928Y-101699088D01*
X154382053Y-101906462D01*
X154399871Y-101948392D01*
X154540982Y-102179611D01*
X154714253Y-102387818D01*
X154714255Y-102387820D01*
X154915998Y-102568582D01*
X155141910Y-102718044D01*
X155245662Y-102766681D01*
X155387177Y-102833021D01*
X155646562Y-102911058D01*
X155646569Y-102911060D01*
X155914561Y-102950500D01*
X156117631Y-102950500D01*
X156117634Y-102950500D01*
X156320156Y-102935677D01*
X156320155Y-102935677D01*
X156584553Y-102876780D01*
X156837558Y-102780014D01*
X157073777Y-102647441D01*
X157288177Y-102481888D01*
X157476186Y-102286881D01*
X157633799Y-102066579D01*
X157757656Y-101825675D01*
X157845118Y-101569305D01*
X157894319Y-101302933D01*
X157904212Y-101032235D01*
X157874586Y-100762982D01*
X157806072Y-100500912D01*
X157700130Y-100251610D01*
X157589533Y-100070390D01*
X157559017Y-100020388D01*
X157385746Y-99812181D01*
X157280758Y-99718112D01*
X157184002Y-99631418D01*
X156958090Y-99481956D01*
X156932556Y-99469986D01*
X156712822Y-99366978D01*
X156453437Y-99288941D01*
X156453431Y-99288940D01*
X156185439Y-99249500D01*
X155982369Y-99249500D01*
X155982366Y-99249500D01*
X155779843Y-99264322D01*
X155515449Y-99323219D01*
X155262441Y-99419986D01*
X155026223Y-99552559D01*
X154811825Y-99718109D01*
X154623813Y-99913120D01*
X154466201Y-100133420D01*
X154342342Y-100374329D01*
X154254881Y-100630695D01*
X154205680Y-100897066D01*
X154195787Y-101167764D01*
X150812217Y-101167764D01*
X150687996Y-101059235D01*
X150687993Y-101059233D01*
X150494762Y-100943783D01*
X150284025Y-100864693D01*
X150062547Y-100824500D01*
X149893845Y-100824500D01*
X149826631Y-100830549D01*
X149725809Y-100839623D01*
X149508828Y-100899507D01*
X149306027Y-100997170D01*
X149123925Y-101129475D01*
X148968365Y-101292178D01*
X148844365Y-101480031D01*
X148755896Y-101687012D01*
X148705809Y-101906462D01*
X148695709Y-102131328D01*
X147199230Y-102131328D01*
X147204290Y-102018670D01*
X147174075Y-101795613D01*
X147104517Y-101581536D01*
X146997852Y-101383319D01*
X146877737Y-101232701D01*
X146857509Y-101207335D01*
X146852371Y-101202846D01*
X146687996Y-101059235D01*
X146687993Y-101059233D01*
X146494762Y-100943783D01*
X146284025Y-100864693D01*
X146062547Y-100824500D01*
X145893845Y-100824500D01*
X145826631Y-100830549D01*
X145725809Y-100839623D01*
X145508828Y-100899507D01*
X145306027Y-100997170D01*
X145123925Y-101129475D01*
X144968365Y-101292178D01*
X144844365Y-101480031D01*
X144755896Y-101687012D01*
X144705809Y-101906462D01*
X144695709Y-102131328D01*
X125299230Y-102131328D01*
X125304290Y-102018670D01*
X125274075Y-101795613D01*
X125204517Y-101581536D01*
X125097852Y-101383319D01*
X124977737Y-101232701D01*
X124957509Y-101207335D01*
X124952371Y-101202846D01*
X124787996Y-101059235D01*
X124787993Y-101059233D01*
X124594762Y-100943783D01*
X124384025Y-100864693D01*
X124162547Y-100824500D01*
X123993845Y-100824500D01*
X123926631Y-100830549D01*
X123825809Y-100839623D01*
X123608828Y-100899507D01*
X123406027Y-100997170D01*
X123223925Y-101129475D01*
X123068365Y-101292178D01*
X122944365Y-101480031D01*
X122855896Y-101687012D01*
X122805809Y-101906462D01*
X122795709Y-102131328D01*
X121299230Y-102131328D01*
X121304290Y-102018670D01*
X121274075Y-101795613D01*
X121204517Y-101581536D01*
X121097852Y-101383319D01*
X120977737Y-101232701D01*
X120957509Y-101207335D01*
X120952371Y-101202846D01*
X120787996Y-101059235D01*
X120787993Y-101059233D01*
X120594762Y-100943783D01*
X120384025Y-100864693D01*
X120162547Y-100824500D01*
X119993845Y-100824500D01*
X119926631Y-100830549D01*
X119825809Y-100839623D01*
X119608828Y-100899507D01*
X119406027Y-100997170D01*
X119223925Y-101129475D01*
X119068365Y-101292178D01*
X118944365Y-101480031D01*
X118855896Y-101687012D01*
X118805809Y-101906462D01*
X118795709Y-102131328D01*
X115523247Y-102131328D01*
X115533799Y-102116579D01*
X115657656Y-101875675D01*
X115745118Y-101619305D01*
X115794319Y-101352933D01*
X115804212Y-101082235D01*
X115774586Y-100812982D01*
X115706072Y-100550912D01*
X115600130Y-100301610D01*
X115527999Y-100183420D01*
X115459017Y-100070388D01*
X115285746Y-99862181D01*
X115229941Y-99812180D01*
X115084002Y-99681418D01*
X114858090Y-99531956D01*
X114858086Y-99531954D01*
X114612822Y-99416978D01*
X114353437Y-99338941D01*
X114353431Y-99338940D01*
X114085439Y-99299500D01*
X113882369Y-99299500D01*
X113882366Y-99299500D01*
X113679843Y-99314322D01*
X113415449Y-99373219D01*
X113162441Y-99469986D01*
X112926223Y-99602559D01*
X112711825Y-99768109D01*
X112523813Y-99963120D01*
X112366201Y-100183420D01*
X112242342Y-100424329D01*
X112154881Y-100680695D01*
X112105680Y-100947066D01*
X112095787Y-101217764D01*
X110001322Y-101217764D01*
X110000632Y-101202846D01*
X110000500Y-101197128D01*
X110000500Y-93722869D01*
X118949500Y-93722869D01*
X118955909Y-93782483D01*
X119006204Y-93917331D01*
X119092454Y-94032546D01*
X119207669Y-94118796D01*
X119342517Y-94169091D01*
X119402127Y-94175500D01*
X120697872Y-94175499D01*
X120757483Y-94169091D01*
X120892331Y-94118796D01*
X121007546Y-94032546D01*
X121024993Y-94009240D01*
X123469310Y-94009240D01*
X123557588Y-94063899D01*
X123747679Y-94137540D01*
X123948072Y-94175000D01*
X124151928Y-94175000D01*
X124352320Y-94137540D01*
X124542411Y-94063899D01*
X124630688Y-94009240D01*
X124344317Y-93722869D01*
X144849500Y-93722869D01*
X144855909Y-93782483D01*
X144906204Y-93917331D01*
X144992454Y-94032546D01*
X145107669Y-94118796D01*
X145242517Y-94169091D01*
X145302127Y-94175500D01*
X146597872Y-94175499D01*
X146657483Y-94169091D01*
X146792331Y-94118796D01*
X146907546Y-94032546D01*
X146993796Y-93917331D01*
X147044091Y-93782483D01*
X147050500Y-93722873D01*
X147050499Y-93075000D01*
X148844785Y-93075000D01*
X148863602Y-93278083D01*
X148919418Y-93474251D01*
X149010324Y-93656818D01*
X149133236Y-93819580D01*
X149283958Y-93956981D01*
X149457361Y-94064347D01*
X149457363Y-94064348D01*
X149647544Y-94138024D01*
X149848024Y-94175500D01*
X150051974Y-94175500D01*
X150051976Y-94175500D01*
X150252456Y-94138024D01*
X150442637Y-94064348D01*
X150616041Y-93956981D01*
X150766764Y-93819579D01*
X150889673Y-93656821D01*
X150889673Y-93656819D01*
X150889675Y-93656818D01*
X150935313Y-93565161D01*
X150980582Y-93474250D01*
X151036397Y-93278083D01*
X151055215Y-93075000D01*
X151036397Y-92871917D01*
X150980582Y-92675750D01*
X150980209Y-92675001D01*
X150889675Y-92493181D01*
X150766763Y-92330419D01*
X150616041Y-92193018D01*
X150442638Y-92085652D01*
X150252457Y-92011976D01*
X150185629Y-91999484D01*
X150051976Y-91974500D01*
X149848024Y-91974500D01*
X149747784Y-91993237D01*
X149647542Y-92011976D01*
X149457361Y-92085652D01*
X149283958Y-92193018D01*
X149133236Y-92330419D01*
X149010324Y-92493181D01*
X148919418Y-92675748D01*
X148863602Y-92871916D01*
X148844785Y-93075000D01*
X147050499Y-93075000D01*
X147050499Y-92427128D01*
X147044091Y-92367517D01*
X146993796Y-92232669D01*
X146907546Y-92117454D01*
X146792331Y-92031204D01*
X146657483Y-91980909D01*
X146597873Y-91974500D01*
X146597869Y-91974500D01*
X145302130Y-91974500D01*
X145242515Y-91980909D01*
X145107669Y-92031204D01*
X144992454Y-92117454D01*
X144906204Y-92232668D01*
X144855909Y-92367516D01*
X144849500Y-92427130D01*
X144849500Y-93722869D01*
X124344317Y-93722869D01*
X124050001Y-93428553D01*
X124050000Y-93428553D01*
X123469310Y-94009240D01*
X121024993Y-94009240D01*
X121093796Y-93917331D01*
X121144091Y-93782483D01*
X121150500Y-93722873D01*
X121150499Y-93074999D01*
X122945287Y-93074999D01*
X122964096Y-93277992D01*
X123019885Y-93474068D01*
X123110751Y-93656552D01*
X123112532Y-93658912D01*
X123112533Y-93658913D01*
X123696447Y-93075001D01*
X123696447Y-93075000D01*
X124403553Y-93075000D01*
X124987465Y-93658912D01*
X124989247Y-93656553D01*
X125080115Y-93474066D01*
X125135903Y-93277992D01*
X125154712Y-93074999D01*
X125135903Y-92872007D01*
X125080114Y-92675931D01*
X124989248Y-92493448D01*
X124987465Y-92491086D01*
X124987465Y-92491085D01*
X124403553Y-93075000D01*
X123696447Y-93075000D01*
X123112533Y-92491085D01*
X123110753Y-92493444D01*
X123019884Y-92675933D01*
X122964096Y-92872007D01*
X122945287Y-93074999D01*
X121150499Y-93074999D01*
X121150499Y-92427128D01*
X121144091Y-92367517D01*
X121093796Y-92232669D01*
X121024991Y-92140758D01*
X123469310Y-92140758D01*
X124050000Y-92721447D01*
X124050001Y-92721447D01*
X124630688Y-92140758D01*
X124630687Y-92140757D01*
X124542414Y-92086101D01*
X124352320Y-92012459D01*
X124151928Y-91975000D01*
X123948072Y-91975000D01*
X123747679Y-92012459D01*
X123557589Y-92086100D01*
X123469310Y-92140758D01*
X121024991Y-92140758D01*
X121007546Y-92117454D01*
X120892331Y-92031204D01*
X120757483Y-91980909D01*
X120697873Y-91974500D01*
X120697869Y-91974500D01*
X119402130Y-91974500D01*
X119342515Y-91980909D01*
X119207669Y-92031204D01*
X119092454Y-92117454D01*
X119006204Y-92232668D01*
X118955909Y-92367516D01*
X118949500Y-92427130D01*
X118949500Y-93722869D01*
X110000500Y-93722869D01*
X110000500Y-89000000D01*
X124594721Y-89000000D01*
X124613762Y-89156817D01*
X124613763Y-89156818D01*
X124669780Y-89304523D01*
X124759517Y-89434530D01*
X124857728Y-89521536D01*
X124888575Y-89563460D01*
X124899500Y-89614351D01*
X124899500Y-90029038D01*
X124913908Y-90115381D01*
X124969582Y-90218259D01*
X125055642Y-90297483D01*
X125055643Y-90297483D01*
X125055644Y-90297484D01*
X125162768Y-90344473D01*
X125279344Y-90354132D01*
X125392741Y-90325416D01*
X125490669Y-90261437D01*
X125562517Y-90169126D01*
X125600500Y-90058488D01*
X125600500Y-89614351D01*
X125611425Y-89563460D01*
X125642271Y-89521536D01*
X125740483Y-89434530D01*
X125830220Y-89304523D01*
X125886237Y-89156818D01*
X125905278Y-89000000D01*
X125886237Y-88843182D01*
X125830220Y-88695477D01*
X125743914Y-88570440D01*
X125724470Y-88524803D01*
X125724470Y-88475197D01*
X125743914Y-88429560D01*
X125771515Y-88389571D01*
X125830220Y-88304523D01*
X125886237Y-88156818D01*
X125905278Y-88000000D01*
X125886237Y-87843182D01*
X125830220Y-87695477D01*
X125740483Y-87565470D01*
X125642271Y-87478463D01*
X125611425Y-87436540D01*
X125600500Y-87385649D01*
X125600500Y-87114351D01*
X125611425Y-87063460D01*
X125642271Y-87021536D01*
X125740483Y-86934530D01*
X125830220Y-86804523D01*
X125886237Y-86656818D01*
X125905278Y-86500000D01*
X125886237Y-86343182D01*
X125830220Y-86195477D01*
X125740483Y-86065470D01*
X125642271Y-85978463D01*
X125611425Y-85936540D01*
X125600500Y-85885649D01*
X125600500Y-84025000D01*
X142229785Y-84025000D01*
X142248602Y-84228083D01*
X142304418Y-84424251D01*
X142395324Y-84606818D01*
X142518236Y-84769580D01*
X142668958Y-84906981D01*
X142842361Y-85014347D01*
X142842363Y-85014348D01*
X143032544Y-85088024D01*
X143233024Y-85125500D01*
X143436974Y-85125500D01*
X143436976Y-85125500D01*
X143637456Y-85088024D01*
X143827637Y-85014348D01*
X144001041Y-84906981D01*
X144009055Y-84899675D01*
X144774500Y-84899675D01*
X144789033Y-84972738D01*
X144789033Y-84972739D01*
X144789034Y-84972740D01*
X144844399Y-85055601D01*
X144927260Y-85110966D01*
X144963792Y-85118232D01*
X145000325Y-85125500D01*
X145000326Y-85125500D01*
X146749674Y-85125500D01*
X146749675Y-85125500D01*
X146774029Y-85120655D01*
X146822740Y-85110966D01*
X146905601Y-85055601D01*
X146960966Y-84972740D01*
X146975500Y-84899674D01*
X146975500Y-83150326D01*
X146960966Y-83077260D01*
X146905601Y-82994399D01*
X146822740Y-82939034D01*
X146822739Y-82939033D01*
X146822738Y-82939033D01*
X146749675Y-82924500D01*
X146749674Y-82924500D01*
X145000326Y-82924500D01*
X145000325Y-82924500D01*
X144927261Y-82939033D01*
X144844399Y-82994399D01*
X144789033Y-83077261D01*
X144774500Y-83150325D01*
X144774500Y-84899675D01*
X144009055Y-84899675D01*
X144151764Y-84769579D01*
X144274673Y-84606821D01*
X144274673Y-84606819D01*
X144274675Y-84606818D01*
X144320313Y-84515161D01*
X144365582Y-84424250D01*
X144421397Y-84228083D01*
X144440215Y-84025000D01*
X144421397Y-83821917D01*
X144365582Y-83625750D01*
X144365209Y-83625001D01*
X144274675Y-83443181D01*
X144151763Y-83280419D01*
X144001041Y-83143018D01*
X143827638Y-83035652D01*
X143637457Y-82961976D01*
X143514726Y-82939034D01*
X143436976Y-82924500D01*
X143233024Y-82924500D01*
X143155279Y-82939033D01*
X143032542Y-82961976D01*
X142842361Y-83035652D01*
X142668958Y-83143018D01*
X142518236Y-83280419D01*
X142395324Y-83443181D01*
X142304418Y-83625748D01*
X142248602Y-83821916D01*
X142229785Y-84025000D01*
X125600500Y-84025000D01*
X125600500Y-79276999D01*
X138544721Y-79276999D01*
X138563763Y-79433818D01*
X138619780Y-79581523D01*
X138709515Y-79711528D01*
X138709516Y-79711529D01*
X138709517Y-79711530D01*
X138827760Y-79816283D01*
X138967635Y-79889696D01*
X139121015Y-79927500D01*
X139278985Y-79927500D01*
X139432365Y-79889696D01*
X139572240Y-79816283D01*
X139690483Y-79711530D01*
X139780220Y-79581523D01*
X139836237Y-79433818D01*
X139855278Y-79277000D01*
X139845274Y-79194615D01*
X139851153Y-79139222D01*
X139880687Y-79091992D01*
X140885861Y-78086819D01*
X140926090Y-78059939D01*
X140973543Y-78050500D01*
X144786436Y-78050500D01*
X144844062Y-78064704D01*
X144888484Y-78104058D01*
X144909517Y-78134530D01*
X145027760Y-78239283D01*
X145167635Y-78312696D01*
X145321015Y-78350500D01*
X145478985Y-78350500D01*
X145632365Y-78312696D01*
X145772240Y-78239283D01*
X145890483Y-78134530D01*
X145980220Y-78004523D01*
X146036237Y-77856818D01*
X146055278Y-77700000D01*
X146036237Y-77543182D01*
X145980220Y-77395477D01*
X145906422Y-77288561D01*
X145890484Y-77265471D01*
X145890483Y-77265470D01*
X145772240Y-77160717D01*
X145749792Y-77148935D01*
X145632364Y-77087303D01*
X145478985Y-77049500D01*
X145321015Y-77049500D01*
X145167635Y-77087303D01*
X145027761Y-77160716D01*
X145027759Y-77160717D01*
X145027760Y-77160717D01*
X144909517Y-77265470D01*
X144888484Y-77295941D01*
X144844062Y-77335296D01*
X144786436Y-77349500D01*
X140826212Y-77349500D01*
X140800766Y-77346861D01*
X140791685Y-77344957D01*
X140762877Y-77348548D01*
X140748201Y-77349458D01*
X140728961Y-77352668D01*
X140723903Y-77353405D01*
X140668189Y-77360351D01*
X140618813Y-77387072D01*
X140614261Y-77389415D01*
X140563804Y-77414082D01*
X140525780Y-77455387D01*
X140522233Y-77459083D01*
X139389274Y-78592042D01*
X139334896Y-78623805D01*
X139294040Y-78624425D01*
X139294040Y-78626500D01*
X139121015Y-78626500D01*
X138967635Y-78664303D01*
X138827761Y-78737716D01*
X138709515Y-78842471D01*
X138619780Y-78972476D01*
X138563763Y-79120181D01*
X138544721Y-79276999D01*
X125600500Y-79276999D01*
X125600500Y-77746544D01*
X125609939Y-77699091D01*
X125636819Y-77658863D01*
X125935367Y-77360315D01*
X131819957Y-77360315D01*
X131820054Y-77361091D01*
X131823548Y-77389123D01*
X131824458Y-77403795D01*
X131827665Y-77423013D01*
X131828403Y-77428078D01*
X131835351Y-77483809D01*
X131862081Y-77533202D01*
X131864421Y-77537747D01*
X131885802Y-77581484D01*
X131885803Y-77581485D01*
X131889084Y-77588196D01*
X131894581Y-77593256D01*
X131894582Y-77593258D01*
X131930399Y-77626230D01*
X131934097Y-77629779D01*
X133417361Y-79113043D01*
X133433489Y-79132903D01*
X133437617Y-79139222D01*
X133438563Y-79140669D01*
X133461473Y-79158500D01*
X133472496Y-79168235D01*
X133488355Y-79179558D01*
X133492464Y-79182622D01*
X133500913Y-79189198D01*
X133529829Y-79211704D01*
X133536773Y-79217108D01*
X133590593Y-79233131D01*
X133595437Y-79234682D01*
X133641512Y-79250500D01*
X133641515Y-79250500D01*
X133648579Y-79252925D01*
X133656044Y-79252616D01*
X133656046Y-79252617D01*
X133704678Y-79250606D01*
X133709802Y-79250500D01*
X135275788Y-79250500D01*
X135301234Y-79253139D01*
X135302556Y-79253416D01*
X135310315Y-79255043D01*
X135336364Y-79251795D01*
X135339123Y-79251452D01*
X135353795Y-79250541D01*
X135373013Y-79247334D01*
X135378069Y-79246596D01*
X135426393Y-79240573D01*
X135426394Y-79240572D01*
X135433808Y-79239648D01*
X135440378Y-79236092D01*
X135440381Y-79236092D01*
X135483201Y-79212918D01*
X135487747Y-79210577D01*
X135531484Y-79189198D01*
X135531486Y-79189195D01*
X135538195Y-79185916D01*
X135543254Y-79180419D01*
X135543258Y-79180418D01*
X135576254Y-79144572D01*
X135579756Y-79140924D01*
X135810725Y-78909955D01*
X135865105Y-78878193D01*
X135905959Y-78877575D01*
X135905959Y-78875500D01*
X136078985Y-78875500D01*
X136232365Y-78837696D01*
X136372240Y-78764283D01*
X136490483Y-78659530D01*
X136580220Y-78529523D01*
X136636237Y-78381818D01*
X136655278Y-78225000D01*
X136636237Y-78068182D01*
X136580220Y-77920477D01*
X136490483Y-77790470D01*
X136372240Y-77685717D01*
X136321075Y-77658863D01*
X136232364Y-77612303D01*
X136078985Y-77574500D01*
X135921015Y-77574500D01*
X135767635Y-77612303D01*
X135627761Y-77685716D01*
X135509515Y-77790471D01*
X135419780Y-77920476D01*
X135363763Y-78068181D01*
X135344721Y-78225000D01*
X135354724Y-78307380D01*
X135348845Y-78362775D01*
X135319310Y-78410006D01*
X135216138Y-78513180D01*
X135175909Y-78540061D01*
X135128456Y-78549500D01*
X134847387Y-78549500D01*
X134783237Y-78531617D01*
X134737590Y-78483126D01*
X134723613Y-78418013D01*
X134745337Y-78355060D01*
X134748484Y-78350500D01*
X134780220Y-78304523D01*
X134836237Y-78156818D01*
X134855278Y-78000000D01*
X134836237Y-77843182D01*
X134780220Y-77695477D01*
X134734872Y-77629779D01*
X134690482Y-77565468D01*
X134598050Y-77483581D01*
X134561892Y-77427656D01*
X134559880Y-77361091D01*
X134592594Y-77303087D01*
X134958862Y-76936818D01*
X134999090Y-76909939D01*
X135046543Y-76900500D01*
X135436436Y-76900500D01*
X135494062Y-76914704D01*
X135538484Y-76954058D01*
X135559517Y-76984530D01*
X135677760Y-77089283D01*
X135817635Y-77162696D01*
X135971015Y-77200500D01*
X136128985Y-77200500D01*
X136282365Y-77162696D01*
X136422240Y-77089283D01*
X136540483Y-76984530D01*
X136630220Y-76854523D01*
X136686237Y-76706818D01*
X136705278Y-76550000D01*
X136686237Y-76393182D01*
X136630220Y-76245477D01*
X136540483Y-76115470D01*
X136422240Y-76010717D01*
X136390995Y-75994318D01*
X136282364Y-75937303D01*
X136128985Y-75899500D01*
X135971015Y-75899500D01*
X135817635Y-75937303D01*
X135677761Y-76010716D01*
X135677759Y-76010717D01*
X135677760Y-76010717D01*
X135559517Y-76115470D01*
X135538484Y-76145941D01*
X135494062Y-76185296D01*
X135436436Y-76199500D01*
X134899212Y-76199500D01*
X134873766Y-76196861D01*
X134864685Y-76194957D01*
X134835877Y-76198548D01*
X134821201Y-76199458D01*
X134801961Y-76202668D01*
X134796903Y-76203405D01*
X134741189Y-76210351D01*
X134691813Y-76237072D01*
X134687261Y-76239415D01*
X134636804Y-76264082D01*
X134598780Y-76305387D01*
X134595233Y-76309083D01*
X133986955Y-76917361D01*
X133967104Y-76933483D01*
X133959332Y-76938561D01*
X133941500Y-76961471D01*
X133931765Y-76972496D01*
X133920441Y-76988357D01*
X133917392Y-76992445D01*
X133900954Y-77013566D01*
X133882891Y-77036773D01*
X133866871Y-77090582D01*
X133865309Y-77095458D01*
X133847074Y-77148577D01*
X133849394Y-77204668D01*
X133849500Y-77209792D01*
X133849500Y-77385649D01*
X133838575Y-77436540D01*
X133807728Y-77478463D01*
X133734675Y-77543182D01*
X133709516Y-77565471D01*
X133619780Y-77695476D01*
X133563763Y-77843181D01*
X133548454Y-77969261D01*
X133521802Y-78032253D01*
X133465807Y-78071531D01*
X133397505Y-78075145D01*
X133337677Y-78041995D01*
X133043018Y-77747336D01*
X133010764Y-77691144D01*
X133011254Y-77626354D01*
X133044356Y-77570656D01*
X133101028Y-77539257D01*
X133107365Y-77537696D01*
X133247240Y-77464283D01*
X133365483Y-77359530D01*
X133455220Y-77229523D01*
X133511237Y-77081818D01*
X133530278Y-76925000D01*
X133524409Y-76876666D01*
X133530288Y-76821272D01*
X133559822Y-76774042D01*
X135082546Y-75251319D01*
X135122775Y-75224439D01*
X135170228Y-75215000D01*
X136047988Y-75215000D01*
X136073434Y-75217639D01*
X136084184Y-75219893D01*
X136115801Y-75215951D01*
X136131138Y-75215000D01*
X136131276Y-75215000D01*
X136131281Y-75215000D01*
X136151964Y-75211548D01*
X136156927Y-75210825D01*
X136209203Y-75204310D01*
X136209204Y-75204309D01*
X136217007Y-75203337D01*
X136217344Y-75203229D01*
X136224264Y-75199483D01*
X136224269Y-75199483D01*
X136270604Y-75174406D01*
X136275069Y-75172108D01*
X136322389Y-75148976D01*
X136322392Y-75148972D01*
X136329461Y-75145517D01*
X136329740Y-75145310D01*
X136335068Y-75139521D01*
X136335071Y-75139520D01*
X136370754Y-75100756D01*
X136374255Y-75097108D01*
X140984046Y-70487319D01*
X141024275Y-70460439D01*
X141071728Y-70451000D01*
X142253272Y-70451000D01*
X142309567Y-70464515D01*
X142353590Y-70502115D01*
X142375745Y-70555602D01*
X142371203Y-70613318D01*
X142340953Y-70662680D01*
X140096096Y-72907537D01*
X137852952Y-75150681D01*
X137812724Y-75177561D01*
X137765271Y-75187000D01*
X137621015Y-75187000D01*
X137467635Y-75224803D01*
X137327761Y-75298216D01*
X137209515Y-75402971D01*
X137119780Y-75532976D01*
X137063763Y-75680681D01*
X137044721Y-75837500D01*
X137063763Y-75994318D01*
X137119780Y-76142023D01*
X137209515Y-76272028D01*
X137209516Y-76272029D01*
X137209517Y-76272030D01*
X137327760Y-76376783D01*
X137467635Y-76450196D01*
X137621015Y-76488000D01*
X137778985Y-76488000D01*
X137932365Y-76450196D01*
X138072240Y-76376783D01*
X138190483Y-76272030D01*
X138280220Y-76142023D01*
X138336237Y-75994318D01*
X138355278Y-75837500D01*
X138349409Y-75789165D01*
X138355288Y-75733771D01*
X138384822Y-75686541D01*
X142857546Y-71213819D01*
X142897775Y-71186939D01*
X142945228Y-71177500D01*
X144005072Y-71177500D01*
X144062698Y-71191704D01*
X144107122Y-71231060D01*
X144109515Y-71234528D01*
X144109516Y-71234529D01*
X144109517Y-71234530D01*
X144227760Y-71339283D01*
X144367635Y-71412696D01*
X144521015Y-71450500D01*
X144678985Y-71450500D01*
X144832365Y-71412696D01*
X144972240Y-71339283D01*
X145090483Y-71234530D01*
X145180220Y-71104523D01*
X145209557Y-71027165D01*
X145250212Y-70972608D01*
X145313532Y-70947715D01*
X145380456Y-70959979D01*
X145430834Y-71005709D01*
X145449500Y-71071136D01*
X145449500Y-72503456D01*
X145440061Y-72550909D01*
X145413181Y-72591137D01*
X143166137Y-74838181D01*
X143125909Y-74865061D01*
X143078456Y-74874500D01*
X141188564Y-74874500D01*
X141130938Y-74860296D01*
X141086515Y-74820941D01*
X141065483Y-74790470D01*
X140947240Y-74685717D01*
X140933994Y-74678765D01*
X140807364Y-74612303D01*
X140653985Y-74574500D01*
X140496015Y-74574500D01*
X140342635Y-74612303D01*
X140202761Y-74685716D01*
X140084515Y-74790471D01*
X139994780Y-74920476D01*
X139938763Y-75068181D01*
X139919721Y-75224999D01*
X139938763Y-75381818D01*
X139994780Y-75529523D01*
X140084515Y-75659528D01*
X140084516Y-75659529D01*
X140084517Y-75659530D01*
X140202760Y-75764283D01*
X140342635Y-75837696D01*
X140496015Y-75875500D01*
X140653985Y-75875500D01*
X140807365Y-75837696D01*
X140947240Y-75764283D01*
X141065483Y-75659530D01*
X141086515Y-75629058D01*
X141130938Y-75589704D01*
X141188564Y-75575500D01*
X143225788Y-75575500D01*
X143251234Y-75578139D01*
X143252556Y-75578416D01*
X143260315Y-75580043D01*
X143286364Y-75576795D01*
X143289123Y-75576452D01*
X143303795Y-75575541D01*
X143323013Y-75572334D01*
X143328069Y-75571596D01*
X143376393Y-75565573D01*
X143376394Y-75565572D01*
X143383808Y-75564648D01*
X143390378Y-75561092D01*
X143390381Y-75561092D01*
X143433201Y-75537918D01*
X143437747Y-75535577D01*
X143481484Y-75514198D01*
X143481486Y-75514195D01*
X143488195Y-75510916D01*
X143493254Y-75505419D01*
X143493258Y-75505418D01*
X143526254Y-75469572D01*
X143529756Y-75465924D01*
X146013046Y-72982634D01*
X146032903Y-72966510D01*
X146040669Y-72961437D01*
X146058496Y-72938531D01*
X146068232Y-72927507D01*
X146068375Y-72927307D01*
X146079559Y-72911640D01*
X146082607Y-72907552D01*
X146112517Y-72869126D01*
X146112517Y-72869125D01*
X146117105Y-72863231D01*
X146119237Y-72856068D01*
X146119239Y-72856066D01*
X146133142Y-72809363D01*
X146134674Y-72804581D01*
X146150500Y-72758488D01*
X146150500Y-72758486D01*
X146152925Y-72751423D01*
X146152616Y-72743956D01*
X146152617Y-72743954D01*
X146150605Y-72695331D01*
X146150500Y-72690208D01*
X146150500Y-69749207D01*
X146153139Y-69723761D01*
X146153173Y-69723594D01*
X146155042Y-69714685D01*
X146151452Y-69685884D01*
X146150540Y-69671205D01*
X146150500Y-69670965D01*
X146150500Y-69670960D01*
X146147331Y-69651972D01*
X146146594Y-69646915D01*
X146145604Y-69638970D01*
X146140573Y-69598607D01*
X146140572Y-69598605D01*
X146139648Y-69591191D01*
X146136092Y-69584620D01*
X146136092Y-69584619D01*
X146112925Y-69541811D01*
X146110581Y-69537256D01*
X146085918Y-69486805D01*
X146057672Y-69460803D01*
X146044587Y-69448757D01*
X146040914Y-69445232D01*
X144582638Y-67986956D01*
X144566509Y-67967094D01*
X144561437Y-67959330D01*
X144538533Y-67941504D01*
X144527508Y-67931768D01*
X144511653Y-67920448D01*
X144507544Y-67917384D01*
X144463229Y-67882892D01*
X144409409Y-67866869D01*
X144404531Y-67865306D01*
X144351421Y-67847074D01*
X144295332Y-67849394D01*
X144290208Y-67849500D01*
X141396544Y-67849500D01*
X141349091Y-67840061D01*
X141308863Y-67813181D01*
X139895682Y-66400000D01*
X141394721Y-66400000D01*
X141413763Y-66556818D01*
X141469780Y-66704523D01*
X141559515Y-66834528D01*
X141559516Y-66834529D01*
X141559517Y-66834530D01*
X141677760Y-66939283D01*
X141817635Y-67012696D01*
X141971015Y-67050500D01*
X142128985Y-67050500D01*
X142282365Y-67012696D01*
X142422240Y-66939283D01*
X142540483Y-66834530D01*
X142611902Y-66731060D01*
X142656327Y-66691703D01*
X142713953Y-66677500D01*
X154405072Y-66677500D01*
X154462698Y-66691704D01*
X154507122Y-66731060D01*
X154509515Y-66734528D01*
X154509516Y-66734529D01*
X154509517Y-66734530D01*
X154627760Y-66839283D01*
X154767635Y-66912696D01*
X154921015Y-66950500D01*
X155078985Y-66950500D01*
X155232365Y-66912696D01*
X155372240Y-66839283D01*
X155490483Y-66734530D01*
X155580220Y-66604523D01*
X155636237Y-66456818D01*
X155655278Y-66300000D01*
X155636237Y-66143182D01*
X155580220Y-65995477D01*
X155490483Y-65865470D01*
X155372240Y-65760717D01*
X155349792Y-65748935D01*
X155232364Y-65687303D01*
X155078985Y-65649500D01*
X154921015Y-65649500D01*
X154767635Y-65687303D01*
X154627761Y-65760716D01*
X154509515Y-65865471D01*
X154507122Y-65868940D01*
X154462698Y-65908296D01*
X154405072Y-65922500D01*
X142539006Y-65922500D01*
X142495036Y-65914442D01*
X142456780Y-65891317D01*
X142422240Y-65860717D01*
X142315449Y-65804668D01*
X142282364Y-65787303D01*
X142128985Y-65749500D01*
X141971015Y-65749500D01*
X141817635Y-65787303D01*
X141677761Y-65860716D01*
X141559515Y-65965471D01*
X141469780Y-66095476D01*
X141413763Y-66243181D01*
X141394721Y-66400000D01*
X139895682Y-66400000D01*
X139886819Y-66391137D01*
X139859939Y-66350909D01*
X139850500Y-66303456D01*
X139850500Y-63796544D01*
X139859939Y-63749091D01*
X139886819Y-63708863D01*
X141808862Y-61786819D01*
X141849090Y-61759939D01*
X141896543Y-61750500D01*
X145018569Y-61750500D01*
X145076194Y-61764703D01*
X145167635Y-61812696D01*
X145321015Y-61850500D01*
X145478985Y-61850500D01*
X145632365Y-61812696D01*
X145772240Y-61739283D01*
X145890483Y-61634530D01*
X145980220Y-61504523D01*
X146036237Y-61356818D01*
X146055278Y-61200000D01*
X146036237Y-61043182D01*
X145980220Y-60895477D01*
X145890483Y-60765470D01*
X145772240Y-60660717D01*
X145758994Y-60653764D01*
X145632364Y-60587303D01*
X145478985Y-60549500D01*
X145321015Y-60549500D01*
X145167635Y-60587303D01*
X145027761Y-60660716D01*
X144909515Y-60765471D01*
X144819780Y-60895476D01*
X144791718Y-60969471D01*
X144765205Y-61011398D01*
X144724380Y-61039577D01*
X144675776Y-61049500D01*
X141749212Y-61049500D01*
X141723766Y-61046861D01*
X141714685Y-61044957D01*
X141685877Y-61048548D01*
X141671201Y-61049458D01*
X141651961Y-61052668D01*
X141646903Y-61053405D01*
X141591189Y-61060351D01*
X141541813Y-61087072D01*
X141537261Y-61089415D01*
X141486804Y-61114082D01*
X141448780Y-61155387D01*
X141445233Y-61159083D01*
X139286955Y-63317361D01*
X139267104Y-63333483D01*
X139259332Y-63338561D01*
X139241500Y-63361471D01*
X139231765Y-63372496D01*
X139220441Y-63388357D01*
X139217392Y-63392445D01*
X139200954Y-63413566D01*
X139182891Y-63436773D01*
X139166871Y-63490582D01*
X139165309Y-63495458D01*
X139147074Y-63548577D01*
X139149394Y-63604668D01*
X139149500Y-63609792D01*
X139149500Y-66450788D01*
X139146861Y-66476234D01*
X139144957Y-66485314D01*
X139148548Y-66514123D01*
X139149458Y-66528795D01*
X139152665Y-66548013D01*
X139153403Y-66553078D01*
X139160351Y-66608809D01*
X139187081Y-66658202D01*
X139189421Y-66662747D01*
X139210802Y-66706484D01*
X139210803Y-66706485D01*
X139214084Y-66713196D01*
X139219581Y-66718256D01*
X139219582Y-66718258D01*
X139233489Y-66731060D01*
X139255399Y-66751230D01*
X139259097Y-66754779D01*
X140917361Y-68413043D01*
X140933489Y-68432903D01*
X140938563Y-68440669D01*
X140961473Y-68458500D01*
X140972492Y-68468232D01*
X140981120Y-68474391D01*
X140988359Y-68479559D01*
X140992420Y-68482587D01*
X141030874Y-68512517D01*
X141030876Y-68512517D01*
X141036775Y-68517109D01*
X141090593Y-68533131D01*
X141095437Y-68534682D01*
X141141512Y-68550500D01*
X141141514Y-68550500D01*
X141148578Y-68552925D01*
X141156043Y-68552616D01*
X141156046Y-68552617D01*
X141204668Y-68550605D01*
X141209792Y-68550500D01*
X144103456Y-68550500D01*
X144150909Y-68559939D01*
X144191137Y-68586819D01*
X145413181Y-69808863D01*
X145440061Y-69849091D01*
X145449500Y-69896544D01*
X145449500Y-70528864D01*
X145430834Y-70594291D01*
X145380456Y-70640021D01*
X145313532Y-70652285D01*
X145250212Y-70627392D01*
X145209558Y-70572835D01*
X145181169Y-70497980D01*
X145180220Y-70495477D01*
X145090483Y-70365470D01*
X144972240Y-70260717D01*
X144958994Y-70253765D01*
X144832364Y-70187303D01*
X144678985Y-70149500D01*
X144521015Y-70149500D01*
X144367635Y-70187303D01*
X144227761Y-70260716D01*
X144109515Y-70365471D01*
X144107122Y-70368940D01*
X144062698Y-70408296D01*
X144005072Y-70422500D01*
X143789070Y-70422500D01*
X143731444Y-70408297D01*
X143687020Y-70368940D01*
X143665974Y-70313447D01*
X143673128Y-70254529D01*
X143673145Y-70254483D01*
X143682310Y-70230318D01*
X143701351Y-70073500D01*
X143682310Y-69916682D01*
X143626293Y-69768977D01*
X143558637Y-69670960D01*
X143536557Y-69638971D01*
X143482624Y-69591191D01*
X143418313Y-69534217D01*
X143330764Y-69488267D01*
X143278437Y-69460803D01*
X143125058Y-69423000D01*
X142967088Y-69423000D01*
X142813708Y-69460803D01*
X142673834Y-69534216D01*
X142555588Y-69638971D01*
X142553195Y-69642440D01*
X142508771Y-69681796D01*
X142451145Y-69696000D01*
X140916007Y-69696000D01*
X140890561Y-69693361D01*
X140879816Y-69691108D01*
X140861741Y-69693361D01*
X140848206Y-69695048D01*
X140832869Y-69696000D01*
X140832719Y-69696000D01*
X140812080Y-69699443D01*
X140807016Y-69700181D01*
X140747009Y-69707661D01*
X140746629Y-69707783D01*
X140693441Y-69736566D01*
X140688888Y-69738909D01*
X140634571Y-69765464D01*
X140634237Y-69765712D01*
X140593280Y-69810203D01*
X140589733Y-69813899D01*
X135979953Y-74423681D01*
X135939725Y-74450561D01*
X135892272Y-74460000D01*
X135014512Y-74460000D01*
X134989066Y-74457361D01*
X134978316Y-74455107D01*
X134946699Y-74459048D01*
X134931362Y-74460000D01*
X134931219Y-74460000D01*
X134910601Y-74463439D01*
X134905549Y-74464176D01*
X134845516Y-74471659D01*
X134845130Y-74471783D01*
X134791949Y-74500563D01*
X134787396Y-74502906D01*
X134733070Y-74529465D01*
X134732737Y-74529713D01*
X134691768Y-74574216D01*
X134688222Y-74577911D01*
X133027952Y-76238181D01*
X132987724Y-76265061D01*
X132940271Y-76274500D01*
X132796015Y-76274500D01*
X132679175Y-76303298D01*
X132623474Y-76304139D01*
X132573027Y-76280512D01*
X132538013Y-76237184D01*
X132525500Y-76182901D01*
X132525500Y-74521545D01*
X132534938Y-74474093D01*
X132561817Y-74433866D01*
X132610722Y-74384959D01*
X132665107Y-74353193D01*
X132705959Y-74352576D01*
X132705959Y-74350500D01*
X132878985Y-74350500D01*
X133032365Y-74312696D01*
X133172240Y-74239283D01*
X133290483Y-74134530D01*
X133380220Y-74004523D01*
X133436237Y-73856818D01*
X133455278Y-73700000D01*
X133436237Y-73543182D01*
X133380220Y-73395477D01*
X133290483Y-73265470D01*
X133172240Y-73160717D01*
X133158994Y-73153764D01*
X133032364Y-73087303D01*
X132878985Y-73049500D01*
X132721015Y-73049500D01*
X132567635Y-73087303D01*
X132427761Y-73160716D01*
X132309515Y-73265471D01*
X132219780Y-73395476D01*
X132163763Y-73543181D01*
X132144721Y-73700000D01*
X132154724Y-73782380D01*
X132148845Y-73837775D01*
X132119309Y-73885007D01*
X131961955Y-74042361D01*
X131942104Y-74058483D01*
X131934332Y-74063561D01*
X131916500Y-74086471D01*
X131906765Y-74097496D01*
X131895441Y-74113357D01*
X131892392Y-74117445D01*
X131878499Y-74135296D01*
X131857891Y-74161773D01*
X131841871Y-74215582D01*
X131840309Y-74220458D01*
X131822074Y-74273577D01*
X131824394Y-74329668D01*
X131824500Y-74334792D01*
X131824500Y-77325788D01*
X131821861Y-77351234D01*
X131820122Y-77359530D01*
X131819957Y-77360315D01*
X125935367Y-77360315D01*
X126478949Y-76816733D01*
X130913043Y-72382636D01*
X130932895Y-72366515D01*
X130940669Y-72361437D01*
X130958500Y-72338526D01*
X130968227Y-72327513D01*
X130979550Y-72311653D01*
X130982604Y-72307555D01*
X131012517Y-72269126D01*
X131012517Y-72269123D01*
X131017108Y-72263226D01*
X131033127Y-72209419D01*
X131034679Y-72204569D01*
X131050500Y-72158488D01*
X131050500Y-72158485D01*
X131052925Y-72151421D01*
X131052616Y-72143956D01*
X131052617Y-72143954D01*
X131050605Y-72095331D01*
X131050500Y-72090208D01*
X131050500Y-65714351D01*
X131061425Y-65663460D01*
X131092271Y-65621536D01*
X131190483Y-65534530D01*
X131280220Y-65404523D01*
X131336237Y-65256818D01*
X131355278Y-65100000D01*
X131336237Y-64943182D01*
X131280220Y-64795477D01*
X131190483Y-64665470D01*
X131072240Y-64560717D01*
X131058994Y-64553765D01*
X130932364Y-64487303D01*
X130778985Y-64449500D01*
X130621015Y-64449500D01*
X130467635Y-64487303D01*
X130327761Y-64560716D01*
X130209515Y-64665471D01*
X130119780Y-64795476D01*
X130063763Y-64943181D01*
X130044721Y-65099999D01*
X130063763Y-65256818D01*
X130119780Y-65404523D01*
X130209517Y-65534530D01*
X130307728Y-65621536D01*
X130338575Y-65663460D01*
X130349500Y-65714351D01*
X130349500Y-71903456D01*
X130340061Y-71950909D01*
X130313181Y-71991137D01*
X125036955Y-77267361D01*
X125017104Y-77283483D01*
X125009332Y-77288561D01*
X124991500Y-77311471D01*
X124981765Y-77322496D01*
X124970441Y-77338357D01*
X124967392Y-77342445D01*
X124951639Y-77362686D01*
X124932891Y-77386773D01*
X124916871Y-77440582D01*
X124915309Y-77445458D01*
X124897074Y-77498577D01*
X124899394Y-77554668D01*
X124899500Y-77559792D01*
X124899500Y-85885649D01*
X124888575Y-85936540D01*
X124857728Y-85978463D01*
X124759517Y-86065470D01*
X124759516Y-86065471D01*
X124669780Y-86195476D01*
X124613763Y-86343181D01*
X124594721Y-86500000D01*
X124613763Y-86656818D01*
X124669780Y-86804523D01*
X124759517Y-86934530D01*
X124857728Y-87021536D01*
X124888575Y-87063460D01*
X124899500Y-87114351D01*
X124899500Y-87385649D01*
X124888575Y-87436540D01*
X124857728Y-87478463D01*
X124759517Y-87565470D01*
X124759516Y-87565471D01*
X124669780Y-87695476D01*
X124613763Y-87843181D01*
X124594721Y-87999999D01*
X124613763Y-88156818D01*
X124669780Y-88304523D01*
X124756086Y-88429560D01*
X124775530Y-88475197D01*
X124775530Y-88524803D01*
X124756086Y-88570440D01*
X124669780Y-88695476D01*
X124613763Y-88843181D01*
X124594721Y-89000000D01*
X110000500Y-89000000D01*
X110000500Y-74499999D01*
X112244721Y-74499999D01*
X112263763Y-74656818D01*
X112319780Y-74804523D01*
X112409515Y-74934528D01*
X112409516Y-74934529D01*
X112409517Y-74934530D01*
X112527760Y-75039283D01*
X112667635Y-75112696D01*
X112821015Y-75150500D01*
X112978985Y-75150500D01*
X113132365Y-75112696D01*
X113272240Y-75039283D01*
X113390483Y-74934530D01*
X113411515Y-74904058D01*
X113455938Y-74864704D01*
X113513564Y-74850500D01*
X116300788Y-74850500D01*
X116326234Y-74853139D01*
X116327556Y-74853416D01*
X116335315Y-74855043D01*
X116361364Y-74851795D01*
X116364123Y-74851452D01*
X116378795Y-74850541D01*
X116398013Y-74847334D01*
X116403069Y-74846596D01*
X116451393Y-74840573D01*
X116451394Y-74840572D01*
X116458808Y-74839648D01*
X116465378Y-74836092D01*
X116465381Y-74836092D01*
X116508201Y-74812918D01*
X116512747Y-74810577D01*
X116556484Y-74789198D01*
X116556486Y-74789195D01*
X116563195Y-74785916D01*
X116568254Y-74780419D01*
X116568258Y-74780418D01*
X116601254Y-74744572D01*
X116604756Y-74740924D01*
X119463046Y-71882634D01*
X119482903Y-71866510D01*
X119490669Y-71861437D01*
X119508496Y-71838531D01*
X119518232Y-71827507D01*
X119518375Y-71827307D01*
X119529559Y-71811640D01*
X119532607Y-71807552D01*
X119562517Y-71769126D01*
X119562517Y-71769125D01*
X119567105Y-71763231D01*
X119569237Y-71756068D01*
X119569239Y-71756066D01*
X119583142Y-71709363D01*
X119584674Y-71704581D01*
X119600500Y-71658488D01*
X119600500Y-71658486D01*
X119602925Y-71651423D01*
X119602616Y-71643956D01*
X119602617Y-71643954D01*
X119600605Y-71595331D01*
X119600500Y-71590208D01*
X119600500Y-65996544D01*
X119609939Y-65949091D01*
X119636819Y-65908863D01*
X122958862Y-62586819D01*
X122999090Y-62559939D01*
X123046543Y-62550500D01*
X133703456Y-62550500D01*
X133750909Y-62559939D01*
X133791137Y-62586819D01*
X134219309Y-63014991D01*
X134248845Y-63062222D01*
X134254724Y-63117618D01*
X134244721Y-63199998D01*
X134263763Y-63356818D01*
X134319780Y-63504523D01*
X134409515Y-63634528D01*
X134409516Y-63634529D01*
X134409517Y-63634530D01*
X134527760Y-63739283D01*
X134667635Y-63812696D01*
X134821015Y-63850500D01*
X134978985Y-63850500D01*
X135132365Y-63812696D01*
X135272240Y-63739283D01*
X135390483Y-63634530D01*
X135480220Y-63504523D01*
X135536237Y-63356818D01*
X135555278Y-63200000D01*
X135536237Y-63043182D01*
X135480220Y-62895477D01*
X135390483Y-62765470D01*
X135272240Y-62660717D01*
X135258994Y-62653765D01*
X135132364Y-62587303D01*
X134978985Y-62549500D01*
X134821015Y-62549500D01*
X134805959Y-62549500D01*
X134805959Y-62547426D01*
X134765097Y-62546804D01*
X134710723Y-62515042D01*
X134182638Y-61986956D01*
X134166509Y-61967094D01*
X134161437Y-61959330D01*
X134138533Y-61941504D01*
X134127508Y-61931768D01*
X134111653Y-61920448D01*
X134107544Y-61917384D01*
X134063229Y-61882892D01*
X134009409Y-61866869D01*
X134004531Y-61865306D01*
X133951421Y-61847074D01*
X133895332Y-61849394D01*
X133890208Y-61849500D01*
X122899212Y-61849500D01*
X122873766Y-61846861D01*
X122864685Y-61844957D01*
X122835877Y-61848548D01*
X122821201Y-61849458D01*
X122801961Y-61852668D01*
X122796903Y-61853405D01*
X122741189Y-61860351D01*
X122691813Y-61887072D01*
X122687261Y-61889415D01*
X122636804Y-61914082D01*
X122598780Y-61955387D01*
X122595233Y-61959083D01*
X119036955Y-65517361D01*
X119017104Y-65533483D01*
X119009332Y-65538561D01*
X118991500Y-65561471D01*
X118981765Y-65572496D01*
X118970441Y-65588357D01*
X118967392Y-65592445D01*
X118950954Y-65613566D01*
X118932891Y-65636773D01*
X118916871Y-65690582D01*
X118915309Y-65695458D01*
X118897074Y-65748577D01*
X118899394Y-65804668D01*
X118899500Y-65809792D01*
X118899500Y-71403456D01*
X118890061Y-71450909D01*
X118863181Y-71491137D01*
X116241137Y-74113181D01*
X116200909Y-74140061D01*
X116153456Y-74149500D01*
X113513564Y-74149500D01*
X113455938Y-74135296D01*
X113411515Y-74095941D01*
X113390483Y-74065470D01*
X113272240Y-73960717D01*
X113258994Y-73953764D01*
X113132364Y-73887303D01*
X112978985Y-73849500D01*
X112821015Y-73849500D01*
X112667635Y-73887303D01*
X112527761Y-73960716D01*
X112409515Y-74065471D01*
X112319780Y-74195476D01*
X112263763Y-74343181D01*
X112244721Y-74499999D01*
X110000500Y-74499999D01*
X110000500Y-59317764D01*
X112095787Y-59317764D01*
X112125413Y-59587016D01*
X112193928Y-59849087D01*
X112299871Y-60098392D01*
X112440982Y-60329611D01*
X112530253Y-60436881D01*
X112614255Y-60537820D01*
X112815998Y-60718582D01*
X113041910Y-60868044D01*
X113100428Y-60895476D01*
X113287177Y-60983021D01*
X113541141Y-61059427D01*
X113546569Y-61061060D01*
X113814561Y-61100500D01*
X114017631Y-61100500D01*
X114017634Y-61100500D01*
X114220156Y-61085677D01*
X114220155Y-61085677D01*
X114484553Y-61026780D01*
X114737558Y-60930014D01*
X114973777Y-60797441D01*
X115188177Y-60631888D01*
X115376186Y-60436881D01*
X115533799Y-60216579D01*
X115657656Y-59975675D01*
X115745118Y-59719305D01*
X115794319Y-59452933D01*
X115804212Y-59182235D01*
X115774586Y-58912982D01*
X115706072Y-58650912D01*
X115600130Y-58401610D01*
X115459018Y-58170390D01*
X115459017Y-58170388D01*
X115285746Y-57962181D01*
X115246836Y-57927318D01*
X115084002Y-57781418D01*
X114858090Y-57631956D01*
X114858086Y-57631954D01*
X114612822Y-57516978D01*
X114353437Y-57438941D01*
X114353431Y-57438940D01*
X114085439Y-57399500D01*
X113882369Y-57399500D01*
X113882366Y-57399500D01*
X113679843Y-57414322D01*
X113415449Y-57473219D01*
X113162441Y-57569986D01*
X112926223Y-57702559D01*
X112711825Y-57868109D01*
X112523813Y-58063120D01*
X112366201Y-58283420D01*
X112242342Y-58524329D01*
X112154881Y-58780695D01*
X112105680Y-59047066D01*
X112095787Y-59317764D01*
X110000500Y-59317764D01*
X110000500Y-59202872D01*
X110000632Y-59197146D01*
X110007570Y-59047067D01*
X110008490Y-59027168D01*
X110018166Y-58830200D01*
X110019200Y-58819217D01*
X110044611Y-58637054D01*
X110044722Y-58636286D01*
X110071950Y-58452729D01*
X110073890Y-58442595D01*
X110116526Y-58261318D01*
X110116837Y-58260037D01*
X110161405Y-58082111D01*
X110164091Y-58072922D01*
X110223572Y-57895457D01*
X110224270Y-57893442D01*
X110285699Y-57721759D01*
X110288996Y-57713497D01*
X110364713Y-57542015D01*
X110366051Y-57539089D01*
X110397205Y-57473219D01*
X110443727Y-57374855D01*
X110447452Y-57367612D01*
X110538864Y-57203497D01*
X110540745Y-57200243D01*
X110634036Y-57044598D01*
X110638034Y-57038363D01*
X110744270Y-56883278D01*
X110746899Y-56879590D01*
X110854909Y-56733954D01*
X110859011Y-56728728D01*
X110979239Y-56583944D01*
X110982577Y-56580097D01*
X111104340Y-56445752D01*
X111108437Y-56441450D01*
X111241450Y-56308437D01*
X111245752Y-56304340D01*
X111380097Y-56182577D01*
X111383944Y-56179239D01*
X111528728Y-56059011D01*
X111533954Y-56054909D01*
X111679590Y-55946899D01*
X111683278Y-55944270D01*
X111838363Y-55838034D01*
X111844598Y-55834036D01*
X112000243Y-55740745D01*
X112003497Y-55738864D01*
X112167612Y-55647452D01*
X112174855Y-55643727D01*
X112339098Y-55566046D01*
X112342018Y-55564712D01*
X112406007Y-55536458D01*
X112513497Y-55488996D01*
X112521759Y-55485699D01*
X112693442Y-55424270D01*
X112695457Y-55423572D01*
X112872922Y-55364091D01*
X112882111Y-55361405D01*
X113060037Y-55316837D01*
X113061318Y-55316526D01*
X113242595Y-55273890D01*
X113252727Y-55271950D01*
X113436295Y-55244720D01*
X113436913Y-55244631D01*
X113440150Y-55244179D01*
X113457004Y-55242992D01*
X134724748Y-55200500D01*
X155997128Y-55200500D01*
X156002854Y-55200632D01*
G37*
%TD.AperFunction*%
%TD*%
M02*
