M48
; DRILL file {KiCad 7.0.1-0} date 2024 March 03, Sunday 19:15:32
; FORMAT={-:-/ absolute / inch / decimal}
; #@! TF.CreationDate,2024-03-03T19:15:32-08:00
; #@! TF.GenerationSoftware,Kicad,Pcbnew,7.0.1-0
; #@! TF.FileFunction,Plated,1,2,PTH
FMAT,2
INCH
; #@! TA.AperFunction,Plated,PTH,ViaDrill
T1C0.0157
; #@! TA.AperFunction,Plated,PTH,ComponentDrill
T2C0.0276
; #@! TA.AperFunction,Plated,PTH,ComponentDrill
T3C0.0394
%
G90
G05
T1
X4.385Y-2.3713
X4.385Y-2.4713
X4.385Y-2.5713
X4.385Y-2.6713
X4.385Y-2.7713
X4.385Y-2.8713
X4.385Y-2.9713
X4.385Y-3.0713
X4.385Y-3.1713
X4.385Y-3.2713
X4.385Y-3.3713
X4.385Y-3.4713
X4.385Y-3.5713
X4.385Y-3.6713
X4.385Y-3.7713
X4.385Y-3.8713
X4.385Y-3.9713
X4.4449Y-2.9331
X4.485Y-2.4713
X4.485Y-2.5713
X4.485Y-2.8713
X4.485Y-3.1713
X4.485Y-3.2713
X4.485Y-3.3713
X4.485Y-3.4713
X4.485Y-3.5713
X4.485Y-3.6713
X4.485Y-3.7713
X4.485Y-3.8713
X4.485Y-4.0713
X4.585Y-2.2713
X4.585Y-2.3713
X4.585Y-2.4713
X4.585Y-2.5713
X4.585Y-3.1713
X4.585Y-3.2713
X4.585Y-3.3713
X4.585Y-3.4713
X4.585Y-3.6713
X4.585Y-3.7713
X4.585Y-3.8713
X4.585Y-3.9713
X4.585Y-4.0713
X4.685Y-2.2713
X4.685Y-2.3713
X4.685Y-2.4713
X4.685Y-2.9713
X4.685Y-3.1713
X4.685Y-3.2713
X4.685Y-3.7713
X4.685Y-3.8713
X4.785Y-2.2713
X4.785Y-2.3713
X4.785Y-2.5713
X4.785Y-2.6713
X4.785Y-2.7713
X4.785Y-2.8713
X4.785Y-2.9713
X4.785Y-3.1713
X4.785Y-3.2713
X4.785Y-3.7713
X4.785Y-3.8713
X4.785Y-3.9713
X4.785Y-4.0713
X4.885Y-2.2713
X4.885Y-2.3713
X4.885Y-2.5713
X4.885Y-2.7713
X4.885Y-2.9713
X4.885Y-3.7713
X4.885Y-3.8713
X4.9311Y-3.4055
X4.9311Y-3.4646
X4.9311Y-3.5039
X4.985Y-2.2713
X4.985Y-2.3713
X4.985Y-2.5713
X4.985Y-2.6713
X4.985Y-2.8713
X4.985Y-3.0713
X4.985Y-3.1713
X4.985Y-3.2713
X4.985Y-3.3713
X4.985Y-3.4713
X4.985Y-3.6713
X4.985Y-3.7713
X4.985Y-3.8713
X4.985Y-3.9713
X4.985Y-4.0713
X5.0433Y-3.5039
X5.085Y-2.2713
X5.085Y-2.3713
X5.085Y-3.7713
X5.085Y-3.8713
X5.085Y-3.9713
X5.085Y-4.0713
X5.1024Y-3.563
X5.1181Y-2.9646
X5.1181Y-3.0472
X5.1181Y-3.4094
X5.1457Y-2.563
X5.1496Y-3.626
X5.1535Y-3.1378
X5.1575Y-3.0157
X5.1614Y-2.9213
X5.185Y-2.2713
X5.185Y-2.3713
X5.185Y-3.3713
X5.185Y-3.8713
X5.185Y-3.9713
X5.185Y-4.0713
X5.2283Y-2.9016
X5.2313Y-3.0285
X5.2362Y-3.4567
X5.2835Y-3.0709
X5.285Y-2.2713
X5.285Y-2.3713
X5.285Y-3.6713
X5.285Y-3.8713
X5.285Y-3.9713
X5.285Y-4.0713
X5.3071Y-2.6299
X5.3071Y-2.6929
X5.3071Y-2.7559
X5.311Y-2.4882
X5.3543Y-3.0797
X5.3563Y-3.0138
X5.3701Y-2.6929
X5.385Y-2.2713
X5.385Y-2.3713
X5.385Y-2.4713
X5.385Y-3.8713
X5.385Y-3.9713
X5.385Y-4.0713
X5.4016Y-3.6142
X5.4213Y-2.9857
X5.4331Y-2.6299
X5.4331Y-2.6929
X5.4331Y-2.7559
X5.4803Y-3.1211
X5.485Y-2.2713
X5.485Y-2.3713
X5.485Y-3.7713
X5.485Y-3.8713
X5.485Y-3.9713
X5.485Y-4.0713
X5.5344Y-2.9616
X5.585Y-2.2713
X5.585Y-2.3713
X5.585Y-3.4713
X5.585Y-3.5713
X5.585Y-3.8713
X5.585Y-3.9713
X5.585Y-4.0713
X5.5925Y-2.6142
X5.6317Y-2.7588
X5.685Y-2.2713
X5.685Y-2.5713
X5.685Y-3.3713
X5.685Y-3.4713
X5.685Y-3.5713
X5.685Y-3.6713
X5.685Y-3.9713
X5.685Y-4.0713
X5.6929Y-2.7874
X5.7244Y-2.4094
X5.7244Y-3.0591
X5.785Y-2.2713
X5.785Y-2.3713
X5.785Y-2.4713
X5.785Y-2.9713
X5.785Y-3.0713
X5.785Y-3.3713
X5.785Y-3.4713
X5.785Y-3.7713
X5.885Y-2.2713
X5.885Y-3.4713
X5.885Y-3.7713
X5.9616Y-2.9941
X5.985Y-2.2713
X5.985Y-2.7713
X5.985Y-3.6713
X5.985Y-3.7713
X5.985Y-3.9713
X5.985Y-4.0713
X6.085Y-2.2713
X6.085Y-2.7713
X6.085Y-2.8713
X6.085Y-2.9713
X6.085Y-3.0713
X6.085Y-3.4713
X6.085Y-3.5713
X6.085Y-3.6713
X6.085Y-4.0713
X6.1024Y-2.6102
X6.185Y-2.2713
X6.185Y-2.3713
X6.185Y-2.4713
X6.185Y-3.8713
X6.185Y-4.0713
T2
X4.7264Y-3.6644
X4.8839Y-3.6644
X5.7461Y-3.6644
X5.9035Y-3.6644
T3
X5.6431Y-3.3081
X5.7431Y-3.3081
T0
M30
