M48
; DRILL file {KiCad 7.0.1-0} date 2023 December 18, Monday 21:05:35
; FORMAT={-:-/ absolute / inch / decimal}
; #@! TF.CreationDate,2023-12-18T21:05:35-06:00
; #@! TF.GenerationSoftware,Kicad,Pcbnew,7.0.1-0
; #@! TF.FileFunction,Plated,1,2,PTH
FMAT,2
INCH
; #@! TA.AperFunction,Plated,PTH,ViaDrill
T1C0.0157
; #@! TA.AperFunction,Plated,PTH,ComponentDrill
T2C0.0276
; #@! TA.AperFunction,Plated,PTH,ComponentDrill
T3C0.0394
; #@! TA.AperFunction,Plated,PTH,ComponentDrill
T4C0.0472
%
G90
G05
T1
X4.385Y-2.3603
X4.385Y-2.4603
X4.385Y-2.5603
X4.385Y-2.6603
X4.385Y-2.7603
X4.385Y-2.8603
X4.385Y-2.9603
X4.385Y-3.0603
X4.385Y-3.1603
X4.385Y-3.2603
X4.385Y-3.3603
X4.385Y-3.4603
X4.385Y-3.5603
X4.385Y-3.6603
X4.385Y-3.7603
X4.385Y-3.8603
X4.385Y-3.9603
X4.485Y-2.4603
X4.485Y-2.5603
X4.485Y-2.6603
X4.485Y-2.8603
X4.485Y-2.9603
X4.485Y-3.1603
X4.485Y-3.2603
X4.485Y-3.3603
X4.485Y-3.4603
X4.485Y-3.5603
X4.485Y-3.6603
X4.485Y-3.7603
X4.485Y-3.8603
X4.563Y-2.9508
X4.585Y-2.2603
X4.585Y-2.3603
X4.585Y-2.4603
X4.585Y-2.5603
X4.585Y-2.6603
X4.585Y-3.1603
X4.585Y-3.2603
X4.585Y-3.3603
X4.585Y-3.4603
X4.585Y-3.6603
X4.585Y-3.7603
X4.585Y-3.8603
X4.585Y-3.9603
X4.585Y-4.0603
X4.685Y-2.2603
X4.685Y-2.3603
X4.685Y-2.4603
X4.685Y-2.9603
X4.685Y-3.0603
X4.685Y-3.1603
X4.685Y-3.7603
X4.685Y-3.8603
X4.785Y-2.2603
X4.785Y-2.3603
X4.785Y-2.4603
X4.785Y-2.5603
X4.785Y-2.7603
X4.785Y-2.8603
X4.785Y-2.9603
X4.785Y-3.0603
X4.785Y-3.1603
X4.785Y-3.7603
X4.785Y-3.8603
X4.785Y-3.9603
X4.885Y-2.2603
X4.885Y-2.3603
X4.885Y-2.4603
X4.885Y-2.5603
X4.885Y-3.2603
X4.885Y-3.4603
X4.885Y-3.7603
X4.885Y-3.8603
X4.9783Y-2.5098
X4.985Y-2.2603
X4.985Y-2.3603
X4.985Y-3.0603
X4.985Y-3.7603
X4.985Y-3.8603
X4.985Y-3.9603
X4.985Y-4.0603
X4.9941Y-2.7303
X5.0413Y-2.8051
X5.085Y-2.2603
X5.085Y-2.3603
X5.085Y-2.4603
X5.085Y-3.7603
X5.085Y-3.8603
X5.085Y-3.9603
X5.085Y-4.0603
X5.1457Y-2.563
X5.1535Y-2.9227
X5.185Y-2.2603
X5.185Y-2.3603
X5.185Y-2.4603
X5.185Y-3.0603
X5.185Y-3.8603
X5.185Y-3.9603
X5.185Y-4.0603
X5.2756Y-3.0787
X5.285Y-2.2603
X5.285Y-2.3603
X5.285Y-2.4603
X5.285Y-3.3603
X5.285Y-3.7603
X5.285Y-4.0603
X5.3071Y-2.6299
X5.3071Y-2.6929
X5.3071Y-2.7559
X5.3543Y-3.0787
X5.3701Y-2.6929
X5.385Y-2.2603
X5.385Y-2.3603
X5.385Y-2.4603
X5.385Y-4.0603
X5.4213Y-2.9857
X5.4331Y-2.6299
X5.4331Y-2.6929
X5.4331Y-2.7559
X5.485Y-2.2603
X5.485Y-2.3603
X5.485Y-3.1603
X5.485Y-3.4603
X5.485Y-3.7603
X5.485Y-3.8603
X5.485Y-3.9603
X5.485Y-4.0603
X5.585Y-2.2603
X5.585Y-2.3603
X5.585Y-3.5603
X5.585Y-3.8603
X5.585Y-3.9603
X5.585Y-4.0603
X5.5925Y-2.6142
X5.5945Y-2.7653
X5.6378Y-2.7953
X5.685Y-2.2603
X5.685Y-2.3603
X5.685Y-2.5603
X5.685Y-3.4603
X5.685Y-3.5603
X5.685Y-3.6603
X5.685Y-3.9603
X5.785Y-2.2603
X5.785Y-2.3603
X5.785Y-2.4603
X5.785Y-2.6603
X5.785Y-2.9603
X5.785Y-3.0603
X5.785Y-3.4603
X5.785Y-3.5603
X5.785Y-3.7603
X5.8346Y-2.8612
X5.885Y-2.2603
X5.885Y-2.7603
X5.885Y-3.4603
X5.885Y-3.7603
X5.9616Y-2.9941
X5.985Y-2.2603
X5.985Y-2.7603
X5.985Y-2.8603
X5.985Y-3.6603
X5.985Y-3.7603
X5.985Y-3.9603
X5.985Y-4.0603
X6.085Y-2.2603
X6.085Y-2.7603
X6.085Y-2.8603
X6.085Y-2.9603
X6.085Y-3.0603
X6.085Y-3.5603
X6.085Y-3.6603
X6.085Y-4.0603
X6.1024Y-2.6102
X6.185Y-2.2603
X6.185Y-2.3603
X6.185Y-2.4603
X6.185Y-2.5603
X6.185Y-3.8603
T2
X4.7264Y-3.6644
X4.8839Y-3.6644
X5.7461Y-3.6644
X5.9035Y-3.6644
T3
X5.6431Y-3.3081
X5.7431Y-3.3081
T4
X4.8898Y-2.8976
X4.8898Y-3.0945
T0
M30
